<svg width="30.000000" height="38.000000" viewBox="0 0 30 38" fill="none" xmlns="http://www.w3.org/2000/svg" xmlns:xlink="http://www.w3.org/1999/xlink">
	<desc>
			Created with Pixso.
	</desc>
	<defs/>
	<path id="Vector" d="M14.12 -0.19C22.3 -0.19 29.57 6.17 29.57 14.35C29.57 22.53 18.66 37.99 14.12 37.99C10.48 37.99 -0.43 22.53 -0.43 14.35C-0.43 6.17 5.94 -0.19 14.12 -0.19L14.12 -0.19Z" fill="#EF7F1A" fill-opacity="1.000000" fill-rule="evenodd"/>
	<path id="Vector" d="M25.94 15.26C25.94 21.79 20.65 27.08 14.12 27.08C7.59 27.08 2.3 21.79 2.3 15.26C2.3 8.73 7.59 3.44 14.12 3.44C20.65 3.44 25.94 8.73 25.94 15.26Z" fill="#FEFEFE" fill-opacity="1.000000" fill-rule="evenodd"/>
	<path id="Vector" d="M21.39 11.62L15.94 11.62L12.3 8.9L9.57 10.71L9.57 9.81L7.76 9.81L7.76 12.53L5.03 14.35L7.76 14.35L7.76 20.71L21.39 20.71L21.39 14.35L24.12 14.35L21.39 11.62ZM15.94 14.35L20.48 14.35L20.48 19.81L15.94 19.81L15.94 14.35ZM12.3 10.71L15.94 13.44L8.66 13.44L12.3 10.71ZM9.57 14.35L15.03 14.35L15.03 19.81L9.57 19.81L9.57 14.35Z" fill="#EF7F1A" fill-opacity="1.000000" fill-rule="evenodd"/>
	<path id="Vector" d="M21.39 11.62L15.94 11.62L12.3 8.9L9.57 10.71L9.57 9.81L7.76 9.81L7.76 12.53L5.03 14.35L21.39 14.35L24.12 14.35L21.39 11.62ZM12.3 10.71L15.94 13.44L8.66 13.44L12.3 10.71Z" fill="#5B5B5B" fill-opacity="1.000000" fill-rule="evenodd"/>
</svg>
