<svg width="30.000000" height="20.000000" viewBox="0 0 30 20" fill="none" xmlns="http://www.w3.org/2000/svg" xmlns:xlink="http://www.w3.org/1999/xlink">
	<desc>
			Created with Pixso.
	</desc>
	<defs/>
	<path id="Vector" d="M24.28 18.31C27.14 18.31 28.57 16.88 28.57 14.02L28.57 4.02C28.57 2.59 27.14 -0.26 24.28 -0.26L10 -0.26C8.57 -0.26 6.62 0.9 5.71 2.59C2.56 3.33 -0.07 5.3 -0.07 9.58C-0.07 12.44 2.85 15.45 5.71 15.45C7.14 16.88 8.57 18.31 10 18.31L24.28 18.31Z" stroke="#EF7F1A" stroke-opacity="1.000000" stroke-width="1.428571"/>
	<path id="Vector" d="M6.95 12.22C5.37 12.22 4.09 10.94 4.09 9.36C4.09 7.78 5.37 6.5 6.95 6.5C8.53 6.5 9.81 7.78 9.81 9.36C9.81 10.94 8.53 12.22 6.95 12.22Z" stroke="#EF7F1A" stroke-opacity="1.000000" stroke-width="1.428571" stroke-linejoin="round"/>
	<path id="Vector" d="M15.71 14.02L15.71 4.02C15.71 4.02 19.42 4.02 19.42 6.88C19.42 9.74 16.14 9.74 16.14 " stroke="#EF7F1A" stroke-opacity="1.000000" stroke-width="1.428571" stroke-linejoin="round" stroke-linecap="round"/>
	<path id="Vector" d="M14.28 12.59L17.57 " stroke="#EF7F1A" stroke-opacity="1.000000" stroke-width="1.428571" stroke-linejoin="round" stroke-linecap="round"/>
</svg>
