<svg width="70.000084" height="75.947754" viewBox="0 0 70.0001 75.9478" fill="none" xmlns="http://www.w3.org/2000/svg" xmlns:xlink="http://www.w3.org/1999/xlink">
	<desc>
			Created with Pixso.
	</desc>
	<defs/>
	<path id="Vector" d="M40.2614 0.915039L40.2614 75.0327L0.915031 75.0327L0.915031 13.2681L40.2614 0.915039Z" stroke="#EF7F1A" stroke-opacity="1.000000" stroke-width="1.830065" stroke-linejoin="round"/>
	<path id="Vector" d="M69.0851 21.5032L69.0851 75.0326L39.804 75.0326L39.804 21.5032L69.0851 21.5032Z" stroke="#EF7F1A" stroke-opacity="1.000000" stroke-width="1.830065" stroke-linejoin="round"/>
	<path id="Vector" d="M64.9673 8.69287L64.9673 21.5034L40.2614 21.5034L40.2614 8.69287L64.9673 8.69287Z" stroke="#EF7F1A" stroke-opacity="1.000000" stroke-width="1.830065" stroke-linejoin="round"/>
	<path id="Vector" d="M50.7842 1.83008L50.7842 8.69287" stroke="#EF7F1A" stroke-opacity="1.000000" stroke-width="1.830065" stroke-linejoin="round" stroke-linecap="round"/>
	<path id="Vector" d="M61.3072 11.438L61.3072 17.8433L43.0065 17.8433L43.0065 11.438L61.3072 11.438Z" stroke="#EF7F1A" stroke-opacity="1.000000" stroke-width="0.915033" stroke-linejoin="round"/>
	<path id="Vector" d="M65.8824 24.7058L65.8824 29.7385L39.804 29.7385L39.804 24.7058L65.8824 24.7058Z" stroke="#EF7F1A" stroke-opacity="1.000000" stroke-width="0.915033" stroke-linejoin="round"/>
	<path id="Vector" d="M65.8824 32.9412L65.8824 37.9739L39.804 37.9739L39.804 32.9412L65.8824 32.9412Z" stroke="#EF7F1A" stroke-opacity="1.000000" stroke-width="0.915033" stroke-linejoin="round"/>
	<path id="Vector" d="M65.8824 41.1765L65.8824 46.2092L39.804 46.2092L39.804 41.1765L65.8824 41.1765Z" stroke="#EF7F1A" stroke-opacity="1.000000" stroke-width="0.915033" stroke-linejoin="round"/>
	<path id="Vector" d="M65.8824 49.4117L65.8824 54.4445L39.804 54.4445L39.804 49.4117L65.8824 49.4117Z" stroke="#EF7F1A" stroke-opacity="1.000000" stroke-width="0.915033" stroke-linejoin="round"/>
	<path id="Vector" d="M65.8824 57.6471L65.8824 62.6798L39.804 62.6798L39.804 57.6471L65.8824 57.6471Z" stroke="#EF7F1A" stroke-opacity="1.000000" stroke-width="0.915033" stroke-linejoin="round"/>
	<path id="Vector" d="M65.8824 65.8823L65.8824 70.915L39.804 70.915L39.804 65.8823L65.8824 65.8823Z" stroke="#EF7F1A" stroke-opacity="1.000000" stroke-width="0.915033" stroke-linejoin="round"/>
	<path id="Vector" d="M10.0654 10.5229L10.0654 75.0327" stroke="#EF7F1A" stroke-opacity="1.000000" stroke-width="0.915033" stroke-linejoin="round" stroke-linecap="round"/>
	<path id="Vector" d="M19.6731 7.32031L19.6731 75.0327" stroke="#EF7F1A" stroke-opacity="1.000000" stroke-width="0.915033" stroke-linejoin="round" stroke-linecap="round"/>
	<path id="Vector" d="M29.7386 4.11768L29.7386 75.0327" stroke="#EF7F1A" stroke-opacity="1.000000" stroke-width="0.915033" stroke-linejoin="round" stroke-linecap="round"/>
	<path id="Vector" d="M0.915031 20.5881L40.2614 20.5881" stroke="#EF7F1A" stroke-opacity="1.000000" stroke-width="0.915033" stroke-linejoin="round" stroke-linecap="round"/>
	<path id="Vector" d="M0.915031 39.3464L40.2614 39.3464" stroke="#EF7F1A" stroke-opacity="1.000000" stroke-width="0.915033" stroke-linejoin="round" stroke-linecap="round"/>
	<path id="Vector" d="M0.915031 56.7321L40.2614 56.7321" stroke="#EF7F1A" stroke-opacity="1.000000" stroke-width="0.915033" stroke-linejoin="round" stroke-linecap="round"/>
</svg>
