<svg width="70.000000" height="70.000000" viewBox="0 0 70 70" fill="none" xmlns="http://www.w3.org/2000/svg" xmlns:xlink="http://www.w3.org/1999/xlink">
	<desc>
			Created with Pixso.
	</desc>
	<defs/>
	<path id="Vector" d="M25.621 5.94775L65.4249 21.5034L65.4249 69.085L4.5752 69.085L4.5752 21.5034L25.621 5.94775Z" stroke="#EF7F1A" stroke-opacity="1.000000" stroke-width="1.830065" stroke-linejoin="round"/>
	<path id="Vector" d="M25.6209 0.915039L69.085 17.8433L69.085 22.8757L25.6209 5.94775L0.915039 24.2483L0.915039 19.2156L25.6209 0.915039Z" stroke="#EF7F1A" stroke-opacity="1.000000" stroke-width="1.830065" stroke-linejoin="round"/>
	<path id="Vector" d="M35.2287 37.0588L12.8104 37.0588L12.8104 21.5034L26.0784 11.8955L35.2287 16.0132L35.2287 37.0588Z" stroke="#EF7F1A" stroke-opacity="1.000000" stroke-width="1.830065" stroke-linejoin="round"/>
	<path id="Vector" d="M40.719 37.0588L40.719 16.9282L57.6471 23.3335L57.6471 37.0588L40.719 37.0588Z" stroke="#EF7F1A" stroke-opacity="1.000000" stroke-width="1.830065" stroke-linejoin="round"/>
	<path id="Vector" d="M35.2287 40.719L35.2287 60.8497L12.8104 60.8497L12.8104 40.719L35.2287 40.719Z" stroke="#EF7F1A" stroke-opacity="1.000000" stroke-width="1.830065" stroke-linejoin="round"/>
	<path id="Vector" d="M57.6471 40.719L57.6471 60.8497L40.2614 60.8497L40.2614 40.719L57.6471 40.719Z" stroke="#EF7F1A" stroke-opacity="1.000000" stroke-width="1.830065" stroke-linejoin="round"/>
	<path id="Vector" d="M24.2484 40.719L24.2484 60.8497" stroke="#EF7F1A" stroke-opacity="1.000000" stroke-width="0.915033" stroke-linejoin="round" stroke-linecap="round"/>
	<path id="Vector" d="M24.2484 13.2681L24.2484 37.0588" stroke="#EF7F1A" stroke-opacity="1.000000" stroke-width="0.915033" stroke-linejoin="round" stroke-linecap="round"/>
	<path id="Vector" d="M48.9543 20.1309L48.9543 37.0591" stroke="#EF7F1A" stroke-opacity="1.000000" stroke-width="0.915033" stroke-linejoin="round" stroke-linecap="round"/>
	<path id="Vector" d="M48.9543 40.719L48.9543 60.8497" stroke="#EF7F1A" stroke-opacity="1.000000" stroke-width="0.915033" stroke-linejoin="round" stroke-linecap="round"/>
	<path id="Vector" d="M12.8104 26.0784L35.2287 26.0784" stroke="#EF7F1A" stroke-opacity="1.000000" stroke-width="0.915033" stroke-linejoin="round" stroke-linecap="round"/>
	<path id="Vector" d="M40.719 26.0784L57.6471 26.0784" stroke="#EF7F1A" stroke-opacity="1.000000" stroke-width="0.915033" stroke-linejoin="round" stroke-linecap="round"/>
	<path id="Vector" d="M12.8104 50.7843L35.2287 50.7843" stroke="#EF7F1A" stroke-opacity="1.000000" stroke-width="0.915033" stroke-linejoin="round" stroke-linecap="round"/>
	<path id="Vector" d="M40.719 50.7843L57.6471 50.7843" stroke="#EF7F1A" stroke-opacity="1.000000" stroke-width="0.915033" stroke-linejoin="round" stroke-linecap="round"/>
</svg>
