<svg width="70.222229" height="79.000244" viewBox="0 0 70.2222 79.0002" fill="none" xmlns="http://www.w3.org/2000/svg" xmlns:xlink="http://www.w3.org/1999/xlink">
	<desc>
			Created with Pixso.
	</desc>
	<defs/>
	<path id="Vector" d="M18.0719 15.4902L18.0719 49.5686L4.64706 49.5686L4.64706 15.4902L18.0719 15.4902Z" stroke="#EF7F1A" stroke-opacity="1.000000" stroke-width="1.032680" stroke-linejoin="round"/>
	<path id="Vector" d="M34.0784 15.4902L34.0784 49.5686L19.6209 49.5686L19.6209 15.4902L34.0784 15.4902Z" stroke="#EF7F1A" stroke-opacity="1.000000" stroke-width="1.032680" stroke-linejoin="round"/>
	<path id="Vector" d="M50.6013 15.4902L50.6013 49.5686L36.1438 49.5686L36.1438 15.4902L50.6013 15.4902Z" stroke="#EF7F1A" stroke-opacity="1.000000" stroke-width="1.032680" stroke-linejoin="round"/>
	<path id="Vector" d="M66.0915 15.4902L66.0915 49.5686L52.6667 49.5686L52.6667 15.4902L66.0915 15.4902Z" stroke="#EF7F1A" stroke-opacity="1.000000" stroke-width="1.032680" stroke-linejoin="round"/>
	<path id="Vector" d="M69.1895 12.3923L69.1895 20.1375L68.6732 20.1375L68.6732 53.1831L45.4379 53.1831L45.4379 52.6667L1.03268 52.6667L1.03268 12.3923L69.1895 12.3923Z" stroke="#EF7F1A" stroke-opacity="1.000000" stroke-width="2.065359" stroke-linejoin="round"/>
	<path id="Vector" d="M8.2615 59.8955L8.2615 72.2876" stroke="#EF7F1A" stroke-opacity="1.000000" stroke-width="1.032680" stroke-linejoin="round" stroke-linecap="round"/>
	<path id="Vector" d="M15.4903 59.8955L15.4903 72.2876" stroke="#EF7F1A" stroke-opacity="1.000000" stroke-width="1.032680" stroke-linejoin="round" stroke-linecap="round"/>
	<path id="Vector" d="M22.719 59.8955L22.719 72.2876" stroke="#EF7F1A" stroke-opacity="1.000000" stroke-width="1.032680" stroke-linejoin="round" stroke-linecap="round"/>
	<path id="Vector" d="M29.9478 59.8955L29.9478 72.2876" stroke="#EF7F1A" stroke-opacity="1.000000" stroke-width="1.032680" stroke-linejoin="round" stroke-linecap="round"/>
	<path id="Vector" d="M37.1765 59.8955L37.1765 72.2876" stroke="#EF7F1A" stroke-opacity="1.000000" stroke-width="1.032680" stroke-linejoin="round" stroke-linecap="round"/>
	<path id="Vector" d="M44.9217 59.8955L44.9217 72.2876" stroke="#EF7F1A" stroke-opacity="1.000000" stroke-width="1.032680" stroke-linejoin="round" stroke-linecap="round"/>
	<path id="Vector" d="M51.6341 59.8955L51.6341 72.2876" stroke="#EF7F1A" stroke-opacity="1.000000" stroke-width="1.032680" stroke-linejoin="round" stroke-linecap="round"/>
	<path id="Vector" d="M59.3791 59.8955L59.3791 72.2876" stroke="#EF7F1A" stroke-opacity="1.000000" stroke-width="1.032680" stroke-linejoin="round" stroke-linecap="round"/>
	<path id="Vector" d="M69.1895 12.9087L69.1895 15.4905L68.6732 15.4905L68.6732 77.9675L45.4379 77.9675L45.4379 77.4512L1.03268 77.4512L1.03268 12.3923L68.6732 12.3923L69.1895 12.9087Z" stroke="#EF7F1A" stroke-opacity="1.000000" stroke-width="2.065359" stroke-linejoin="round"/>
	<path id="Vector" d="M62.9935 1.03271C64.0261 3.09814 68.6732 12.3921 68.6732 12.3921L1.03268 12.3921L7.22876 1.03271L62.9935 1.03271Z" stroke="#EF7F1A" stroke-opacity="1.000000" stroke-width="2.065359" stroke-linejoin="round"/>
	<path id="Vector" d="M11.8758 4.13062L9.29409 8.77759" stroke="#EF7F1A" stroke-opacity="1.000000" stroke-width="1.032680" stroke-linejoin="round" stroke-linecap="round"/>
	<path id="Vector" d="M19.1046 4.13062L18.0719 8.77759" stroke="#EF7F1A" stroke-opacity="1.000000" stroke-width="1.032680" stroke-linejoin="round" stroke-linecap="round"/>
	<path id="Vector" d="M26.8496 4.13062L26.3333 8.77759" stroke="#EF7F1A" stroke-opacity="1.000000" stroke-width="1.032680" stroke-linejoin="round" stroke-linecap="round"/>
	<path id="Vector" d="M35.1111 4.13062L35.1111 8.77759" stroke="#EF7F1A" stroke-opacity="1.000000" stroke-width="1.032680" stroke-linejoin="round" stroke-linecap="round"/>
	<path id="Vector" d="M60.4118 8.77759L57.8301 4.13062L60.4118 8.77759ZM35.1111 8.77759L35.1111 4.13062L35.1111 8.77759ZM43.3725 8.77759L42.8562 4.13062L43.3725 8.77759ZM50.6013 4.13062L51.634 8.77759" stroke="#EF7F1A" stroke-opacity="1.000000" stroke-width="1.032680" stroke-linejoin="round" stroke-linecap="round"/>
</svg>
