<svg width="70.000000" height="73.712158" viewBox="0 0 70 73.7122" fill="none" xmlns="http://www.w3.org/2000/svg" xmlns:xlink="http://www.w3.org/1999/xlink">
	<desc>
			Created with Pixso.
	</desc>
	<defs/>
	<path id="Vector" d="M4.77271 0L66.2879 0C66.2879 0 66.8182 0.530273 66.8182 1.06055L66.8182 66.2878C66.8182 66.8181 66.2879 66.8181 66.2879 66.8181L4.77271 66.8181C4.24243 66.8181 4.24243 66.8181 4.24243 66.2878L4.24243 55.6819L5.83331 55.6819L5.83331 65.2273L65.2273 65.2273L65.2273 2.12109L5.83331 2.12109L5.83331 55.6819L4.24243 55.6819L4.24243 1.06055C4.24243 0.530273 4.24243 0 4.77271 0L4.77271 0Z" fill="#EF7F1A" fill-opacity="1.000000" fill-rule="nonzero"/>
	<path id="Vector" d="M8.4848 4.24243L62.5757 4.24243L63.106 4.77271L63.106 62.0454C63.106 62.5757 62.5757 62.5757 62.5757 62.5757L8.4848 62.5757C8.4848 62.5757 7.95453 62.5757 7.95453 62.0454L7.95453 4.77271L8.4848 4.24243ZM62.0454 5.30298L9.01514 5.30298L9.01514 54.6213L9.01514 56.2122L9.01514 57.2727L9.01514 61.5151L62.0454 61.5151L62.0454 5.30298Z" fill="#EF7F1A" fill-opacity="1.000000" fill-rule="nonzero"/>
	<path id="Vector" d="M31.8182 8.48486L31.8182 58.3333L12.197 58.3333L12.197 54.6213L12.197 36.0605L12.197 8.48486L31.8182 8.48486Z" stroke="#EF7F1A" stroke-opacity="1.000000" stroke-width="1.060606" stroke-linejoin="round"/>
	<path id="Vector" d="M59.9242 7.42432L59.9242 59.9243L33.4091 59.9243L33.4091 7.42432L59.9242 7.42432ZM57.803 9.54541L57.803 57.2727L36.0605 57.2727L36.0605 33.4092L35.5303 33.4092C34.9999 33.4092 34.4697 32.8789 34.4697 32.3486C34.4697 31.8184 34.9999 31.2878 35.5303 31.2878L36.0605 31.2878L36.0605 9.54541L57.803 9.54541Z" stroke="#EF7F1A" stroke-opacity="1.000000" stroke-width="1.060606" stroke-linejoin="round"/>
	<path id="Vector" d="M68.9394 66.2878L68.9394 72.6514L1.06061 72.6514L1.06061 66.2878L68.9394 66.2878Z" stroke="#EF7F1A" stroke-opacity="1.000000" stroke-width="2.121212" stroke-linejoin="round"/>
	<path id="Vector" d="M41.894 31.2878C42.4797 31.2878 42.9546 31.644 42.9546 32.0833C42.9546 32.5227 42.4797 32.8787 41.894 32.8787L35.5303 32.8787C34.9446 32.8787 34.4697 32.5227 34.4697 32.0833C34.4697 31.644 34.9446 31.2878 35.5303 31.2878L41.894 31.2878Z" stroke="#EF7F1A" stroke-opacity="1.000000" stroke-width="1.060606" stroke-linejoin="round"/>
</svg>
