<svg width="74.807915" height="84.350586" viewBox="0 0 74.8079 84.3506" fill="none" xmlns="http://www.w3.org/2000/svg" xmlns:xlink="http://www.w3.org/1999/xlink">
	<desc>
			Created with Pixso.
	</desc>
	<defs/>
	<path id="Vector" d="M15.6948 6.62964L15.6948 9.96948L43.8451 9.96948L43.8451 6.62964L59.1131 6.62964L59.1131 50.0479C58.636 50.0479 57.6817 50.0479 57.2046 50.0479C55.2961 50.0479 53.8647 50.0479 52.4334 50.5251L52.4334 14.7407L15.2177 14.7407L8.06081 20.9434L8.06081 66.2703L40.5053 66.2703L40.5053 66.7473C40.5053 69.1328 40.9824 71.5186 41.9366 73.427L0.903954 73.427L0.903954 6.62964L15.6948 6.62964Z" stroke="#EF7F1A" stroke-opacity="1.000000" stroke-width="1.807909" stroke-linejoin="round"/>
	<path id="Vector" d="M24.283 3.28955L24.283 4.2439L34.7798 4.2439L34.7798 3.28955L43.8451 3.28955L43.8451 9.96924L15.6948 9.96924L15.6948 3.28955L24.283 3.28955Z" stroke="#EF7F1A" stroke-opacity="1.000000" stroke-width="1.807909" stroke-linejoin="round"/>
	<path id="Vector" d="M34.7798 0.904053L34.7798 4.2439L24.283 4.2439L24.283 0.904053L34.7798 0.904053Z" stroke="#EF7F1A" stroke-opacity="1.000000" stroke-width="1.807909" stroke-linejoin="round"/>
	<path id="Vector" d="M52.4334 14.7407L52.4334 50.5251C45.7536 52.4336 40.5053 58.6362 40.5053 66.27L8.06081 66.27L8.06081 20.9434L15.2177 14.7407L52.4334 14.7407Z" stroke="#EF7F1A" stroke-opacity="1.000000" stroke-width="1.807909" stroke-linejoin="round"/>
	<path id="Vector" d="M8.06081 20.9434L15.2177 20.9434L15.2177 14.7407L8.06081 20.9434Z" stroke="#EF7F1A" stroke-opacity="1.000000" stroke-width="0.903955" stroke-linejoin="round"/>
	<path id="Vector" d="M20.9432 27.1458L20.9432 33.8254L13.7863 33.8254L13.7863 27.1458L20.9432 27.1458Z" stroke="#EF7F1A" stroke-opacity="1.000000" stroke-width="0.903955" stroke-linejoin="round"/>
	<path id="Vector" d="M20.9432 40.5054L20.9432 47.1851L13.7863 47.1851L13.7863 40.5054L20.9432 40.5054Z" stroke="#EF7F1A" stroke-opacity="1.000000" stroke-width="0.903955" stroke-linejoin="round"/>
	<path id="Vector" d="M20.9432 52.9106L20.9432 59.5903L13.7863 59.5903L13.7863 52.9106L20.9432 52.9106Z" stroke="#EF7F1A" stroke-opacity="1.000000" stroke-width="0.903955" stroke-linejoin="round"/>
	<path id="Vector" d="M25.2373 29.5315L47.185 29.5315" stroke="#EF7F1A" stroke-opacity="1.000000" stroke-width="0.903955" stroke-linejoin="round" stroke-linecap="round"/>
	<path id="Vector" d="M25.7144 31.917L39.0739 31.917" stroke="#EF7F1A" stroke-opacity="1.000000" stroke-width="0.903955" stroke-linejoin="round" stroke-linecap="round"/>
	<path id="Vector" d="M25.2373 42.4138L47.185 42.4138" stroke="#EF7F1A" stroke-opacity="1.000000" stroke-width="0.903955" stroke-linejoin="round" stroke-linecap="round"/>
	<path id="Vector" d="M25.7144 44.7996L39.0739 44.7996" stroke="#EF7F1A" stroke-opacity="1.000000" stroke-width="0.903955" stroke-linejoin="round" stroke-linecap="round"/>
	<path id="Vector" d="M25.2373 55.2961L44.7994 55.2961" stroke="#EF7F1A" stroke-opacity="1.000000" stroke-width="0.903955" stroke-linejoin="round" stroke-linecap="round"/>
	<path id="Vector" d="M25.7144 57.6819L39.0739 57.6819" stroke="#EF7F1A" stroke-opacity="1.000000" stroke-width="0.903955" stroke-linejoin="round" stroke-linecap="round"/>
	<path id="Vector" d="M15.2177 30.4856L17.1262 32.394L19.9889 28.5771" stroke="#EF7F1A" stroke-opacity="1.000000" stroke-width="0.903955" stroke-linejoin="round" stroke-linecap="round"/>
	<path id="Vector" d="M15.2177 43.3682L17.1262 45.7537L19.9889 41.9368" stroke="#EF7F1A" stroke-opacity="1.000000" stroke-width="0.903955" stroke-linejoin="round" stroke-linecap="round"/>
	<path id="Vector" d="M15.2177 56.2505L17.1262 58.1589L19.9889 54.342" stroke="#EF7F1A" stroke-opacity="1.000000" stroke-width="0.903955" stroke-linejoin="round" stroke-linecap="round"/>
	<path id="Vector" d="M57.2046 83.4465C47.9818 83.4465 40.5053 75.97 40.5053 66.7473C40.5053 57.5244 47.9818 50.0479 57.2046 50.0479C66.4274 50.0479 73.904 57.5244 73.904 66.7473C73.904 75.97 66.4274 83.4465 57.2046 83.4465Z" stroke="#EF7F1A" stroke-opacity="1.000000" stroke-width="1.807909"/>
	<path id="Vector" d="M66.7471 64.3616L66.7471 74.8584L61.4987 74.8584L61.4987 64.3616L66.7471 64.3616Z" stroke="#EF7F1A" stroke-opacity="1.000000" stroke-width="0.903955"/>
	<path id="Vector" d="M61.4987 65.3159C60.5445 64.3616 59.1131 63.4075 58.636 62.4531C57.6818 61.9761 57.2046 61.0217 57.2046 60.5447C56.7275 60.0674 56.7275 59.1133 56.7275 58.6362C56.2504 57.6819 56.2504 57.2048 56.2504 56.7275C56.2504 56.7275 56.2504 56.2505 55.7733 56.2505C55.7733 56.2505 55.2961 56.2505 54.819 56.2505C54.3419 56.2505 54.3419 56.2505 54.3419 56.7275C53.8648 57.2048 53.8648 57.6819 53.8648 58.6362C53.3876 59.1133 53.3876 60.0674 53.8648 61.0217C53.8648 61.9761 53.8648 62.4531 54.3419 63.4075C54.3419 63.8845 54.819 63.8845 54.819 63.8845C54.819 64.3616 54.3419 64.3616 53.3876 64.3616C52.4334 64.3616 50.0478 64.3616 49.0935 64.3616C48.1393 64.3616 47.6621 64.3616 47.6621 64.3616C47.6621 64.8386 47.185 65.3159 47.185 65.3159C47.185 65.793 47.185 66.27 47.185 66.27C47.6621 66.7473 47.6621 67.2244 48.1393 67.2244C48.1393 67.2244 48.1393 67.2244 48.1393 67.7014C47.6621 67.7014 47.6621 67.7014 47.6621 68.1787L47.6621 68.6558C48.1393 69.1328 48.1393 69.6099 48.1393 69.6099C48.6164 69.6099 48.6164 69.6099 48.6164 70.0872C48.6164 70.5642 48.1393 70.5642 48.1393 71.0413C48.1393 71.5186 48.6164 71.5186 48.6164 71.9956C49.0935 72.4727 49.5706 72.4727 49.5706 72.4727L49.5706 72.95C49.5706 72.95 49.5706 72.95 49.5706 73.427C49.5706 73.427 49.5706 73.9041 50.0478 74.3811C50.0478 74.3811 50.5249 74.8584 51.9563 74.8584C53.3876 74.8584 55.7733 74.8584 57.6818 74.3811C59.5902 74.3811 60.5445 73.9041 61.4987 73.427" stroke="#EF7F1A" stroke-opacity="1.000000" stroke-width="0.903955"/>
</svg>
