<svg width="71.198715" height="80.919189" viewBox="0 0 71.1987 80.9192" fill="none" xmlns="http://www.w3.org/2000/svg" xmlns:xlink="http://www.w3.org/1999/xlink">
	<desc>
			Created with Pixso.
	</desc>
	<defs/>
	<path id="Vector" d="M20.3603 12.0073L20.8824 13.5735L17.75 15.6616L19.8382 18.7942L17.75 21.9265L20.8824 24.0146L20.8824 25.0588L5.22058 25.0588L7.83087 18.272L5.22058 12.0073L20.3603 12.0073Z" stroke="#EF7F1A" stroke-opacity="1.000000" stroke-width="2.088235" stroke-linejoin="round"/>
	<path id="Vector" d="M50.6397 12.0073L50.1177 13.5735L52.728 15.6616L51.1618 18.7942L52.728 21.9265L50.1177 24.0146L50.1177 25.0588L66.3015 25.0588L63.1691 18.272L66.3015 12.0073L50.6397 12.0073Z" stroke="#EF7F1A" stroke-opacity="1.000000" stroke-width="2.088235" stroke-linejoin="round"/>
	<path id="Vector" d="M38.1103 3.65454L41.7647 2.08838L43.3309 5.2207L46.9853 5.2207L47.5074 8.875L50.6397 9.91919L50.1176 13.5735L52.7279 15.6619L51.1618 18.7942L52.7279 21.9265L50.1176 24.0149L50.6397 27.6692L47.5074 28.7134L46.9853 32.3677L43.3309 32.3677L41.7647 35.5L38.1103 33.9338L35.5 36.5442L32.8897 33.9338L29.2353 35.5L27.6691 32.3677L24.0147 32.3677L23.4926 28.7134L19.8382 27.6692L20.8824 24.0149L17.75 21.9265L19.8382 18.7942L17.75 15.6619L20.8824 13.5735L19.8382 9.91919L23.4926 8.875L24.0147 5.2207L27.6691 5.2207L29.2353 2.08838L32.8897 3.65454L35.5 1.04419L38.1103 3.65454Z" stroke="#EF7F1A" stroke-opacity="1.000000" stroke-width="2.088235" stroke-linejoin="round"/>
	<path id="Vector" d="M37.5882 7.83081L39.6765 6.78687L41.2426 8.875L43.8529 8.875L43.8529 11.4854L46.4632 12.5295L45.9412 14.6177L48.0294 16.7058L46.4632 18.7942L48.0294 20.8823L45.9412 22.4485L46.4632 25.0588L43.8529 26.103L43.8529 28.7134L41.2426 28.1912L39.6765 30.8015L37.5882 29.7573L35.5 31.3235L33.4117 29.7573L31.3235 30.8015L29.7574 28.7134L27.1471 28.7134L27.1471 26.103L24.5367 25.0588L25.0588 22.4485L22.9706 20.8823L24.0147 18.7942L22.9706 16.7058L25.0588 15.1396L24.5367 12.5295L26.625 11.4854L27.1471 8.875L29.7574 8.875L31.3235 6.78687L33.4117 7.83081L35.5 5.74268L37.5882 7.83081Z" stroke="#EF7F1A" stroke-opacity="1.000000" stroke-width="1.044118" stroke-linejoin="round"/>
	<path id="Vector" d="M32.8897 10.4412L39.1544 10.4412L39.1544 13.5735L37.5882 13.5735L37.5882 24.0146L39.1544 24.0146L39.1544 26.625L32.8897 26.625L32.8897 24.0146L34.4559 24.0146L34.4559 13.5735L32.8897 13.5735L32.8897 10.4412Z" stroke="#EF7F1A" stroke-opacity="1.000000" stroke-width="1.044118" stroke-linejoin="round"/>
	<path id="Vector" d="M27.6692 40.1985L29.7574 40.7205L28.7133 42.2866L28.7133 44.375L26.625 43.853L24.5368 44.375L24.5368 42.2866L23.4927 40.7205L25.0588 40.1985L26.625 38.6323L27.6692 40.1985Z" stroke="#EF7F1A" stroke-opacity="1.000000" stroke-width="1.044118" stroke-linejoin="round"/>
	<path id="Vector" d="M37.0662 41.2427L39.1544 42.2869L38.1103 43.853L38.1103 45.9412L36.0221 45.4192L33.9338 45.9412L33.9338 43.853L32.8897 42.2869L34.4559 41.2427L36.0221 39.6765L37.0662 41.2427Z" stroke="#EF7F1A" stroke-opacity="1.000000" stroke-width="1.044118" stroke-linejoin="round"/>
	<path id="Vector" d="M46.4633 39.6765L48.5515 40.1985L47.5074 41.7646L47.5074 43.853L45.4192 43.3311L43.3309 43.853L43.3309 42.2869L42.2868 40.1985L43.853 39.6765L45.4192 38.1104L46.4633 39.6765Z" stroke="#EF7F1A" stroke-opacity="1.000000" stroke-width="1.044118" stroke-linejoin="round"/>
	<path id="Vector" d="M42.2868 49.5955L44.375 50.1177L43.3309 51.6838L43.3309 53.772L41.2426 53.25L39.1544 53.772L39.1544 51.6838L38.1103 50.1177L40.1985 49.5955L41.2426 47.5073L42.2868 49.5955Z" stroke="#EF7F1A" stroke-opacity="1.000000" stroke-width="1.044118" stroke-linejoin="round"/>
	<path id="Vector" d="M32.3676 49.0735L34.4559 50.1177L32.8897 51.6838L32.8897 53.772L31.3235 53.25L29.2353 53.772L29.2353 51.6838L27.6691 50.1177L29.7574 49.5955L30.8015 47.5073L32.3676 49.0735Z" stroke="#EF7F1A" stroke-opacity="1.000000" stroke-width="1.044118" stroke-linejoin="round"/>
	<path id="Vector" d="M25.5809 60.5588C25.0588 57.9485 24.0147 56.3823 22.9706 55.3384C21.9265 54.2942 21.4044 53.25 20.3603 52.2058C19.3162 51.1619 18.2721 50.1177 17.228 48.5515C15.6618 46.9854 13.5735 44.375 12.5294 43.3308C10.9633 42.2869 9.91913 42.8088 9.39706 42.8088C8.875 43.3308 8.35297 43.853 8.875 44.375C8.875 44.8972 8.875 45.4192 9.91913 46.9854C10.9633 48.5515 12.0074 50.1177 12.5294 51.6838C13.5735 53.25 13.5735 54.2942 13.5735 54.8162C13.0515 55.3384 12.5294 55.3384 11.4853 53.7722C10.4412 52.2058 8.875 49.5957 7.8309 47.5073C6.78677 45.4192 6.26471 44.375 6.26471 42.2869C5.74265 40.1985 5.74265 37.0662 5.22061 34.978C5.22061 33.4119 4.69855 31.8457 4.17648 31.3235C3.65442 30.8015 2.61029 30.8015 2.08826 30.8015C1.56619 31.3235 1.04413 31.8457 1.04413 32.3677C1.04413 33.4119 1.04413 33.9338 1.56619 37.0662C1.56619 40.1985 2.08826 45.9412 2.08826 48.5515C2.61029 51.6838 2.61029 51.6838 4.69855 54.2942C6.78677 56.9045 10.4412 61.0808 12.5294 63.6912C14.0956 66.3015 14.0956 66.3015 14.6176 67.3457C14.6176 67.8677 14.6176 68.9119 14.6176 69.9558L26.103 69.9558C26.103 67.3457 26.103 63.1692 25.5809 60.5588Z" stroke="#EF7F1A" stroke-opacity="1.000000" stroke-width="2.088235" stroke-linejoin="round"/>
	<path id="Vector" d="M4.69855 32.8896C5.22061 32.8896 5.22061 32.3677 5.74268 32.3677C6.26471 32.3677 6.78677 32.3677 7.30884 32.8896L7.8309 33.4119C7.8309 33.9338 8.35297 34.4558 8.35297 36.022C8.87503 37.5884 9.39706 40.1985 9.91913 42.8088" stroke="#EF7F1A" stroke-opacity="1.000000" stroke-width="2.088235" stroke-linejoin="round" stroke-linecap="round"/>
	<path id="Vector" d="M8.35297 34.4561C8.35297 34.4561 8.87503 34.4561 9.39709 34.4561C9.39709 34.4561 9.91913 34.4561 10.4412 34.978C10.4412 34.978 10.9633 35.5002 10.9633 36.0222C11.4853 36.5442 11.4853 37.5884 12.0074 39.1545C12.0074 40.1987 12.5294 42.2869 13.0515 44.3752" stroke="#EF7F1A" stroke-opacity="1.000000" stroke-width="2.088235" stroke-linejoin="round" stroke-linecap="round"/>
	<path id="Vector" d="M27.6692 69.9561L27.6692 79.8752L12.0074 79.8752L12.0074 69.9561L27.6692 69.9561Z" stroke="#EF7F1A" stroke-opacity="1.000000" stroke-width="2.088235" stroke-linejoin="round"/>
	<path id="Vector" d="M44.8971 60.5591C45.4191 57.9487 46.4632 56.9045 47.5074 55.8604C48.5515 54.2942 49.5956 53.2502 50.6397 52.728C51.6838 51.6841 52.2059 50.6399 53.772 49.0737C55.3382 46.9854 57.4265 44.8972 58.4706 43.853C60.0368 42.8091 61.0809 42.8091 61.6029 43.3311C62.125 43.3311 62.6471 43.853 62.6471 44.3752C62.125 44.8972 62.125 45.9414 61.0809 46.9854C60.5588 48.5515 58.9926 50.6399 58.4706 52.2061C57.4265 53.7722 57.4265 54.8164 57.4265 55.3384C57.9485 55.8604 58.4706 55.8604 59.5147 54.2942C60.5588 52.728 62.125 49.5957 63.1691 47.5076C64.2132 45.4192 64.7353 44.3752 64.7353 42.2869C65.2574 40.1987 65.7794 37.5884 65.7794 35.5002C66.3015 33.4119 66.3015 32.3677 66.8235 31.3237C67.3456 30.8015 68.3897 30.8015 68.9118 31.3237C69.4338 31.3237 69.9559 31.8457 69.9559 32.8899C70.4779 33.4119 69.9559 34.4561 69.9559 37.5884C69.4338 40.7207 69.4338 45.9414 68.9118 48.5515C68.3897 51.6841 68.3897 52.2061 66.3015 54.2942C64.2132 56.9045 60.5588 61.603 58.4706 63.6914C56.9044 66.3015 56.3824 66.3015 56.3824 67.3457C56.3824 67.8677 56.3824 68.9119 56.3824 69.9561L44.375 69.9561C44.375 67.8677 44.375 63.6914 44.8971 60.5591Z" stroke="#EF7F1A" stroke-opacity="1.000000" stroke-width="2.088235" stroke-linejoin="round"/>
	<path id="Vector" d="M66.3015 32.8899C65.7794 32.8899 65.7794 32.8899 65.2573 32.8899C64.7353 32.3677 64.2132 32.3677 64.2132 32.8899C63.6912 32.8899 63.1691 33.4119 63.1691 33.9338C63.1691 33.9338 63.1691 34.4561 62.647 36.0222C62.125 37.5884 61.6029 40.1987 61.0809 42.8088" stroke="#EF7F1A" stroke-opacity="1.000000" stroke-width="2.088235" stroke-linejoin="round" stroke-linecap="round"/>
	<path id="Vector" d="M62.6471 34.978C62.6471 34.978 62.125 34.978 61.603 34.978C61.603 34.978 61.0809 34.978 60.5588 34.978C60.5588 35.5 60.0368 35.5 60.0368 36.0222C59.5147 37.0662 59.5147 37.5884 58.9927 39.1545C58.4706 40.7207 58.4706 42.2869 57.9485 44.375" stroke="#EF7F1A" stroke-opacity="1.000000" stroke-width="2.088235" stroke-linejoin="round" stroke-linecap="round"/>
	<path id="Vector" d="M58.4706 69.9561L58.4706 79.8752L42.2868 79.8752L42.2868 69.9561L58.4706 69.9561Z" stroke="#EF7F1A" stroke-opacity="1.000000" stroke-width="2.088235" stroke-linejoin="round"/>
</svg>
