<svg width="94.347839" height="80.217285" viewBox="0 0 94.3478 80.2173" fill="none" xmlns="http://www.w3.org/2000/svg" xmlns:xlink="http://www.w3.org/1999/xlink">
	<desc>
			Created with Pixso.
	</desc>
	<defs/>
	<path id="Vector" d="M23.6957 0L90.2174 0C90.6522 0 91.087 0.434814 91.087 0.869629L91.087 72.1738C91.087 72.6086 90.6522 73.0435 90.2174 73.0435L23.6957 73.0435C23.2609 73.0435 22.8261 72.6086 22.8261 72.1738L22.8261 60.8696L24.5652 60.8696L24.5652 70.8696L89.3478 70.8696L89.3478 2.17383L24.5652 2.17383L24.5652 39.1304L22.8261 39.1304L22.8261 0.869629C22.8261 0.434814 23.2609 0 23.6957 0L23.6957 0Z" fill="#EF7F1A" fill-opacity="1.000000" fill-rule="nonzero"/>
	<path id="Vector" d="M86.3044 5.21729L86.3044 67.8259L27.6087 67.8259L27.6087 60.8694L30.6522 60.8694L30.6522 64.7825L52.3913 64.7825L52.3913 8.26074L30.6522 8.26074L30.6522 39.1304L27.6087 39.1304L27.6087 5.21729L86.3044 5.21729Z" stroke="#EF7F1A" stroke-opacity="1.000000" stroke-width="0.869565" stroke-linejoin="round"/>
	<path id="Vector" d="M52.3913 8.26074L52.3913 64.7825L30.6522 64.7825L30.6522 60.8694L44.1305 60.8694C46.3044 60.8694 48.4783 58.6956 48.4783 56.0869L48.4783 43.478C48.4783 41.3042 46.3044 39.1304 44.1305 39.1304L30.6522 39.1304L30.6522 8.26074L52.3913 8.26074Z" stroke="#EF7F1A" stroke-opacity="1.000000" stroke-width="0.869565" stroke-linejoin="round"/>
	<path id="Vector" d="M85 6.52173L85 66.5217L55 66.5217L55 6.52173L85 6.52173ZM81.9565 9.56519L81.9565 63.4783L57.6087 63.4783L57.6087 36.0869L56.7392 36.0869C56.3044 36.0869 55.8696 35.6521 55.8696 35.2173C55.8696 34.7827 56.3044 34.3479 56.7392 34.3479L57.6087 34.3479L57.6087 9.56519L81.9565 9.56519Z" stroke="#EF7F1A" stroke-opacity="1.000000" stroke-width="0.869565" stroke-linejoin="round"/>
	<path id="Vector" d="M93.2609 72.1738L93.2609 79.1304L19.3478 79.1304L19.3478 72.1738L93.2609 72.1738Z" stroke="#EF7F1A" stroke-opacity="1.000000" stroke-width="2.173913" stroke-linejoin="round"/>
	<path id="Vector" d="M60.6522 34.3479C61.1324 34.3479 61.5218 34.7373 61.5218 35.2175L61.5218 35.6523C61.5218 36.1326 61.1324 36.5217 60.6522 36.5217L55.8696 36.5217C55.3893 36.5217 55 36.1326 55 35.6523L55 35.2175C55 34.7373 55.3893 34.3479 55.8696 34.3479L60.6522 34.3479Z" stroke="#EF7F1A" stroke-opacity="1.000000" stroke-width="0.869565" stroke-linejoin="round"/>
	<path id="Vector" d="M44.1305 39.1304C46.3044 39.1304 48.4783 41.3042 48.4783 43.4783L48.4783 56.0869C48.4783 58.6956 46.3044 60.8694 44.1305 60.8694L11.9565 60.8694C10.2174 60.8694 8.47827 59.1304 8.04352 57.3914C4.13043 56.9565 1.08698 53.9131 1.08698 50C1.08698 46.5217 4.13043 43.0435 8.04352 42.6086C8.47827 40.8694 10.2174 39.1304 11.9565 39.1304L44.1305 39.1304Z" stroke="#EF7F1A" stroke-opacity="1.000000" stroke-width="2.173913"/>
	<path id="Vector" d="M8.04352 52.6086C6.60278 52.6086 5.43481 51.4407 5.43481 50C5.43481 48.5593 6.60278 47.3914 8.04352 47.3914C9.48425 47.3914 10.6522 48.5593 10.6522 50C10.6522 51.4407 9.48425 52.6086 8.04352 52.6086Z" stroke="#EF7F1A" stroke-opacity="1.000000" stroke-width="0.869565"/>
	<path id="Vector" d="M35.8696 48.6956L35.8696 56.5217L31.9565 56.5217L31.9565 48.6956L35.8696 48.6956Z" stroke="#EF7F1A" stroke-opacity="1.000000" stroke-width="0.869565"/>
	<path id="Vector" d="M31.9565 49.5652C31.087 49.1304 29.7826 48.2607 29.3478 47.8262C28.9131 46.9565 28.4783 46.5217 28.4783 46.0869C28.4783 45.6521 28.0435 45.2173 28.0435 44.7825C28.0435 44.3479 28.0435 43.9131 28.0435 43.4783C27.6087 43.0435 27.6087 43.0435 27.6087 43.0435C27.1739 43.0435 27.1739 43.0435 26.7391 43.0435C26.7391 43.0435 26.3044 43.0435 26.3044 43.4783C25.8696 43.4783 25.8696 43.9131 25.8696 44.7825C25.8696 45.2173 25.8696 46.0869 25.8696 46.5217C25.8696 46.9565 25.8696 47.8262 26.3044 48.2607C26.3044 48.6956 26.7391 48.6956 26.7391 48.6956C26.7391 48.6956 26.7391 48.6956 25.8696 48.6956C25 48.6956 23.2609 48.6956 22.3913 49.1304C21.5218 49.1304 21.5218 49.1304 21.5218 49.1304C21.5218 49.1304 21.087 49.5652 21.087 50L21.087 50.4348C21.087 50.8696 21.5218 50.8696 21.5218 51.3044L21.5218 51.739L21.5218 52.1738C21.5218 52.6086 21.9565 52.6086 21.9565 53.0435L22.3913 53.0435C22.3913 53.0435 22.3913 53.0435 21.9565 53.4783C21.9565 53.4783 21.9565 53.4783 21.9565 53.9131C21.9565 54.3479 21.9565 54.3479 22.3913 54.7825L22.8261 55.2173L22.8261 55.6521C22.8261 56.0869 22.8261 56.0869 23.2609 56.5217C23.2609 56.5217 23.6957 56.5217 24.5652 56.9565C25.8696 56.9565 27.6087 56.9565 28.9131 56.5217C30.2174 56.5217 31.087 56.0869 31.9565 55.6521" stroke="#EF7F1A" stroke-opacity="1.000000" stroke-width="0.869565"/>
	<path id="Vector" d="M8.91309 52.1738C8.91309 51.739 8.91309 50.8696 8.47827 50.4348C8.04352 50 6.73914 50 5.43481 50.8696C3.69568 51.739 2.39136 53.9131 2.39136 55.6521C1.95654 57.8262 3.26093 60.4348 5.00006 62.1738C7.17395 63.4783 10.2174 64.7825 12.3914 65.6521C15.0001 66.5217 16.7391 67.3914 17.6087 68.2607C18.9131 69.5652 18.9131 70.8696 19.3479 72.1738" stroke="#EF7F1A" stroke-opacity="1.000000" stroke-width="0.869565"/>
	<path id="Vector" d="M11.9565 60.8696C13.6957 62.1741 15 63.9131 15.8696 65.2175C17.174 66.5217 18.4783 67.3914 18.9131 68.261C19.3478 69.5652 19.3478 70.8696 19.3478 72.1741" stroke="#EF7F1A" stroke-opacity="1.000000" stroke-width="0.869565"/>
</svg>
