<svg width="102.009644" height="85.582397" viewBox="0 0 102.01 85.5824" fill="none" xmlns="http://www.w3.org/2000/svg" xmlns:xlink="http://www.w3.org/1999/xlink">
	<desc>
			Created with Pixso.
	</desc>
	<defs/>
	<path id="Vector" d="M16.8754 17.1932C16.8754 19.2354 18.1007 20.4606 19.7344 20.4606L31.9869 20.4606C32.3953 20.4606 33.2122 20.4606 33.6206 20.0521C34.0291 20.4606 34.8458 20.4606 35.2543 20.4606L38.1132 20.4606C38.5216 20.4606 39.3384 20.4606 39.7468 20.0521C40.1553 20.4606 40.5637 20.4606 40.9722 20.4606L53.6331 20.4606C54.8584 20.4606 56.0836 18.8269 56.0836 17.1932L60.9846 17.1932C63.4352 17.1932 65.4773 19.2354 65.4773 21.6858L65.4773 69.4708C65.4773 71.9214 63.4352 73.9635 60.9846 73.9635L40.9722 73.9635C40.9722 73.9635 40.9722 73.9635 40.9722 73.5551C40.9722 67.4287 36.071 62.5277 29.9448 62.5277C23.8185 62.5277 18.9175 67.4287 18.9175 73.5551C18.9175 73.9635 18.9175 73.9635 18.9175 73.9635L12.7913 73.9635C10.3407 73.9635 8.70703 71.9214 8.70703 69.4708L8.70703 40.0647C8.70703 44.1489 10.3407 47.4163 15.2417 47.0078L15.6501 51.092C15.6501 54.3594 18.1007 57.2183 21.7765 57.2183L32.8037 57.2183C36.071 57.2183 38.9301 54.3594 38.9301 51.092L38.9301 31.4879C38.9301 28.2206 36.071 25.3616 32.8037 25.3616L8.70703 25.3616L8.70703 21.6858C8.70703 19.2354 10.3407 17.1932 12.7913 17.1932L16.8754 17.1932Z" stroke="#EF7F1A" stroke-opacity="1.000000" stroke-width="2.000000" stroke-linejoin="round"/>
	<path id="Vector" d="M82.2223 28.629C84.2644 28.629 84.6729 30.6711 85.8981 32.3048L101.01 49.8668L101.01 69.4709C101.01 71.5129 99.376 73.1467 97.3339 73.1467L94.4749 73.1467C94.0665 67.0204 89.1654 62.5278 83.0392 62.5278C77.3213 62.5278 72.4203 67.0204 72.0118 73.1467L69.153 73.1467C67.1108 73.1467 65.4772 71.5129 65.4772 69.4709L65.4772 32.3048C65.4772 30.2627 67.1108 28.629 69.153 28.629L82.2223 28.629Z" stroke="#EF7F1A" stroke-opacity="1.000000" stroke-width="2.000000" stroke-linejoin="round"/>
	<path id="Vector" d="M29.9448 84.5824C23.8546 84.5824 18.9175 79.6454 18.9175 73.5552C18.9175 67.465 23.8546 62.5278 29.9448 62.5278C36.035 62.5278 40.972 67.465 40.972 73.5552C40.972 79.6454 36.035 84.5824 29.9448 84.5824Z" stroke="#EF7F1A" stroke-opacity="1.000000" stroke-width="2.000000" stroke-linejoin="round"/>
	<path id="Vector" d="M29.9448 78.8646C27.0125 78.8646 24.6354 76.4875 24.6354 73.5552C24.6354 70.6228 27.0125 68.2457 29.9448 68.2457C32.8772 68.2457 35.2543 70.6228 35.2543 73.5552C35.2543 76.4875 32.8772 78.8646 29.9448 78.8646Z" stroke="#EF7F1A" stroke-opacity="1.000000" stroke-width="1.000000" stroke-linejoin="round"/>
	<path id="Vector" d="M83.0393 84.5824C76.9491 84.5824 72.012 79.6454 72.012 73.5552C72.012 67.465 76.9491 62.5278 83.0393 62.5278C89.1295 62.5278 94.0665 67.465 94.0665 73.5552C94.0665 79.6454 89.1295 84.5824 83.0393 84.5824Z" stroke="#EF7F1A" stroke-opacity="1.000000" stroke-width="2.000000" stroke-linejoin="round"/>
	<path id="Vector" d="M83.0393 78.8646C80.1069 78.8646 77.7299 76.4875 77.7299 73.5552C77.7299 70.6228 80.1069 68.2457 83.0393 68.2457C85.9717 68.2457 88.3488 70.6228 88.3488 73.5552C88.3488 76.4875 85.9717 78.8646 83.0393 78.8646Z" stroke="#EF7F1A" stroke-opacity="1.000000" stroke-width="1.000000" stroke-linejoin="round"/>
	<path id="Vector" d="M79.7719 34.7554L90.7991 47.4164L90.7991 50.2753L70.3782 50.2753L70.3782 34.7554L79.7719 34.7554Z" stroke="#EF7F1A" stroke-opacity="1.000000" stroke-width="1.000000" stroke-linejoin="round"/>
	<path id="Vector" d="M76.9128 53.9512C77.8151 53.9512 78.5465 54.5912 78.5465 55.3806C78.5465 56.1702 77.8151 56.8101 76.9128 56.8101L73.2371 56.8101C72.3348 56.8101 71.6034 56.1702 71.6034 55.3806C71.6034 54.5912 72.3348 53.9512 73.2371 53.9512L76.9128 53.9512Z" stroke="#EF7F1A" stroke-opacity="1.000000" stroke-width="1.000000" stroke-linejoin="round"/>
	<path id="Vector" d="M32.8037 25.3618C36.071 25.3618 38.9299 28.2207 38.9299 31.488L38.9299 51.0922C38.9299 54.3595 36.071 57.2185 32.8037 57.2185L21.7764 57.2185C18.1006 57.2185 15.6501 54.3595 15.6501 51.0922L15.2417 47.0081C9.5238 47.8248 8.29858 43.3323 8.70703 38.8396C-1.09509 38.4313 -0.278198 25.3618 4.21436 25.3618L32.8037 25.3618Z" stroke="#EF7F1A" stroke-opacity="1.000000" stroke-width="2.000000" stroke-linejoin="round"/>
	<path id="Vector" d="M16.8754 15.5597C16.8754 15.968 16.8754 15.968 16.8754 16.3765C16.8754 15.968 16.8754 15.968 16.8754 15.5597L16.8754 6.16602C16.8754 3.71545 18.9175 0.0396729 20.5511 1.26501L30.7616 7.79968C31.9868 8.20813 32.8037 9.0249 33.6205 9.8418C32.8037 10.2502 31.9868 11.8839 31.9868 13.1091L19.7343 13.1091C19.7343 13.1091 19.7343 13.1091 19.3259 13.1091L18.9175 13.1091L18.9175 13.5176L18.509 13.5176L18.1006 13.5176C18.1006 13.5176 18.1006 13.5176 18.1006 13.9259L17.6923 13.9259L17.6923 14.3344L17.2838 14.7428C17.2838 15.1512 17.2838 15.1512 16.8754 15.5597Z" stroke="#EF7F1A" stroke-opacity="1.000000" stroke-width="2.000000" stroke-linejoin="round"/>
	<path id="Vector" d="M31.9868 13.109L31.9868 16.3763L31.9868 17.1932C31.9868 18.4185 32.8037 19.2354 33.6205 20.0521C33.2122 20.4606 32.3953 20.4606 31.9868 20.4606L19.7343 20.4606C18.1006 20.4606 16.8754 18.8269 16.8754 16.7848C16.8754 14.7427 18.1006 13.109 19.7343 13.109L31.9868 13.109Z" stroke="#EF7F1A" stroke-opacity="1.000000" stroke-width="1.404762" stroke-linejoin="round"/>
	<path id="Vector" d="M42.1973 7.39124C40.972 8.20801 40.1553 8.61646 39.3384 9.43335C40.5636 10.2501 40.972 11.4753 40.972 13.1091L53.2246 13.1091L53.6331 13.1091C54.8583 13.1091 55.6752 14.3344 56.0835 15.968C56.0835 15.5596 56.0835 15.5596 56.0835 15.5596L56.0835 6.16602C56.0835 3.30701 54.4498 0.0396729 52.4078 1.26489L42.1973 7.39124Z" stroke="#EF7F1A" stroke-opacity="1.000000" stroke-width="2.000000" stroke-linejoin="round"/>
	<path id="Vector" d="M53.6332 13.109C54.8584 13.109 56.0837 14.7427 56.0837 16.7848C56.0837 18.8269 54.8584 20.4606 53.6332 20.4606L40.9722 20.4606C40.5638 20.4606 40.1554 20.4606 39.7469 20.0521C40.5638 19.2354 40.9722 18.4185 40.9722 17.1932L40.9722 16.3763L40.9722 13.109L53.6332 13.109Z" stroke="#EF7F1A" stroke-opacity="1.000000" stroke-width="1.404762" stroke-linejoin="round"/>
	<path id="Vector" d="M38.1133 9.02515C39.6921 9.02515 40.9722 10.8538 40.9722 13.1094L40.9722 16.3767C40.9722 18.6323 39.6921 20.4608 38.1133 20.4608L34.8458 20.4608C33.267 20.4608 31.9869 18.6323 31.9869 16.3767L31.9869 13.1094C31.9869 10.8538 33.267 9.02515 34.8458 9.02515L38.1133 9.02515Z" stroke="#EF7F1A" stroke-opacity="1.000000" stroke-width="2.000000" stroke-linejoin="round"/>
	<path id="Vector" d="M11.9744 38.0227L33.2122 38.0227" stroke="#EF7F1A" stroke-opacity="1.000000" stroke-width="1.000000" stroke-linejoin="round" stroke-linecap="round"/>
	<path id="Vector" d="M18.509 46.1912L33.6205 46.1912" stroke="#EF7F1A" stroke-opacity="1.000000" stroke-width="1.000000" stroke-linejoin="round" stroke-linecap="round"/>
	<path id="free" d="M46.6896 56.9033L51.7489 56.9033L51.7489 55.921L46.6896 55.921L46.6896 54.7851L45.9213 54.7851L45.9213 55.921L45.3836 55.921Q44.8568 55.921 44.6647 55.7345Q44.4727 55.5479 44.4727 55.0979Q44.4727 54.8236 44.5275 54.5163L43.666 54.3681Q43.5673 54.8729 43.5673 55.29Q43.5673 55.9375 43.806 56.2969Q43.9573 56.5248 44.1671 56.6655Q44.2882 56.7468 44.4288 56.799Q44.7141 56.9033 45.3013 56.9033L45.9213 56.9033L45.9213 57.7757L46.6896 57.7757L46.6896 56.9033ZM45.9213 54.0279L51.7489 54.0279L51.7489 53.0402L48.6979 53.0402Q48.0724 53.0402 47.5456 52.8755Q47.268 52.7874 47.0877 52.6038Q47.0435 52.5587 47.0051 52.5079Q46.9085 52.38 46.8598 52.236Q46.8103 52.0895 46.8103 51.9262Q46.8103 51.5641 47.0243 51.2019L46.1079 50.8617Q45.7896 51.3775 45.7896 51.8768Q45.7896 52.0395 45.8334 52.1893Q45.8826 52.3581 45.9872 52.5106Q46.1847 52.7987 46.8048 53.1389L45.9213 53.1389L45.9213 54.0279ZM49.9984 45.2646L49.8722 46.2852Q50.4978 46.5102 50.7831 46.8943Q50.8374 46.9674 50.8813 47.0461Q51.0685 47.3817 51.0685 47.8217Q51.0685 48.2252 50.9125 48.5549Q50.7863 48.8215 50.5581 49.0399Q50.0478 49.5283 49.0875 49.5831L49.0875 45.2371Q48.9119 45.2317 48.8241 45.2317Q47.431 45.2317 46.6413 45.922Q46.6129 45.9468 46.5853 45.9725Q46.2773 46.2592 46.0885 46.6102Q45.7896 47.1657 45.7896 47.882Q45.7896 48.6428 46.1121 49.2248Q46.3014 49.5665 46.6018 49.8465Q46.6329 49.8756 46.6651 49.9036Q47.4704 50.6038 48.8845 50.6038Q50.2142 50.6038 50.9892 49.9481Q51.0425 49.903 51.0932 49.8548Q51.2885 49.6689 51.4354 49.4505Q51.8806 48.7885 51.8806 47.8272Q51.8806 46.8321 51.4061 46.185Q51.3965 46.1719 51.3867 46.159Q51.2806 46.0186 51.1559 45.8973Q50.7006 45.4541 49.9984 45.2646ZM49.9984 39.0145L49.8722 40.0351Q50.4978 40.2601 50.7831 40.6442Q50.8374 40.7173 50.8813 40.796Q51.0685 41.1316 51.0685 41.5716Q51.0685 41.9751 50.9125 42.3048Q50.7863 42.5714 50.5581 42.7898Q50.0478 43.2782 49.0875 43.333L49.0875 38.9871Q48.9119 38.9816 48.8241 38.9816Q47.431 38.9816 46.6413 39.6719Q46.6129 39.6967 46.5853 39.7224Q46.2773 40.0091 46.0885 40.3601Q45.7896 40.9156 45.7896 41.632Q45.7896 42.3927 46.1121 42.9747Q46.3014 43.3164 46.6018 43.5964Q46.6329 43.6255 46.6651 43.6535Q47.4704 44.3537 48.8845 44.3537Q50.2142 44.3537 50.9892 43.698Q51.0425 43.6529 51.0932 43.6047Q51.2885 43.4188 51.4354 43.2004Q51.8806 42.5384 51.8806 41.5771Q51.8806 40.582 51.406 39.9349Q51.3965 39.9218 51.3867 39.9089Q51.2806 39.7685 51.1559 39.6472Q50.7006 39.204 49.9984 39.0145ZM48.2754 46.2743L48.2754 49.5283Q47.6622 49.4885 47.2475 49.181Q47.1465 49.1061 47.0572 49.0152Q46.8658 48.8203 46.7548 48.5871Q46.6018 48.2655 46.6018 47.8711Q46.6018 47.4796 46.7565 47.164Q46.899 46.8736 47.1725 46.6474Q47.5401 46.3401 48.2754 46.2743ZM48.2754 40.0242L48.2754 43.2782Q47.6622 43.2385 47.2475 42.9309Q47.1465 42.856 47.0572 42.7651Q46.8658 42.5702 46.7548 42.337Q46.6018 42.0154 46.6018 41.621Q46.6018 41.2295 46.7565 40.9139Q46.899 40.6235 47.1725 40.3973Q47.5401 40.09 48.2754 40.0242Z" fill="#EF7F1A" fill-opacity="1.000000" fill-rule="evenodd"/>
</svg>
