<svg width="92.000000" height="86.074097" viewBox="0 0 92 86.0741" fill="none" xmlns="http://www.w3.org/2000/svg" xmlns:xlink="http://www.w3.org/1999/xlink">
	<desc>
			Created with Pixso.
	</desc>
	<defs/>
	<path id="Vector" d="M43.963 5.81494C43.963 6.92603 44.7037 7.66675 45.8148 7.66675C46.9259 7.66675 47.6666 6.92603 47.6666 5.81494L75.8148 5.81494C81.3704 5.81494 85.4445 10.2594 85.4445 15.4446L85.4445 41.0001C84.7037 41.0001 83.9629 41.7408 83.9629 42.8519C83.9629 43.5928 84.7037 44.3335 85.4445 44.3335L85.4445 70.2594C85.4445 75.4446 81.3704 79.889 75.8148 79.889L47.6666 79.889C47.6666 78.778 46.9259 78.0371 45.8148 78.0371C44.7037 78.0371 43.963 78.778 43.963 79.889L15.8148 79.889C10.6296 79.889 6.18518 75.4446 6.18518 70.2594L6.18518 44.3335C7.29626 44.3335 8.03699 43.5928 8.03699 42.8519C8.03699 41.7408 7.29626 41.0001 6.18518 41.0001L6.18518 15.4446C6.18518 10.2594 10.6296 5.81494 15.8148 5.81494L43.963 5.81494Z" stroke="#EF7F1A" stroke-opacity="1.000000" stroke-width="1.000000" stroke-linejoin="round"/>
	<path id="Vector" d="M81 1C86.5228 1 91 5.97461 91 12.1111L91 73.963C91 80.0995 86.5228 85.0741 81 85.0741L11 85.0741C5.47717 85.0741 1 80.0995 1 73.963L1 12.1111C1 5.97461 5.47717 1 11 1L81 1Z" stroke="#EF7F1A" stroke-opacity="1.000000" stroke-width="2.000000" stroke-linejoin="round"/>
	<path id="Vector" d="M46.1852 73.5927C29.2075 73.5927 15.4445 59.8296 15.4445 42.8519C15.4445 25.8743 29.2075 12.1112 46.1852 12.1112C63.1628 12.1112 76.9259 25.8743 76.9259 42.8519C76.9259 59.8296 63.1628 73.5927 46.1852 73.5927Z" stroke="#EF7F1A" stroke-opacity="1.000000" stroke-width="2.000000" stroke-linejoin="round"/>
	<path id="Vector" d="M45.8147 18.0371C45.8147 18.0371 45.8147 18.0371 46.1851 18.0371C59.5184 18.0371 70.6295 29.1482 70.6295 42.8519C70.6295 56.1853 59.5184 67.2964 46.1851 67.2964C32.4813 67.2964 21.3702 56.1853 21.3702 42.8519C21.3702 34.7037 25.4443 26.926 32.4813 22.1112" stroke="#EF7F1A" stroke-opacity="1.000000" stroke-width="1.000000" stroke-linejoin="round" stroke-linecap="round"/>
	<path id="Vector" d="M47.6667 79.8889C47.6667 80.6296 46.9259 81.7408 45.8148 81.7408C44.7037 81.7408 43.963 80.6296 43.963 79.8889C43.963 78.7778 44.7037 78.0371 45.8148 78.0371C46.9259 78.0371 47.6667 78.7778 47.6667 79.8889ZM6.18518 41C7.29639 41 8.03711 41.7407 8.03711 42.8519C8.03711 43.5927 7.29639 44.3334 6.18518 44.3334C5.44446 44.3334 4.70374 43.5927 4.70374 42.8519C4.70374 41.7407 5.44446 41 6.18518 41ZM47.6667 5.81482C47.6667 6.92603 46.9259 7.66675 45.8148 7.66675C44.7037 7.66675 43.963 6.92603 43.963 5.81482C43.963 5.0741 44.7037 4.33337 45.8148 4.33337C46.9259 4.33337 47.6667 5.0741 47.6667 5.81482ZM85.4445 41C86.5555 41 87.2963 41.7407 87.2963 42.8519C87.2963 43.5927 86.5555 44.3334 85.4445 44.3334C84.7037 44.3334 83.963 43.5927 83.963 42.8519C83.963 41.7407 84.7037 41 85.4445 41Z" stroke="#EF7F1A" stroke-opacity="1.000000" stroke-width="1.000000" stroke-linejoin="round"/>
	<path id="Vector" d="M45.8147 44.7037C44.792 44.7037 43.9629 43.8746 43.9629 42.8518C43.9629 41.8291 44.792 41 45.8147 41C46.8375 41 47.6666 41.8291 47.6666 42.8518C47.6666 43.8746 46.8375 44.7037 45.8147 44.7037Z" stroke="#EF7F1A" stroke-opacity="1.000000" stroke-width="1.000000" stroke-linejoin="round"/>
	<path id="Vector" d="M45.8148 41.0001L45.8148 18.4075" stroke="#EF7F1A" stroke-opacity="1.000000" stroke-width="1.000000" stroke-linejoin="round" stroke-linecap="round"/>
	<path id="Vector" d="M43.9629 42.8519L32.1111 42.8519" stroke="#EF7F1A" stroke-opacity="1.000000" stroke-width="1.000000" stroke-linejoin="round" stroke-linecap="round"/>
	<path id="Vector" d="M24.7037 25.4446L32.4816 22.1112L28.7778 29.5186" stroke="#EF7F1A" stroke-opacity="1.000000" stroke-width="1.000000" stroke-linejoin="round" stroke-linecap="round"/>
</svg>
