<svg width="32.000000" height="29.000000" viewBox="0 0 32 29" fill="none" xmlns="http://www.w3.org/2000/svg" xmlns:xlink="http://www.w3.org/1999/xlink">
	<desc>
			Created with Pixso.
	</desc>
	<defs/>
	<path id="Vector" d="M28 1C29.5 1 31 2.5 31 5.5L31 20.5C31 22 29.5 23.5 28 23.5L23.5 23.5C23.5 23.5 25 26.5 20.5 28C22 26.5 19 23.5 19 23.5L5.5 23.5C2.5 23.5 1 22 1 20.5L1 5.5C1 2.5 2.5 1 5.5 1L28 1Z" stroke="#EF7F1A" stroke-opacity="1.000000" stroke-width="2.000000" stroke-linejoin="round"/>
	<path id="Vector" d="M7 8.49996L26.5 8.49996" stroke="#EF7F1A" stroke-opacity="1.000000" stroke-width="2.000000" stroke-linejoin="round" stroke-linecap="round"/>
	<path id="Vector" d="M7 13L16 13" stroke="#EF7F1A" stroke-opacity="1.000000" stroke-width="2.000000" stroke-linejoin="round" stroke-linecap="round"/>
	<path id="Vector" d="M7 17.5L20.5 17.5" stroke="#EF7F1A" stroke-opacity="1.000000" stroke-width="2.000000" stroke-linejoin="round" stroke-linecap="round"/>
</svg>
