<svg width="100.000000" height="74.197388" viewBox="0 0 100 74.1974" fill="none" xmlns="http://www.w3.org/2000/svg" xmlns:xlink="http://www.w3.org/1999/xlink">
	<desc>
			Created with Pixso.
	</desc>
	<defs/>
	<path id="Vector" d="M22.2905 47.2639L42.1187 54.6995C46.4562 56.2485 52.3427 56.8682 55.131 55.6289L77.4377 47.2639L91.9991 52.8406C96.3365 54.3896 97.5758 56.5583 94.7875 57.7976L55.131 72.359C52.3427 73.5983 46.4562 72.9786 42.1187 71.4296L8.03894 58.7272C3.70154 57.178 2.46228 55.0093 5.25061 53.77L22.2905 47.2639Z" stroke="#EF7F1A" stroke-opacity="1.000000" stroke-width="2.000000"/>
	<path id="Vector" d="M29.1064 50.0522L42.1188 54.6995C46.4562 56.2485 52.3427 56.8682 55.131 55.6289L70.9316 50.0522L80.8457 53.4602C83.944 54.6995 84.8734 56.2485 82.7047 57.178L53.8917 68.0216C51.723 68.6412 47.3856 68.3314 44.2875 67.0922L19.1924 57.7976C16.0941 56.8682 15.1647 55.0093 17.3334 54.3896L29.1064 50.0522Z" stroke="#EF7F1A" stroke-opacity="1.000000" stroke-width="1.000000" stroke-linejoin="round"/>
	<path id="Vector" d="M27.5574 28.9847L42.1187 34.2516C46.4562 35.8007 52.3427 36.4203 55.131 35.181L72.4807 28.9847L91.9991 36.1105C96.3365 37.6595 97.5758 39.8282 94.7875 41.0676L55.131 55.6289C52.3427 56.8682 46.4562 56.2485 42.1187 54.6995L8.03894 41.9971C3.70154 40.448 2.46228 38.2792 5.25061 37.0399L27.5574 28.9847Z" stroke="#EF7F1A" stroke-opacity="1.000000" stroke-width="2.000000"/>
	<path id="Vector" d="M34.0635 31.4633L42.1188 34.2516C46.4562 35.8007 52.3427 36.4203 55.131 35.181L65.9746 31.4633L80.8457 37.0399C83.944 37.9694 84.8734 39.8282 82.7047 40.4479L53.8917 51.2915C51.723 51.9111 47.3856 51.6013 44.2875 50.6719L19.1924 41.3773C16.0941 40.1381 15.1647 38.2792 17.3334 37.6595L34.0635 31.4633Z" stroke="#EF7F1A" stroke-opacity="1.000000" stroke-width="1.000000"/>
	<path id="Vector" d="M42.085 2.948C46.4563 1.31995 53.5437 1.31995 57.915 2.948L92.085 15.6746C96.4563 17.3026 96.4563 19.9423 92.085 21.5703L57.915 34.2969C53.5437 35.9249 46.4563 35.9249 42.085 34.2969L7.91504 21.5704C3.5437 19.9423 3.5437 17.3026 7.91504 15.6744L42.085 2.948Z" stroke="#EF7F1A" stroke-opacity="1.000000" stroke-width="2.000000"/>
	<path id="Vector" d="M44.2032 7.15015C47.4026 5.95862 52.59 5.95862 55.7893 7.15015L80.7982 16.4647C83.9977 17.6564 83.9977 19.5883 80.7982 20.7799L55.7893 30.0945C52.59 31.286 47.4026 31.286 44.2032 30.0945L19.1943 20.7799C15.9949 19.5883 15.9949 17.6564 19.1943 16.4647L44.2032 7.15015Z" stroke="#EF7F1A" stroke-opacity="1.000000" stroke-width="1.000000"/>
	<path id="Vector" d="M27.2477 13.494L27.2477 23.7179" stroke="#EF7F1A" stroke-opacity="1.000000" stroke-width="1.000000" stroke-linecap="round"/>
	<path id="Vector" d="M34.3734 10.7057L34.3734 26.1965" stroke="#EF7F1A" stroke-opacity="1.000000" stroke-width="1.000000" stroke-linecap="round"/>
	<path id="Vector" d="M42.7384 7.60742L42.7384 29.6044" stroke="#EF7F1A" stroke-opacity="1.000000" stroke-width="1.000000" stroke-linecap="round"/>
	<path id="Vector" d="M51.4132 6.05847L51.4132 31.1536" stroke="#EF7F1A" stroke-opacity="1.000000" stroke-width="1.000000" stroke-linecap="round"/>
	<path id="Vector" d="M59.7782 8.84668L59.7782 28.3651" stroke="#EF7F1A" stroke-opacity="1.000000" stroke-width="1.000000" stroke-linecap="round"/>
	<path id="Vector" d="M66.9039 11.3253L66.9039 25.8867" stroke="#EF7F1A" stroke-opacity="1.000000" stroke-width="1.000000" stroke-linecap="round"/>
	<path id="Vector" d="M74.6494 14.1136L74.6494 22.7885" stroke="#EF7F1A" stroke-opacity="1.000000" stroke-width="1.000000" stroke-linecap="round"/>
	<path id="Vector" d="M16.0941 55.629L83.9438 55.9388" stroke="#EF7F1A" stroke-opacity="1.000000" stroke-width="1.000000" stroke-linejoin="round" stroke-linecap="round"/>
	<path id="Vector" d="M26.6279 60.5861L73.72 60.5861" stroke="#EF7F1A" stroke-opacity="1.000000" stroke-width="1.000000" stroke-linejoin="round" stroke-linecap="round"/>
	<path id="Vector" d="M39.0206 65.2333L60.0881 65.2333" stroke="#EF7F1A" stroke-opacity="1.000000" stroke-width="1.000000" stroke-linejoin="round" stroke-linecap="round"/>
	<path id="Vector" d="M26.0084 50.9818L33.444 51.6014" stroke="#EF7F1A" stroke-opacity="1.000000" stroke-width="1.000000" stroke-linejoin="round" stroke-linecap="round"/>
	<path id="Vector" d="M67.5237 50.9818L75.269 51.6014" stroke="#EF7F1A" stroke-opacity="1.000000" stroke-width="1.000000" stroke-linejoin="round" stroke-linecap="round"/>
</svg>
