<svg width="26.500000" height="23.999939" viewBox="0 0 26.5 23.9999" fill="none" xmlns="http://www.w3.org/2000/svg" xmlns:xlink="http://www.w3.org/1999/xlink">
	<desc>
			Created with Pixso.
	</desc>
	<defs/>
	<path id="Vector" d="M23.25 0.75C24.5 0.75 25.75 2 25.75 4.5L25.75 17C25.75 18.25 24.5 19.5 23.25 19.5L19.5 19.5C19.5 19.5 20.75 22 17 23.25C18.25 22 15.75 19.5 15.75 19.5L4.5 19.5C2 19.5 0.75 18.25 0.75 17L0.75 4.5C0.75 2 2 0.75 4.5 0.75L23.25 0.75Z" stroke="#FFFFFF" stroke-opacity="1.000000" stroke-width="1.500000" stroke-linejoin="round"/>
	<path id="Vector" d="M5.75 7L22 7" stroke="#FFFFFF" stroke-opacity="1.000000" stroke-width="1.500000" stroke-linejoin="round" stroke-linecap="round"/>
	<path id="Vector" d="M5.75 10.75L13.25 10.75" stroke="#FFFFFF" stroke-opacity="1.000000" stroke-width="1.500000" stroke-linejoin="round" stroke-linecap="round"/>
	<path id="Vector" d="M5.75 14.5L17 14.5" stroke="#FFFFFF" stroke-opacity="1.000000" stroke-width="1.500000" stroke-linejoin="round" stroke-linecap="round"/>
</svg>
