<svg width="122.000000" height="85.444214" viewBox="0 0 122 85.4442" fill="none" xmlns="http://www.w3.org/2000/svg" xmlns:xlink="http://www.w3.org/1999/xlink">
	<desc>
			Created with Pixso.
	</desc>
	<defs/>
	<path id="Vector" d="M25.2964 0L115.963 0C116.852 0 117.444 0.592651 117.444 1.18518L117.444 77.0369C117.444 77.6295 116.852 78.222 115.963 78.222L25.2964 78.222C24.7036 78.222 24.1111 77.6295 24.1111 77.0369L24.1111 64.8888L26.7778 64.8888L26.7778 75.8517L114.481 75.8517L114.481 2.0741L26.7778 2.0741L26.7778 42.074L24.1111 42.074L24.1111 1.18518C24.1111 0.592651 24.7036 0 25.2964 0L25.2964 0Z" fill="#EF7F1A" fill-opacity="1.000000" fill-rule="nonzero"/>
	<path id="Vector" d="M63.8152 8.88892L63.8152 69.3333L32.4077 69.3333L32.4077 64.8888L46.9263 64.8888C49.2966 64.8888 51.3706 62.8147 51.3706 60.1481L51.3706 46.8148C51.3706 44.1481 49.2966 42.0741 46.9263 42.0741L32.4077 42.0741L32.4077 8.88892L63.8152 8.88892Z" stroke="#EF7F1A" stroke-opacity="1.000000" stroke-width="1.000000" stroke-linejoin="round"/>
	<path id="Vector" d="M109.444 7.11108L109.444 71.111L66.7776 71.111L66.7776 7.11108L109.444 7.11108ZM106.481 10.0741L106.481 68.1481L69.7405 68.1481L69.7405 38.8147L68.8516 38.8147C68.259 38.8147 67.6665 38.2222 67.6665 37.6295C67.6665 37.037 68.259 36.7406 68.8516 36.7406L69.7405 36.7406L69.7405 10.0741L106.481 10.0741Z" stroke="#EF7F1A" stroke-opacity="1.000000" stroke-width="1.000000" stroke-linejoin="round"/>
	<path id="Vector" d="M121 77.3331L121 84.4442L20.5557 84.4442L20.5557 77.3331L121 77.3331Z" stroke="#EF7F1A" stroke-opacity="1.000000" stroke-width="2.000000" stroke-linejoin="round"/>
	<path id="Vector" d="M73.5925 36.7407C74.2471 36.7407 74.7776 37.2051 74.7776 37.7777C74.7776 38.3505 74.2471 38.8148 73.5925 38.8148L68.8518 38.8148C68.197 38.8148 67.6665 38.3505 67.6665 37.7777C67.6665 37.2051 68.197 36.7407 68.8518 36.7407L73.5925 36.7407Z" stroke="#EF7F1A" stroke-opacity="1.000000" stroke-width="1.000000" stroke-linejoin="round"/>
	<path id="Vector" d="M46.9258 42.074C49.2961 42.074 51.3704 44.1481 51.3704 46.8147L51.3704 60.1481C51.3704 62.8147 49.2961 64.8888 46.9258 64.8888L12.8518 64.8888C10.4814 64.8888 8.70361 63.4072 8.11108 61.3333C4.25928 61.0369 1 57.7777 1 53.6295C1 49.4813 4.25928 46.2222 8.11108 45.9258C8.70361 43.5554 10.4814 42.074 12.8518 42.074L46.9258 42.074Z" stroke="#EF7F1A" stroke-opacity="1.000000" stroke-width="2.000000"/>
	<path id="Vector" d="M8.40723 56.2961C6.771 56.2961 5.44434 54.9696 5.44434 53.3333C5.44434 51.6968 6.771 50.3702 8.40723 50.3702C10.0437 50.3702 11.3704 51.6968 11.3704 53.3333C11.3704 54.9696 10.0437 56.2961 8.40723 56.2961Z" stroke="#EF7F1A" stroke-opacity="1.000000" stroke-width="1.000000"/>
	<path id="Vector" d="M38.0371 52.4443L38.0371 60.7406L33.8889 60.7406L33.8889 52.4443L38.0371 52.4443Z" stroke="#EF7F1A" stroke-opacity="1.000000" stroke-width="1.000000"/>
	<path id="Vector" d="M33.8884 53.037C32.7034 52.4445 31.8145 51.5555 31.2219 50.9629C30.6294 50.3704 30.333 49.7777 30.333 49.4814C30.0366 48.8889 29.7405 48.2963 29.7405 47.7037C29.7405 47.4073 29.7405 46.8148 29.4441 46.5186C29.4441 46.2222 29.4441 46.2222 29.1477 45.9259C29.1477 45.9259 28.8516 45.9259 28.5552 45.9259C28.259 46.2222 27.9626 46.2222 27.9626 46.5186C27.6663 46.8148 27.6663 47.1111 27.3701 47.7037C27.3701 48.2963 27.3701 49.1852 27.3701 49.7777C27.6663 50.3704 27.6663 50.9629 27.9626 51.5555C27.9626 51.8518 28.259 52.1481 28.259 52.1481C28.259 52.4445 28.259 52.4445 27.3701 52.4445C26.4812 52.4445 24.7034 52.4445 23.8145 52.4445C22.9255 52.4445 22.9255 52.4445 22.6294 52.7407C22.6294 52.7407 22.333 53.037 22.333 53.3333C22.333 53.6296 22.333 53.9259 22.333 53.9259C22.6294 54.2222 22.9255 54.5184 22.9255 54.8148C22.9255 55.1111 22.6294 55.1111 22.6294 55.4073C22.6294 55.7036 22.6294 55.7036 22.9255 56C22.9255 56.2963 23.2219 56.5925 23.2219 56.5925C23.5183 56.8888 23.5183 56.8888 23.5183 56.8888C23.5183 56.8888 23.5183 56.8888 23.5183 57.1852C23.2219 57.1852 23.2219 57.4814 23.2219 57.7777C23.2219 58.074 23.5183 58.3704 23.5183 58.3704C23.8145 58.6666 24.1108 58.9629 24.407 58.9629C24.407 58.9629 24.407 58.9629 24.407 59.2592C24.1108 59.2592 24.1108 59.2592 24.1108 59.5555C24.1108 59.8518 24.407 60.1481 24.7034 60.4445C24.7034 60.4445 24.9998 60.7407 26.1848 60.7407C27.3701 60.7407 29.1477 60.7407 30.6294 60.4445C32.1108 60.4445 32.9998 59.8518 33.8884 59.5555" stroke="#EF7F1A" stroke-opacity="1.000000" stroke-width="1.000000"/>
	<path id="Vector" d="M9.29639 55.9999C9.29639 55.1111 9.59277 54.2222 9 53.9259C8.11133 53.3333 6.92603 53.3333 5.44458 54.5184C3.96313 55.4073 2.48169 57.4814 2.1853 59.8518C2.1853 61.9259 3.07422 64.5925 5.14819 66.3702C7.22241 68.1481 10.4817 69.3333 13.1482 70.2222C15.5186 71.111 17.5928 71.9999 18.7778 73.1851C19.9631 74.3702 20.2593 75.8518 20.5557 77.3333" stroke="#EF7F1A" stroke-opacity="1.000000" stroke-width="1.000000"/>
	<path id="Vector" d="M12.8518 64.8888C14.3333 66.6666 15.5186 68.4443 17 69.9258C18.1851 71.111 19.3704 71.9999 19.9629 73.1851C20.5554 74.3702 20.5554 75.8517 20.5554 77.3333" stroke="#EF7F1A" stroke-opacity="1.000000" stroke-width="1.000000"/>
</svg>
