<svg width="82.273438" height="71.726807" viewBox="0 0 82.2734 71.7268" fill="none" xmlns="http://www.w3.org/2000/svg" xmlns:xlink="http://www.w3.org/1999/xlink">
	<desc>
			Created with Pixso.
	</desc>
	<defs/>
	<path id="Vector" d="M61.0831 11.6772L61.0831 18.7057C60.6697 18.7057 60.4629 18.4989 60.0494 18.4989C57.1554 18.4989 54.8816 20.9796 54.8816 23.8737L54.8816 48.6798L1.13477 48.6798L1.13477 11.6772L61.0831 11.6772Z" stroke="#8C8C94" stroke-opacity="1.000000" stroke-width="2.269565" stroke-linejoin="round"/>
	<path id="Vector" d="M54.8816 48.6799L54.8816 53.2278C53.0211 54.6748 51.7808 56.9486 51.7808 59.4293C51.7808 63.7704 55.5017 67.4913 59.8428 67.4913C60.2562 67.4913 60.6697 67.2845 61.0831 67.2845L61.0831 70.592L1.13477 70.592L1.13477 48.6799L54.8816 48.6799Z" stroke="#8C8C94" stroke-opacity="1.000000" stroke-width="2.269565" stroke-linejoin="round"/>
	<path id="Vector" d="M15.605 13.7444L15.605 46.6125L4.02881 46.6125L4.02881 13.7444L15.605 13.7444Z" stroke="#8C8C94" stroke-opacity="1.000000" stroke-width="1.008696" stroke-linejoin="round"/>
	<path id="Vector" d="M30.2821 13.7444L30.2821 46.6125L17.4656 46.6125L17.4656 13.7444L30.2821 13.7444Z" stroke="#8C8C94" stroke-opacity="1.000000" stroke-width="1.008696" stroke-linejoin="round"/>
	<path id="Vector" d="M44.7523 13.7444L44.7523 46.6125L31.9358 46.6125L31.9358 13.7444L44.7523 13.7444Z" stroke="#8C8C94" stroke-opacity="1.000000" stroke-width="1.008696" stroke-linejoin="round"/>
	<path id="Vector" d="M59.4293 13.7444L59.4293 18.7056C56.7419 18.9124 54.8815 21.1863 54.8815 23.8735L54.8815 46.6125L46.6128 46.6125L46.6128 13.7444L59.4293 13.7444Z" stroke="#8C8C94" stroke-opacity="1.000000" stroke-width="1.008696" stroke-linejoin="round"/>
	<path id="Vector" d="M8.36987 53.8478L8.36987 65.2173" stroke="#8C8C94" stroke-opacity="1.000000" stroke-width="1.008696" stroke-linejoin="round" stroke-linecap="round"/>
	<path id="Vector" d="M15.1917 53.8478L15.1917 65.2173" stroke="#8C8C94" stroke-opacity="1.000000" stroke-width="1.008696" stroke-linejoin="round" stroke-linecap="round"/>
	<path id="Vector" d="M21.5999 53.8478L21.5999 65.2173" stroke="#8C8C94" stroke-opacity="1.000000" stroke-width="1.008696" stroke-linejoin="round" stroke-linecap="round"/>
	<path id="Vector" d="M28.4216 53.8478L28.4216 65.2173" stroke="#8C8C94" stroke-opacity="1.000000" stroke-width="1.008696" stroke-linejoin="round" stroke-linecap="round"/>
	<path id="Vector" d="M34.8298 53.8478L34.8298 65.2173" stroke="#8C8C94" stroke-opacity="1.000000" stroke-width="1.008696" stroke-linejoin="round" stroke-linecap="round"/>
	<path id="Vector" d="M41.6515 53.8478L41.6515 65.2173" stroke="#8C8C94" stroke-opacity="1.000000" stroke-width="1.008696" stroke-linejoin="round" stroke-linecap="round"/>
	<path id="Vector" d="M48.0598 53.8478L48.0598 65.2173" stroke="#8C8C94" stroke-opacity="1.000000" stroke-width="1.008696" stroke-linejoin="round" stroke-linecap="round"/>
	<path id="Vector" d="M67.9048 59.4292C67.9048 63.7704 64.3906 67.4912 59.8428 67.4912C55.5017 67.4912 51.7808 63.7704 51.7808 59.4292C51.7808 56.9486 53.0211 54.6747 54.8816 53.2277L54.8816 23.8737C54.8816 20.9796 57.1554 18.499 60.0494 18.499C62.9436 18.499 65.2174 20.9796 65.2174 23.8737L65.2174 53.4344C66.8712 54.8815 67.9048 56.9486 67.9048 59.4292Z" stroke="#8C8C94" stroke-opacity="1.000000" stroke-width="2.269565" stroke-linejoin="round"/>
	<path id="Vector" d="M61.9099 25.7341L61.9099 56.3285C62.9435 56.9486 63.7704 58.189 63.7704 59.636C63.7704 61.7031 62.1166 63.5636 59.8427 63.5636C57.7755 63.5636 55.915 61.7031 55.915 59.636C55.915 57.9822 56.7419 56.7419 58.189 56.1218L58.189 25.7341C58.189 24.7006 59.0159 23.667 60.0494 23.667C61.083 23.667 61.9099 24.7006 61.9099 25.7341Z" stroke="#8C8C94" stroke-opacity="1.000000" stroke-width="2.269565" stroke-linejoin="round"/>
	<path id="Vector" d="M61.9099 26.9744L61.9099 56.3284C62.9435 56.9485 63.7704 58.1888 63.7704 59.6359C63.7704 61.703 62.1166 63.5635 59.8427 63.5635C57.7755 63.5635 55.915 61.703 55.915 59.6359C55.915 57.9821 56.7419 56.7418 58.189 56.1217L58.189 26.9744L61.9099 26.9744Z" fill="#9494A8" fill-opacity="1.000000" fill-rule="evenodd"/>
	<path id="Vector" d="M61.9099 56.3284C62.9435 56.9485 63.7704 58.1888 63.7704 59.6359C63.7704 61.703 62.1166 63.5635 59.8427 63.5635C57.7755 63.5635 55.915 61.703 55.915 59.6359C55.915 57.9821 56.7419 56.7418 58.189 56.1217L58.189 26.9744L61.9099 26.9744L61.9099 56.3284Z" stroke="#8C8C94" stroke-opacity="1.000000" stroke-width="2.269565" stroke-linejoin="round"/>
	<path id="Vector" d="M74.7266 41.0312L74.7266 37.1036L74.7266 41.0312ZM74.7266 52.1941L74.7266 48.0597L74.7266 52.1941Z" stroke="#8C8C94" stroke-opacity="1.000000" stroke-width="2.269565" stroke-linejoin="round"/>
	<path id="Vector" d="M77.6206 46.4059L81.1349 48.473L77.6206 46.4059ZM68.1116 40.8245L71.6257 42.8916L68.1116 40.8245Z" stroke="#8C8C94" stroke-opacity="1.000000" stroke-width="2.269565" stroke-linejoin="round"/>
	<path id="Vector" d="M71.6257 46.4059L68.1116 48.473L71.6257 46.4059ZM77.6206 42.8916L81.1349 40.8245" stroke="#8C8C94" stroke-opacity="1.000000" stroke-width="2.269565" stroke-linejoin="round" stroke-linecap="round"/>
	<path id="Vector" d="M74.7264 48.0597C72.7856 48.0597 71.2123 46.4863 71.2123 44.5454C71.2123 42.6046 72.7856 41.0312 74.7264 41.0312C76.6674 41.0312 78.2407 42.6046 78.2407 44.5454C78.2407 46.4863 76.6674 48.0597 74.7264 48.0597Z" stroke="#8C8C94" stroke-opacity="1.000000" stroke-width="2.269565" stroke-linejoin="round"/>
	<path id="Vector" d="M55.7085 1.13477C56.5354 3.2019 61.0831 11.4707 61.0831 11.6774L1.34155 11.4707L6.50952 1.13477L55.7085 1.13477Z" stroke="#8C8C94" stroke-opacity="1.000000" stroke-width="2.269565" stroke-linejoin="round"/>
	<path id="Vector" d="M11.0573 4.02856L8.57666 8.36963" stroke="#8C8C94" stroke-opacity="1.000000" stroke-width="1.008696" stroke-linejoin="round" stroke-linecap="round"/>
	<path id="Vector" d="M17.2588 4.23535L16.2252 8.16296" stroke="#8C8C94" stroke-opacity="1.000000" stroke-width="1.008696" stroke-linejoin="round" stroke-linecap="round"/>
	<path id="Vector" d="M24.0804 4.23535L23.667 8.16296" stroke="#8C8C94" stroke-opacity="1.000000" stroke-width="1.008696" stroke-linejoin="round" stroke-linecap="round"/>
	<path id="Vector" d="M31.1089 4.02856L31.1089 8.36963" stroke="#8C8C94" stroke-opacity="1.000000" stroke-width="1.008696" stroke-linejoin="round" stroke-linecap="round"/>
	<path id="Vector" d="M53.6412 8.36963L51.1605 4.02856L53.6412 8.36963ZM31.1089 8.36963L31.1089 4.02856L31.1089 8.36963ZM38.5508 8.16296L38.1373 4.23535L38.5508 8.16296ZM44.959 4.23535L45.9926 8.16296" stroke="#8C8C94" stroke-opacity="1.000000" stroke-width="1.008696" stroke-linejoin="round" stroke-linecap="round"/>
</svg>
