<svg width="67.976074" height="72.976196" viewBox="0 0 67.9761 72.9762" fill="none" xmlns="http://www.w3.org/2000/svg" xmlns:xlink="http://www.w3.org/1999/xlink">
	<desc>
			Created with Pixso.
	</desc>
	<defs/>
	<path id="Vector" d="M66.0892 11.9136L66.0892 23.27L66.0892 71.488L43.7579 71.488L43.7579 71.3019L1.48804 71.3019L1.48804 11.9136L66.0892 11.9136Z" stroke="#9494A8" stroke-opacity="1.000000" stroke-width="2.976191" stroke-linejoin="round"/>
	<path id="Vector" d="M17.2395 14.1476L17.2395 45.238L4.47876 45.238L4.47876 14.1476L17.2395 14.1476Z" stroke="#9494A8" stroke-opacity="1.000000" stroke-width="1.488095" stroke-linejoin="round"/>
	<path id="Vector" d="M32.5923 14.1476L32.5923 45.238L18.8346 45.238L18.8346 14.1476L32.5923 14.1476Z" stroke="#9494A8" stroke-opacity="1.000000" stroke-width="1.488095" stroke-linejoin="round"/>
	<path id="Vector" d="M48.5432 14.1476L48.5432 45.238L34.7855 45.238L34.7855 14.1476L48.5432 14.1476Z" stroke="#9494A8" stroke-opacity="1.000000" stroke-width="1.488095" stroke-linejoin="round"/>
	<path id="Vector" d="M63.2979 14.1476L63.2979 45.238L50.5371 45.238L50.5371 14.1476L63.2979 14.1476Z" stroke="#9494A8" stroke-opacity="1.000000" stroke-width="1.488095" stroke-linejoin="round"/>
	<path id="Vector" d="M17.2395 46.9136L17.2395 68.5093L4.47876 68.5093L4.47876 46.9136L17.2395 46.9136Z" stroke="#9494A8" stroke-opacity="1.000000" stroke-width="1.488095" stroke-linejoin="round"/>
	<path id="Vector" d="M32.5923 46.9136L32.5923 68.5093L18.8346 68.5093L18.8346 46.9136L32.5923 46.9136Z" stroke="#9494A8" stroke-opacity="1.000000" stroke-width="1.488095" stroke-linejoin="round"/>
	<path id="Vector" d="M48.5432 46.9136L48.5432 68.5093L34.7855 68.5093L34.7855 46.9136L48.5432 46.9136Z" stroke="#9494A8" stroke-opacity="1.000000" stroke-width="1.488095" stroke-linejoin="round"/>
	<path id="Vector" d="M63.2979 46.9136L63.2979 68.5093L50.5371 68.5093L50.5371 46.9136L63.2979 46.9136Z" stroke="#9494A8" stroke-opacity="1.000000" stroke-width="1.488095" stroke-linejoin="round"/>
	<path id="Vector" d="M60.7058 1.48804C61.7028 3.34973 66.488 11.7274 66.488 11.9136L2.08618 11.7274L7.66895 1.48804L60.7058 1.48804Z" stroke="#9494A8" stroke-opacity="1.000000" stroke-width="2.976191" stroke-linejoin="round"/>
	<path id="Vector" d="M12.4543 4.28052L9.8623 8.56238" stroke="#9494A8" stroke-opacity="1.000000" stroke-width="1.488095" stroke-linejoin="round" stroke-linecap="round"/>
	<path id="Vector" d="M19.2335 4.46692L18.2366 8.56262" stroke="#9494A8" stroke-opacity="1.000000" stroke-width="1.488095" stroke-linejoin="round" stroke-linecap="round"/>
	<path id="Vector" d="M26.6107 4.46692L26.0126 8.56262" stroke="#9494A8" stroke-opacity="1.000000" stroke-width="1.488095" stroke-linejoin="round" stroke-linecap="round"/>
	<path id="Vector" d="M34.1874 4.28052L34.1874 8.56238" stroke="#9494A8" stroke-opacity="1.000000" stroke-width="1.488095" stroke-linejoin="round" stroke-linecap="round"/>
	<path id="Vector" d="M58.5126 8.56238L55.9205 4.28052L58.5126 8.56238ZM34.1874 8.56238L34.1874 4.28052L34.1874 8.56238ZM42.1628 8.56238L41.764 4.46667L42.1628 8.56238ZM49.1414 4.46667L50.1383 8.56238" stroke="#9494A8" stroke-opacity="1.000000" stroke-width="1.488095" stroke-linejoin="round" stroke-linecap="round"/>
</svg>
