<svg width="67.772949" height="76.439697" viewBox="0 0 67.7729 76.4397" fill="none" xmlns="http://www.w3.org/2000/svg" xmlns:xlink="http://www.w3.org/1999/xlink">
	<desc>
			Created with Pixso.
	</desc>
	<defs/>
	<path id="Vector" d="M17.327 15.6246L17.327 47.9698L4.79126 47.9698L4.79126 15.6246L17.327 15.6246Z" stroke="#9494A8" stroke-opacity="1.000000" stroke-width="1.386503" stroke-linejoin="round"/>
	<path id="Vector" d="M32.9579 15.6246L32.9579 47.9698L19.1841 47.9698L19.1841 15.6246L32.9579 15.6246Z" stroke="#9494A8" stroke-opacity="1.000000" stroke-width="1.386503" stroke-linejoin="round"/>
	<path id="Vector" d="M48.5889 15.6246L48.5889 47.9698L34.8151 47.9698L34.8151 15.6246L48.5889 15.6246Z" stroke="#9494A8" stroke-opacity="1.000000" stroke-width="1.386503" stroke-linejoin="round"/>
	<path id="Vector" d="M63.1366 15.6246L63.1366 47.9698L50.6008 47.9698L50.6008 15.6246L63.1366 15.6246Z" stroke="#9494A8" stroke-opacity="1.000000" stroke-width="1.386503" stroke-linejoin="round"/>
	<path id="Vector" d="M66.3865 12.8389L66.3865 20.1127L66.2317 20.1127L66.2317 51.3746L43.7913 51.3746L43.7913 51.2198L1.38647 51.2198L1.38647 12.8389L66.3865 12.8389Z" stroke="#9494A8" stroke-opacity="1.000000" stroke-width="2.773006" stroke-linejoin="round"/>
	<path id="Vector" d="M8.19604 58.1841L8.19604 69.9459" stroke="#9494A8" stroke-opacity="1.000000" stroke-width="1.386503" stroke-linejoin="round" stroke-linecap="round"/>
	<path id="Vector" d="M15.4698 58.1841L15.4698 69.9459" stroke="#9494A8" stroke-opacity="1.000000" stroke-width="1.386503" stroke-linejoin="round" stroke-linecap="round"/>
	<path id="Vector" d="M22.1245 58.1841L22.1245 69.9459" stroke="#9494A8" stroke-opacity="1.000000" stroke-width="1.386503" stroke-linejoin="round" stroke-linecap="round"/>
	<path id="Vector" d="M29.2437 58.1841L29.2437 69.9459" stroke="#9494A8" stroke-opacity="1.000000" stroke-width="1.386503" stroke-linejoin="round" stroke-linecap="round"/>
	<path id="Vector" d="M36.0532 58.1841L36.0532 69.9459" stroke="#9494A8" stroke-opacity="1.000000" stroke-width="1.386503" stroke-linejoin="round" stroke-linecap="round"/>
	<path id="Vector" d="M43.1721 58.1841L43.1721 69.9459" stroke="#9494A8" stroke-opacity="1.000000" stroke-width="1.386503" stroke-linejoin="round" stroke-linecap="round"/>
	<path id="Vector" d="M49.9817 58.1841L49.9817 69.9459" stroke="#9494A8" stroke-opacity="1.000000" stroke-width="1.386503" stroke-linejoin="round" stroke-linecap="round"/>
	<path id="Vector" d="M57.2555 58.1841L57.2555 69.9459" stroke="#9494A8" stroke-opacity="1.000000" stroke-width="1.386503" stroke-linejoin="round" stroke-linecap="round"/>
	<path id="Vector" d="M60.5055 1.38647L66.3865 12.9937L66.3865 15.4698L66.2317 15.4698L66.2317 75.0531L43.7913 75.0531L43.7913 74.8984L1.38647 74.8984L1.38647 12.5293L7.11267 1.38647L60.5055 1.38647Z" stroke="#9494A8" stroke-opacity="1.000000" stroke-width="2.773006" stroke-linejoin="round"/>
	<path id="Vector" d="M19.6484 3.39844L17.946 10.5175L5.87463 10.5175L9.58887 3.39844L19.6484 3.39844ZM32.958 3.39844L32.958 10.5175L19.6484 10.5175L21.196 3.39844L32.958 3.39844Z" stroke="#9494A8" stroke-opacity="1.000000" stroke-width="1.386503" stroke-linejoin="round"/>
	<path id="Vector" d="M47.9697 3.39844L49.6721 10.5175L61.8982 10.5175L58.184 3.39844L47.9697 3.39844ZM34.6602 3.39844L34.6602 10.5175L47.9697 10.5175L46.4221 3.39844L34.6602 3.39844Z" stroke="#9494A8" stroke-opacity="1.000000" stroke-width="1.386503" stroke-linejoin="round"/>
</svg>
