<svg width="82.220215" height="71.762085" viewBox="0 0 82.2202 71.7621" fill="none" xmlns="http://www.w3.org/2000/svg" xmlns:xlink="http://www.w3.org/1999/xlink">
	<desc>
			Created with Pixso.
	</desc>
	<defs/>
	<path id="Vector" d="M61.1083 11.5627L61.1083 18.6082C60.881 18.6082 60.4265 18.6082 59.9719 18.6082C57.2446 18.6082 54.7446 20.881 54.7446 23.8354L54.7446 48.8354L1.10828 48.8354L1.10828 11.5627L61.1083 11.5627Z" stroke="#9494A8" stroke-opacity="1.000000" stroke-width="2.216560" stroke-linejoin="round"/>
	<path id="Vector" d="M54.7446 48.8356L54.7446 53.1538C52.9265 54.5173 51.79 56.7902 51.79 59.2902C51.79 63.8356 55.4265 67.4719 59.9719 67.4719C60.4265 67.4719 60.6537 67.4719 61.1083 67.2446L61.1083 70.6538L1.10828 70.6538L1.10828 48.8356L54.7446 48.8356Z" stroke="#9494A8" stroke-opacity="1.000000" stroke-width="2.216560" stroke-linejoin="round"/>
	<path id="Vector" d="M15.6538 13.8356L15.6538 46.7902L3.83557 46.7902L3.83557 13.8356L15.6538 13.8356Z" stroke="#9494A8" stroke-opacity="1.000000" stroke-width="1.108280" stroke-linejoin="round"/>
	<path id="Vector" d="M30.1993 13.8356L30.1993 46.7902L17.2448 46.7902L17.2448 13.8356L30.1993 13.8356Z" stroke="#9494A8" stroke-opacity="1.000000" stroke-width="1.108280" stroke-linejoin="round"/>
	<path id="Vector" d="M44.9719 13.8356L44.9719 46.7902L32.0173 46.7902L32.0173 13.8356L44.9719 13.8356Z" stroke="#9494A8" stroke-opacity="1.000000" stroke-width="1.108280" stroke-linejoin="round"/>
	<path id="Vector" d="M59.2902 13.8356L59.2902 18.6083C56.7902 18.8356 54.7446 21.1083 54.7446 23.8356L54.7446 46.7902L46.5629 46.7902L46.5629 13.8356L59.2902 13.8356Z" stroke="#9494A8" stroke-opacity="1.000000" stroke-width="1.108280" stroke-linejoin="round"/>
	<path id="Vector" d="M8.15369 53.8356L8.15369 65.1992" stroke="#9494A8" stroke-opacity="1.000000" stroke-width="1.108280" stroke-linejoin="round" stroke-linecap="round"/>
	<path id="Vector" d="M14.9718 53.8356L14.9718 65.1992" stroke="#9494A8" stroke-opacity="1.000000" stroke-width="1.108280" stroke-linejoin="round" stroke-linecap="round"/>
	<path id="Vector" d="M21.5629 53.8356L21.5629 65.1992" stroke="#9494A8" stroke-opacity="1.000000" stroke-width="1.108280" stroke-linejoin="round" stroke-linecap="round"/>
	<path id="Vector" d="M28.381 53.8356L28.381 65.1992" stroke="#9494A8" stroke-opacity="1.000000" stroke-width="1.108280" stroke-linejoin="round" stroke-linecap="round"/>
	<path id="Vector" d="M34.7445 53.8356L34.7445 65.1992" stroke="#9494A8" stroke-opacity="1.000000" stroke-width="1.108280" stroke-linejoin="round" stroke-linecap="round"/>
	<path id="Vector" d="M41.5629 53.8356L41.5629 65.1992" stroke="#9494A8" stroke-opacity="1.000000" stroke-width="1.108280" stroke-linejoin="round" stroke-linecap="round"/>
	<path id="Vector" d="M47.9265 53.8356L47.9265 65.1992" stroke="#9494A8" stroke-opacity="1.000000" stroke-width="1.108280" stroke-linejoin="round" stroke-linecap="round"/>
	<path id="Vector" d="M67.9264 59.29C67.9264 63.8356 64.29 67.4719 59.9718 67.4719C55.4264 67.4719 51.79 63.8356 51.79 59.29C51.79 56.79 52.9264 54.5173 54.7446 53.1537L54.7446 23.8356C54.7446 20.881 57.2446 18.6083 59.9718 18.6083C62.9264 18.6083 65.1991 20.881 65.1991 23.8356L65.1991 53.381C67.0173 54.9719 67.9264 57.0173 67.9264 59.29Z" stroke="#9494A8" stroke-opacity="1.000000" stroke-width="2.216560" stroke-linejoin="round"/>
	<path id="Vector" d="M62.0173 25.6537L62.0173 56.3356C63.1537 57.0173 63.8356 58.1537 63.8356 59.5173C63.8356 61.79 62.0173 63.6083 59.9719 63.6083C57.6992 63.6083 55.881 61.79 55.881 59.5173C55.881 58.1537 56.79 56.79 58.1537 56.1083L58.1537 25.6537C58.1537 24.5173 59.0627 23.6083 59.9719 23.6083C61.1083 23.6083 62.0173 24.5173 62.0173 25.6537Z" stroke="#9494A8" stroke-opacity="1.000000" stroke-width="2.216560" stroke-linejoin="round"/>
	<path id="Vector" d="M62.0173 50.6538L62.0173 56.3356C63.1537 57.0175 63.8356 58.1538 63.8356 59.5175C63.8356 61.7902 62.0173 63.6084 59.9719 63.6084C57.6992 63.6084 55.881 61.7902 55.881 59.5175C55.881 58.1538 56.79 56.7902 58.1537 56.1084L58.1537 50.6538L62.0173 50.6538Z" fill="#9494A8" fill-opacity="1.000000" fill-rule="evenodd"/>
	<path id="Vector" d="M62.0173 56.3356C63.1537 57.0175 63.8356 58.1538 63.8356 59.5175C63.8356 61.7902 62.0173 63.6084 59.9719 63.6084C57.6992 63.6084 55.881 61.7902 55.881 59.5175C55.881 58.1538 56.79 56.7902 58.1537 56.1084L58.1537 50.6538L62.0173 50.6538L62.0173 56.3356Z" stroke="#9494A8" stroke-opacity="1.000000" stroke-width="2.216560" stroke-linejoin="round"/>
	<path id="Vector" d="M74.7448 37.0175L74.7448 52.2448" stroke="#9494A8" stroke-opacity="1.000000" stroke-width="2.216560" stroke-linejoin="round" stroke-linecap="round"/>
	<path id="Vector" d="M81.1083 48.381L68.1537 40.881" stroke="#9494A8" stroke-opacity="1.000000" stroke-width="2.216560" stroke-linejoin="round" stroke-linecap="round"/>
	<path id="Vector" d="M68.1537 48.381L81.1083 40.881" stroke="#9494A8" stroke-opacity="1.000000" stroke-width="2.216560" stroke-linejoin="round" stroke-linecap="round"/>
	<path id="Vector" d="M55.8811 1.1084C56.7902 3.15381 61.3356 11.3357 61.3356 11.563L1.56287 11.3357L6.79016 1.1084L55.8811 1.1084Z" stroke="#9494A8" stroke-opacity="1.000000" stroke-width="2.216560" stroke-linejoin="round"/>
	<path id="Vector" d="M11.1083 3.83545L8.83557 8.15369" stroke="#9494A8" stroke-opacity="1.000000" stroke-width="1.108280" stroke-linejoin="round" stroke-linecap="round"/>
	<path id="Vector" d="M17.4719 4.06274L16.5629 8.15369" stroke="#9494A8" stroke-opacity="1.000000" stroke-width="1.108280" stroke-linejoin="round" stroke-linecap="round"/>
	<path id="Vector" d="M24.2902 4.06274L23.8356 8.15369" stroke="#9494A8" stroke-opacity="1.000000" stroke-width="1.108280" stroke-linejoin="round" stroke-linecap="round"/>
	<path id="Vector" d="M31.3356 4.06274L31.3356 8.15369" stroke="#9494A8" stroke-opacity="1.000000" stroke-width="1.108280" stroke-linejoin="round" stroke-linecap="round"/>
	<path id="Vector" d="M53.8356 8.15369L51.5629 3.83545L53.8356 8.15369ZM31.3356 8.15369L31.3356 4.06274L31.3356 8.15369ZM38.8356 8.15369L38.381 4.06274L38.8356 8.15369ZM45.1992 4.06274L46.1083 8.15369" stroke="#9494A8" stroke-opacity="1.000000" stroke-width="1.108280" stroke-linejoin="round" stroke-linecap="round"/>
</svg>
