<svg width="72.471924" height="69.407471" viewBox="0 0 72.4719 69.4075" fill="none" xmlns="http://www.w3.org/2000/svg" xmlns:xlink="http://www.w3.org/1999/xlink">
	<desc>
			Created with Pixso.
	</desc>
	<defs/>
	<path id="Vector" d="M71.0747 46.5586L63.494 68.1715L45.9133 68.1715L8.17139 68.1715L1.39722 46.5586L71.0747 46.5586Z" stroke="#9494A8" stroke-opacity="1.000000" stroke-width="2.471910" stroke-linejoin="round"/>
	<path id="Vector" d="M18.494 13.9779L18.494 43.6553L4.94568 43.6553L4.94568 13.9779L18.494 13.9779Z" stroke="#9494A8" stroke-opacity="1.000000" stroke-width="1.123596" stroke-linejoin="round"/>
	<path id="Vector" d="M35.1068 13.9779L35.1068 43.6553L20.4294 43.6553L20.4294 13.9779L35.1068 13.9779Z" stroke="#9494A8" stroke-opacity="1.000000" stroke-width="1.123596" stroke-linejoin="round"/>
	<path id="Vector" d="M51.881 13.9779L51.881 43.6553L37.2036 43.6553L37.2036 13.9779L51.881 13.9779Z" stroke="#9494A8" stroke-opacity="1.000000" stroke-width="1.123596" stroke-linejoin="round"/>
	<path id="Vector" d="M67.6875 13.9779L67.6875 43.6553L54.1392 43.6553L54.1392 13.9779L67.6875 13.9779Z" stroke="#9494A8" stroke-opacity="1.000000" stroke-width="1.123596" stroke-linejoin="round"/>
	<path id="Vector" d="M71.0747 11.3973L71.0747 18.0103L71.0747 46.72L46.8811 46.72L46.8811 46.5586L1.39722 46.5586L1.39722 11.3973L71.0747 11.3973Z" stroke="#9494A8" stroke-opacity="1.000000" stroke-width="2.471910" stroke-linejoin="round"/>
	<path id="Vector" d="M13.3328 51.7198L16.3973 63.0101" stroke="#9494A8" stroke-opacity="1.000000" stroke-width="1.123596" stroke-linejoin="round" stroke-linecap="round"/>
	<path id="Vector" d="M24.3005 51.3973L26.0747 62.849" stroke="#9494A8" stroke-opacity="1.000000" stroke-width="1.123596" stroke-linejoin="round" stroke-linecap="round"/>
	<path id="Vector" d="M35.5908 51.236L35.5908 63.0101" stroke="#9494A8" stroke-opacity="1.000000" stroke-width="1.123596" stroke-linejoin="round" stroke-linecap="round"/>
	<path id="Vector" d="M58.0101 51.7198L54.7843 63.0101" stroke="#9494A8" stroke-opacity="1.000000" stroke-width="1.123596" stroke-linejoin="round" stroke-linecap="round"/>
	<path id="Vector" d="M47.0425 51.3973L45.1069 62.849" stroke="#9494A8" stroke-opacity="1.000000" stroke-width="1.123596" stroke-linejoin="round" stroke-linecap="round"/>
	<path id="Vector" d="M64.9457 1.23596C66.0747 3.17139 71.236 11.0747 71.236 11.3972L1.23596 11.236L7.52625 1.23596L64.9457 1.23596Z" stroke="#9494A8" stroke-opacity="1.000000" stroke-width="2.471910" stroke-linejoin="round"/>
	<path id="Vector" d="M12.6876 3.97791L9.94568 8.17151" stroke="#9494A8" stroke-opacity="1.000000" stroke-width="1.123596" stroke-linejoin="round" stroke-linecap="round"/>
	<path id="Vector" d="M20.1069 4.13916L18.8167 8.01013" stroke="#9494A8" stroke-opacity="1.000000" stroke-width="1.123596" stroke-linejoin="round" stroke-linecap="round"/>
	<path id="Vector" d="M28.0101 4.13916L27.5262 8.17139" stroke="#9494A8" stroke-opacity="1.000000" stroke-width="1.123596" stroke-linejoin="round" stroke-linecap="round"/>
	<path id="Vector" d="M36.236 4.13916L36.236 8.17139" stroke="#9494A8" stroke-opacity="1.000000" stroke-width="1.123596" stroke-linejoin="round" stroke-linecap="round"/>
	<path id="Vector" d="M62.5262 8.17151L59.7843 3.97791L62.5262 8.17151ZM36.236 8.17151L36.236 4.13916L36.236 8.17151ZM44.9457 8.17151L44.4618 4.13916L44.9457 8.17151ZM52.365 4.13916L53.6553 8.01013" stroke="#9494A8" stroke-opacity="1.000000" stroke-width="1.123596" stroke-linejoin="round" stroke-linecap="round"/>
	<path id="Vector" d="M64.9457 1.23596C66.0747 3.17139 71.236 11.0747 71.236 11.3972L1.23596 11.236L7.52625 1.23596L64.9457 1.23596Z" stroke="#9494A8" stroke-opacity="1.000000" stroke-width="2.471910" stroke-linejoin="round"/>
	<path id="Vector" d="M12.6876 3.97791L9.94568 8.17151" stroke="#9494A8" stroke-opacity="1.000000" stroke-width="1.123596" stroke-linejoin="round" stroke-linecap="round"/>
	<path id="Vector" d="M20.1069 4.13916L18.8167 8.01013" stroke="#9494A8" stroke-opacity="1.000000" stroke-width="1.123596" stroke-linejoin="round" stroke-linecap="round"/>
	<path id="Vector" d="M28.0101 4.13916L27.5262 8.17139" stroke="#9494A8" stroke-opacity="1.000000" stroke-width="1.123596" stroke-linejoin="round" stroke-linecap="round"/>
	<path id="Vector" d="M36.236 4.13916L36.236 8.17139" stroke="#9494A8" stroke-opacity="1.000000" stroke-width="1.123596" stroke-linejoin="round" stroke-linecap="round"/>
	<path id="Vector" d="M62.5262 8.17151L59.7843 3.97791L62.5262 8.17151ZM36.236 8.17151L36.236 4.13916L36.236 8.17151ZM44.9457 8.17151L44.4618 4.13916L44.9457 8.17151ZM52.365 4.13916L53.6553 8.01013" stroke="#9494A8" stroke-opacity="1.000000" stroke-width="1.123596" stroke-linejoin="round" stroke-linecap="round"/>
</svg>
