<svg width="67.734375" height="70.344849" viewBox="0 0 67.7344 70.3448" fill="none" xmlns="http://www.w3.org/2000/svg" xmlns:xlink="http://www.w3.org/1999/xlink">
	<desc>
			Created with Pixso.
	</desc>
	<defs/>
	<path id="Vector" d="M66.3672 1.36719L66.3672 68.9777L1.36719 68.9777L1.36719 1.36719L66.3672 1.36719Z" stroke="#9494A8" stroke-opacity="1.000000" stroke-width="2.734375" stroke-linejoin="round"/>
	<path id="Vector" d="M44.4395 41.568L44.4395 68.9777L1.36719 68.9777L1.36719 41.568L44.4395 41.568Z" stroke="#9494A8" stroke-opacity="1.000000" stroke-width="2.734375" stroke-linejoin="round"/>
	<path id="Vector" d="M46.2668 37.5219L46.2668 41.568L1.36719 41.568L1.36719 37.5219L46.2668 37.5219Z" stroke="#9494A8" stroke-opacity="1.000000" stroke-width="2.734375" stroke-linejoin="round"/>
	<path id="Vector" d="M66.3672 1.36719L61.4073 10.8953L7.24072 10.8953L1.36719 1.36719L66.3672 1.36719Z" stroke="#9494A8" stroke-opacity="1.000000" stroke-width="1.367188" stroke-linejoin="round"/>
	<path id="Vector" d="M7.24072 10.8953L7.24072 37.5217" stroke="#9494A8" stroke-opacity="1.000000" stroke-width="1.367188" stroke-linejoin="round" stroke-linecap="round"/>
	<path id="Vector" d="M61.4075 10.8953L61.4075 68.9775" stroke="#9494A8" stroke-opacity="1.000000" stroke-width="1.367188" stroke-linejoin="round" stroke-linecap="round"/>
	<path id="Vector" d="M44.4395 44.309L61.4073 44.309" stroke="#9494A8" stroke-opacity="1.000000" stroke-width="1.367188" stroke-linejoin="round" stroke-linecap="round"/>
	<path id="Vector" d="M20.2928 13.8973L20.2928 37.5219L9.59009 37.5219L9.59009 13.8973L20.2928 13.8973Z" stroke="#9494A8" stroke-opacity="1.000000" stroke-width="1.367188" stroke-linejoin="round"/>
	<path id="Vector" d="M33.3451 13.8973L33.3451 37.5219L22.6423 37.5219L22.6423 13.8973L33.3451 13.8973Z" stroke="#9494A8" stroke-opacity="1.000000" stroke-width="1.367188" stroke-linejoin="round"/>
	<path id="Vector" d="M46.1362 13.8973L46.1362 37.5219L35.4335 37.5219L35.4335 13.8973L46.1362 13.8973Z" stroke="#9494A8" stroke-opacity="1.000000" stroke-width="1.367188" stroke-linejoin="round"/>
	<path id="Vector" d="M58.9274 13.8973L58.9274 44.309L48.2246 44.309L48.2246 13.8973L58.9274 13.8973Z" stroke="#9494A8" stroke-opacity="1.000000" stroke-width="1.367188" stroke-linejoin="round"/>
	<path id="Vector" d="M46.0057 39.7407L46.0057 44.309" stroke="#9494A8" stroke-opacity="1.000000" stroke-width="1.367188" stroke-linejoin="round" stroke-linecap="round"/>
	<path id="Vector" d="M23.817 41.568L2.01978 68.9777" stroke="#9494A8" stroke-opacity="1.000000" stroke-width="1.367188" stroke-linejoin="round" stroke-linecap="round"/>
	<path id="Vector" d="M33.8673 41.568L12.0701 68.9777" stroke="#9494A8" stroke-opacity="1.000000" stroke-width="1.367188" stroke-linejoin="round" stroke-linecap="round"/>
	<path id="Vector" d="M44.5701 41.568L22.7728 68.9777" stroke="#9494A8" stroke-opacity="1.000000" stroke-width="1.367188" stroke-linejoin="round" stroke-linecap="round"/>
	<path id="Vector" d="M44.4396 55.2728L33.6062 68.9777" stroke="#9494A8" stroke-opacity="1.000000" stroke-width="1.367188" stroke-linejoin="round" stroke-linecap="round"/>
	<path id="Vector" d="M14.2888 41.568L1.36719 57.8833" stroke="#9494A8" stroke-opacity="1.000000" stroke-width="1.367188" stroke-linejoin="round" stroke-linecap="round"/>
</svg>
