<svg width="55.000000" height="38.698975" viewBox="0 0 55 38.699" fill="none" xmlns="http://www.w3.org/2000/svg" xmlns:xlink="http://www.w3.org/1999/xlink">
	<desc>
			Created with Pixso.
	</desc>
	<defs/>
	<path id="Vector" d="M17.551 6.80273L17.551 2.58496L10.3401 2.58496L10.3401 12.8232C10.3401 12.9592 9.18365 13.8435 9.0816 13.9456C8.84351 14.1497 8.63947 14.2856 8.43536 14.4897C8.19727 14.6938 7.99323 14.8298 7.75513 15.0339C7.34692 15.4421 6.90479 15.7483 6.46259 16.1226L3.87756 18.2993C3.77551 18.4014 3.67346 18.5034 3.57141 18.5715L0.170044 21.4285C0.0680542 21.5305 0.0680542 21.4966 0 21.5986L10.3401 21.5986L10.3401 38.5715L18.4354 38.5715C18.5374 38.5715 18.5374 38.5034 18.6055 38.4014C18.6395 38.2993 18.6735 38.2654 18.7075 38.1633C18.8095 38.0271 18.8776 37.8911 18.9796 37.7551L20.4422 35.136C20.5782 35.2041 21.3265 36.6667 21.4286 36.8367L22.415 38.5715L25.2041 38.5715C25.2041 38.2993 21.9048 32.7891 21.9048 32.585C21.9048 32.5171 22.619 31.2925 22.7211 31.1226C22.9932 30.5781 23.2653 30.1021 23.5714 29.5918L25.034 27.0068C25.1021 26.8708 25.17 26.7346 25.2381 26.6326L22.449 26.6326L20.9524 29.2178C20.8503 29.4219 20.5442 29.864 20.4762 30.1021L20.3401 29.8979C19.7619 28.8096 19.0476 27.687 18.4694 26.5986L15.7143 26.5986C15.7143 26.7007 15.7823 26.8027 15.8503 26.9048L17.415 29.6938C17.517 29.8979 17.6531 30.1021 17.7551 30.3062L18.4694 31.5647C18.6395 31.8708 18.8435 32.1768 18.9796 32.4829C19.0816 32.687 18.7075 33.1633 18.5714 33.4353L16.9728 36.2244C16.9048 36.3264 16.8707 36.4966 16.7687 36.4966L12.3469 36.4966L12.3469 19.5239L5.64624 19.5239C5.81635 19.2856 8.12927 17.449 8.57141 17.0408C8.74152 16.9048 8.87756 16.8027 9.01361 16.6667L11.9728 14.2178C12.0408 14.1497 12.3469 13.9116 12.3469 13.8096L12.3469 4.62573L15.4762 4.62573L15.4762 11.2244L21.2245 6.42847C21.3265 6.3606 21.4286 6.25854 21.5306 6.19043C21.6326 6.08838 21.7347 5.98633 21.8367 5.91846C22.619 5.27222 23.6395 4.35376 24.4218 3.74146C24.5238 3.67358 24.5919 3.60547 24.7279 3.50342C24.83 3.40137 24.9319 3.29932 25.034 3.2312C25.136 3.12915 25.2381 3.06128 25.3741 2.95923C25.4762 2.85718 25.5782 2.78906 25.6803 2.65308C25.9524 2.78906 26.5986 3.40137 26.8707 3.6394L29.2517 5.64624C29.3197 5.71436 29.3538 5.71436 29.3878 5.74829L29.864 6.12256C30.7143 6.87085 32.2449 8.09521 32.9932 8.77539C33.0612 8.84351 33.0612 8.84351 33.1293 8.91162C33.2653 8.97949 33.3333 9.04761 33.4354 9.14966L34.6259 10.136C34.7279 10.238 34.83 10.3062 34.9319 10.4082C35 10.4421 35.2041 10.6462 35.2721 10.6462L52.1769 10.6462C52.3129 10.6462 52.2789 10.5781 52.2449 10.4761L52.0748 9.65991C52.0068 9.35376 51.9047 8.80957 51.8027 8.57153L36.6666 8.57153C35.6122 8.57153 36.0884 8.60547 35.17 7.89111L34.864 7.65308C34.7619 7.58496 34.6938 7.51709 34.5918 7.41504L34.1497 7.04077C33.0952 6.12256 32.0068 5.23804 30.9183 4.35376L29.2857 2.99316C29.2177 2.92505 29.2177 2.92505 29.1497 2.85718L25.8843 0.135986C25.8163 0.0681152 25.8163 0.0339355 25.7483 0C25.5442 0.0339355 25.3741 0.272217 25.2381 0.408203L24.2177 1.22461C24.1157 1.32642 24.0476 1.3606 23.9456 1.46265L20.7823 4.11572C20.034 4.72778 19.3538 5.37427 18.6055 5.95239L17.8231 6.59863C17.7551 6.66675 17.619 6.7688 17.551 6.80273ZM30.3741 28.8435C30.4762 28.9116 30.5442 29.3198 30.5442 29.4558L31.5646 34.2856L29.2177 34.2856L30.3741 28.8435ZM39.3538 35.8164C39.3538 36.2244 39.0136 36.4966 38.5714 36.5305C38.0952 36.5647 37.483 36.5305 37.0068 36.5305L37.483 38.6055C39.0136 38.6055 40.034 38.6055 41.1905 37.687C41.3945 37.5171 41.4966 37.415 41.6326 37.2109C41.7347 37.0747 41.8027 36.9727 41.8707 36.8367C42.0408 36.5647 42.1769 36.2585 42.2789 35.9863L42.8571 34.0815C43.2993 32.8232 43.6735 31.5986 44.0816 30.3401C44.1497 30.136 45.2721 26.7688 45.2721 26.5986L42.449 26.5986L40.9864 31.8367C40.9183 32.0068 40.7823 32.449 40.7823 32.6191L40.136 31.1226C39.9319 30.6123 39.7279 30.136 39.5238 29.6257L38.6395 27.3469C38.5714 27.2109 38.5374 27.0747 38.5034 26.9729C38.4354 26.8367 38.3673 26.7007 38.3673 26.5986L35.6802 26.5986C35.7483 26.8027 36.0204 27.4829 36.1224 27.7551C36.2925 28.1292 36.4286 28.5034 36.5986 28.9116L39.3538 35.8164ZM46.1905 29.2178L46.1905 35.9185C46.1905 36.8367 46.7007 37.6191 47.415 38.0613C48.7415 38.9116 51.4966 38.9116 52.9252 38.0613C53.2313 37.8572 53.5714 37.551 53.7755 37.2109C54.2857 36.2925 54.1497 35.4082 54.1497 34.2517L51.6326 34.2517C51.6326 35.3401 51.8707 36.7007 50.4762 36.7007C49.6259 36.7007 48.8435 36.6667 48.8435 35.4761L48.8435 29.6599C48.8435 28.7075 49.3538 28.4014 50.3401 28.4014C51.8027 28.4014 51.6326 29.5237 51.6326 30.4421L54.1497 30.4421C54.1497 29.0815 54.2857 27.9932 52.9252 27.1089C52.3469 26.7007 51.7007 26.5986 51.0204 26.4966C50.6802 26.4626 49.7279 26.4285 49.3878 26.4966C48.3673 26.6326 47.415 26.8708 46.7687 27.6531C46.4626 27.9932 46.1905 28.6394 46.1905 29.2178ZM25.8503 38.5715L28.2993 38.5715L28.7415 36.5986C28.7415 36.4966 28.7415 36.3945 28.8776 36.3945L32.0748 36.3945L32.2789 37.449C32.3469 37.823 32.449 38.1973 32.517 38.5715L35.2381 38.5715L34.864 36.9048C34.83 36.7346 34.7619 36.4626 34.7279 36.3264L35.5102 36.3264L35.034 34.2856L34.2857 34.2856L32.7211 27.585C32.6871 27.415 32.6531 27.2449 32.619 27.0747C32.585 26.9729 32.517 26.7346 32.517 26.5986L28.6735 26.5986C28.5374 26.5986 28.5374 26.7688 28.5034 26.9048C28.2653 28.1633 27.8231 29.6938 27.551 31.0205C27.449 31.4966 27.3129 32.0068 27.2109 32.5171L26.0204 37.7891C25.9864 37.8911 25.9524 38.0271 25.9183 38.1633C25.9183 38.2993 25.8503 38.4353 25.8503 38.5715Z" fill="#EF7D00" fill-opacity="1.000000" fill-rule="evenodd"/>
	<path id="Vector" d="M35.6462 12.7549L35.6462 24.6255L38.3673 24.6255L38.3673 22.4827L41.3605 22.4827L41.3605 24.6255L43.9796 24.6255C44.0476 24.6255 44.0816 24.5916 44.0816 24.5237L44.0816 12.7549C44.0816 12.6528 44.0476 12.6528 43.9796 12.6528L41.3605 12.6528L41.3605 20.4419L38.3673 20.4419L38.3673 12.7549C38.3673 12.6528 38.3333 12.6528 38.2313 12.6528L35.7483 12.6528C35.6802 12.6528 35.6462 12.6528 35.6462 12.7549ZM25.6122 24.5916L28.2653 24.5916L28.2653 20.9521C28.2653 20.884 28.5714 20.51 28.6395 20.4419C28.7415 20.3059 29.0136 19.9658 29.0476 19.8638C29.1837 19.9658 29.1497 19.9998 29.2177 20.1357L30.034 21.6323C30.2381 22.0405 31.5986 24.4216 31.6326 24.5916L34.4218 24.5916C34.3878 24.4556 34.0816 23.9114 33.9796 23.7412C33.3673 22.7209 32.7211 21.4963 32.1428 20.4758L30.7143 17.9929C31.3265 17.0747 31.9388 16.2244 32.551 15.3398L33.4354 13.9792C33.6054 13.7412 33.7415 13.5713 33.9116 13.333C34.0476 13.095 34.2177 12.8569 34.3537 12.6528L31.6326 12.6528C31.5986 12.7549 31.3605 13.095 31.2585 13.2651C31.0884 13.4692 30.9524 13.6392 30.8163 13.8433C30.5442 14.2854 30.2721 14.6597 29.9659 15.0679L28.2653 17.5168L28.2653 12.6528L25.6122 12.6528L25.6122 24.5916ZM49.8979 14.8638C49.8979 15.0337 50 15.374 50.034 15.5439C50.1021 15.782 50.17 16.0542 50.204 16.2583C50.3061 16.7344 50.4081 17.2107 50.5442 17.6868L51.1564 20.4758L48.6054 20.4758C49.0136 18.7754 49.3878 16.9045 49.7959 15.2039C49.8299 15.1357 49.8299 15.1357 49.8299 15.0337L49.8979 14.8638ZM45.3401 24.6255L47.7891 24.6255C47.9592 23.9114 48.0952 23.197 48.2653 22.5168L51.5646 22.5168C51.5646 22.7209 51.9728 24.5576 52.0068 24.6255L54.7278 24.6255L54.2177 22.5168L55 22.5168L54.5578 20.4758L53.7755 20.4758L53.0952 17.5168C53.0272 17.2107 52.9592 16.8706 52.8571 16.5303L52.0408 12.823C52.0068 12.7209 52.0408 12.6528 51.9047 12.6528L48.1633 12.6528C48.0272 12.6528 48.0272 12.823 47.9932 12.925L47.3809 15.5779C47.1769 16.5984 46.9387 17.5508 46.7007 18.5713L45.5102 23.8433C45.4421 24.0134 45.3401 24.4216 45.3401 24.6255ZM19.9319 22.7888C19.3537 22.7888 18.7075 22.7549 18.4694 22.1086C18.4354 21.9385 18.4014 21.7686 18.4014 21.5645L18.4014 15.7141C18.4014 15.2378 18.5034 14.9658 18.7755 14.7617C19.2517 14.3535 20.4081 14.3875 20.8503 14.7957C21.1224 15.0337 21.1905 15.408 21.1905 15.884L21.1905 21.4624C21.1905 22.2786 20.8163 22.7888 19.9319 22.7888ZM15.7143 15.8162C15.7143 16.8025 15.6462 21.7344 15.7823 22.3806C16.1564 24.1833 17.8911 24.7617 19.7619 24.7617C20.8503 24.7617 21.9388 24.5237 22.585 24.1155C23.2993 23.6392 23.8435 22.925 23.8435 21.9385L23.8435 15.3059C23.8435 14.8296 23.6735 14.3875 23.4694 14.0474C22.8571 12.9929 21.4626 12.5508 20.17 12.5508C18.8776 12.5508 17.7211 12.5847 16.7347 13.333C15.9183 13.9453 15.7143 14.7617 15.7143 15.8162Z" fill="#FFFFFF" fill-opacity="1.000000" fill-rule="evenodd"/>
</svg>
