<svg width="88.000000" height="80.000000" viewBox="0 0 88 80" fill="none" xmlns="http://www.w3.org/2000/svg" xmlns:xlink="http://www.w3.org/1999/xlink">
	<desc>
			Created with Pixso.
	</desc>
	<defs/>
	<path id="Vector" d="M78.55 -0.18C83.11 -0.18 86.8 3.82 86.8 8.75L86.8 69.88C86.8 74.81 83.11 78.81 78.55 78.81L8.4 78.81C3.85 78.81 0.16 74.81 0.16 69.88L0.16 8.75C0.16 3.82 3.85 -0.18 8.4 -0.18L78.55 -0.18Z" stroke="#EF7F1A" stroke-opacity="1.000000" stroke-width="1.373391"/>
	<path id="Vector" d="M16.97 57.03L20.66 57.03L20.84 58.04C19.7 57.67 18.2 57.9 16.97 57.9L16.97 57.03ZM46.21 23.19L46.17 23.1C46.44 22.01 46.53 21.46 46.99 20.37C47.81 18.18 50.04 15.72 52.27 14.9L51 23.37C51.45 23.55 52 23.6 52.41 23.78C52.77 23.05 54.23 12.35 54.55 11.76C55 10.89 55.6 10.89 56.83 10.89C57.28 10.89 57.78 10.84 58.19 10.98C58.88 11.16 58.47 11.03 58.65 11.25C59.6 12.17 61.06 22.51 61.75 23.87C62.16 23.65 62.7 23.65 63.16 23.46C63.07 22.28 61.61 16.08 61.52 14.9C61.75 14.99 62.66 15.54 62.7 15.58C62.75 15.58 62.79 15.58 62.79 15.63C62.84 15.63 62.84 15.67 62.88 15.67C62.93 15.67 62.93 15.72 62.98 15.72C62.98 15.76 63.02 15.76 63.07 15.81C64.25 16.72 64.75 17.27 65.66 18.59C66.76 20.18 66.98 21 67.39 22.83C67.49 23.37 67.39 23.69 67.62 24.28C68.62 24.28 69.94 24.37 70.17 25.56C70.4 27.02 69.31 26.97 68.49 26.97L45.21 26.97C44.94 26.97 44.57 26.97 44.34 26.92C43.48 26.83 43.21 26.33 43.43 25.42C43.52 24.97 44.03 24.51 44.53 24.46L45.98 24.24C46.3 23.92 46.21 23.87 46.21 23.19ZM21.34 59.45L22.21 59.45C22.39 59.08 22.34 59.22 22.34 58.67L22.34 55.49L21.2 55.49L21.2 52.21C22.43 52.11 22.8 51.75 23.16 51.75C23.25 51.61 23.44 51.52 23.62 51.34C23.85 51.16 24.17 50.84 24.3 50.52C24.39 50.34 24.44 50.16 24.48 50.02L24.48 48.52C27.26 49.88 30.63 50.02 33.41 48.38C33.41 49.2 33.23 50.34 33.78 50.98C33.96 51.2 34.23 51.43 34.41 51.57C34.46 51.61 34.46 51.66 34.51 51.66L34.55 51.66C34.41 52.16 34.37 51.98 34.1 52.48C33.64 53.39 33.41 54.53 33.41 55.62C33.41 57.4 33.41 59.13 33.41 60.86L21.2 60.86L21.34 59.45ZM66.21 54.35L71.36 54.35C71.31 55.08 71.27 55.08 71.45 55.76C70.17 55.39 67.67 55.62 66.21 55.62L66.21 54.35ZM42.2 54.35L47.31 54.35L47.31 55.62L42.39 55.62C42.16 55.08 42.2 54.98 42.2 54.35ZM18.24 53.34L18.24 53.07C18.56 52.89 19.2 52.75 19.66 52.8C19.66 53.71 19.52 54.76 19.79 55.62C19.06 55.44 18.93 55.49 18.24 55.49L18.24 53.34ZM67.76 48.97C68.35 49.25 69.17 49.25 69.76 49.52L69.76 52.8L67.9 52.8C67.49 51.75 67.76 50.11 67.76 48.97ZM47.31 48.65C47.94 48.38 50.81 47.79 51.13 47.38C51.27 47.15 51.31 46.65 51.31 46.51L51.31 46.47L51.31 46.42L51.31 44.01C52.64 44.28 53.18 45.24 57.1 45.28C58.47 45.28 59.19 45.1 60.2 44.78C60.7 44.6 60.97 44.55 61.43 44.33C61.93 44.05 62.25 43.82 62.66 43.82L62.66 46.1C62.66 46.19 62.66 46.28 62.7 46.33C62.7 46.69 62.79 46.97 62.98 47.2C63.11 47.47 63.39 47.65 63.57 47.74C63.66 47.79 63.7 47.83 63.75 47.88C64.11 48.02 64.71 48.15 64.84 48.2C65.34 48.33 65.75 48.43 66.21 48.52L66.21 52.8C64.3 52.8 64.62 52.11 64.62 56.76C64.62 57.49 65.44 57.03 66.21 57.31L66.35 59.31L47.31 59.31L47.31 57.17L48.72 57.17C48.72 51.89 49.22 52.8 47.31 52.8L47.31 48.65ZM43.75 49.52C44.57 49.47 44.98 49.11 45.76 49.11C45.76 50.34 45.57 51.75 45.89 52.93C45.12 52.71 44.57 52.8 43.75 52.8L43.75 49.52ZM21.07 40.13L20.93 36.04L36.56 36.04C36.56 40.18 37.1 43.14 34.14 46.01C31.82 48.29 27.35 48.65 24.94 47.06C23.48 46.1 24.35 46.69 23.3 45.74C23.12 45.56 23.07 45.46 22.89 45.28L21.71 43.46C21.3 42.41 21.07 41.59 21.07 40.13ZM47.31 35.03L47.31 28.79C53.68 28.79 60.01 28.79 66.35 28.79C65.71 31.53 68.76 40.36 59.6 43.37C58.33 43.78 56.28 43.82 54.87 43.6C54.82 43.6 54.64 43.55 54.59 43.55C54.55 43.55 54.5 43.55 54.5 43.51C53.36 43.28 52.41 42.73 51.5 42.23C50.63 41.73 50.95 41.73 50.4 41.36C49.72 40.86 49.99 41.05 49.49 40.41C49.36 40.27 49.31 40.23 49.17 40.04C48.17 38.81 47.31 36.76 47.31 35.03ZM33 24.83C33.91 25.24 34.51 25.88 35.23 26.56C36.69 27.93 37.51 30.2 37.51 32.3C39.65 32.3 39.65 32.44 39.65 33.89C38.56 34.67 35.64 34.35 34.1 34.35C31.86 34.35 24.48 34.44 20.89 34.4L18.79 34.4C18.24 34.4 17.83 33.94 17.83 33.44C17.83 33.17 17.92 32.94 18.06 32.8L18.06 32.76L18.11 32.76C18.24 32.57 18.52 32.48 18.74 32.48L18.79 32.44C18.97 32.35 19.2 32.25 19.43 32.12C19.66 31.98 19.79 31.8 19.93 31.62C20.02 31.43 20.11 31.25 20.2 31.07C20.25 30.93 20.29 30.8 20.38 30.57C20.38 30.39 20.43 30.25 20.48 30.07C20.79 28.97 21.11 28.2 21.8 27.29C22.98 25.74 23.3 25.65 24.76 24.69C24.71 25.69 23.71 30.61 23.71 31.62C24.26 31.66 24.58 31.84 25.12 31.89L26.67 23.51C27.31 21 27.08 21.28 30 21.28C30.45 21.91 30.54 21.64 30.77 22.64C31.04 23.69 32.5 31.57 32.55 32.21C33.14 32.16 33.41 31.94 34.1 31.94C33.91 31.16 33 25.69 33 24.83ZM52.73 13.03C49.72 13.76 46.9 16.77 45.62 19.59C45.39 20.05 45.21 20.73 45.03 21.28C44.85 21.82 44.75 22.51 44.62 23.1C42.16 23.1 40.97 26.15 42.71 27.79C43.57 28.61 44.34 28.52 45.76 28.52C45.76 33.62 45.12 37.9 48.49 41.68C48.76 41.96 49.31 42.55 49.72 42.69L49.72 46.38L45.39 47.56C45.3 47.56 44.75 47.7 44.48 47.79C42.07 48.38 39.61 48.97 37.33 49.7C36.69 49.93 36.37 50.2 35.83 50.52C35.55 50.38 35.33 50.29 34.96 50.25L34.96 47.24C35.74 46.74 36.65 45.51 37.1 44.55C38.42 41.82 38.1 38.86 38.1 35.76C39.02 35.76 39.88 35.76 40.56 35.12C41.98 33.76 41.07 31.12 38.92 31.07C38.92 29.61 38.24 28.15 37.51 27.02L36.56 25.65C36.19 25.15 35.64 24.78 35.14 24.37C34.55 23.83 33.78 23.46 33.05 23.1C33 23.1 32.96 23.05 32.91 23.05C31.54 22.32 32.46 19.73 29.31 19.73C27.86 19.73 27.22 19.64 26.4 20.37C25.76 20.96 25.35 21.73 25.3 22.83C23.71 23.19 21.89 24.74 20.98 25.83C19.79 27.24 19.25 28.79 18.79 30.52C18.7 30.98 18.7 30.93 18.29 31.12C17.2 31.48 16.38 32.12 16.38 33.48C16.38 33.99 16.47 34.17 16.65 34.49C17.51 36.08 18.11 35.35 19.52 35.9C19.52 39.5 19.15 42.73 21.11 45.51L22.39 47.06C22.43 47.1 22.43 47.1 22.48 47.15L22.89 47.51L22.89 50.25L18.74 51.3C17.88 51.57 17.56 51.61 16.6 51.89C14.01 52.52 10.77 52.93 9.77 55.85C9.13 57.81 9.41 76.21 9.41 78.58L11 78.58L11 57.76C11 56.99 11.14 56.4 11.5 55.85C12.23 54.67 13.32 54.3 14.6 54.03C15.24 53.85 16.06 53.44 16.65 53.62L16.65 55.49L15.37 55.49C15.37 59.54 14.83 59.45 16.79 59.45C16.6 60.04 16.65 60.22 16.65 60.86L14.83 60.86L14.83 78.58L16.38 78.58L16.38 62.27L18.24 62.27L18.24 59.45L19.66 59.45L19.66 62.27C21.61 62.27 32.46 62.05 33.41 62.46C33.41 63.18 33.41 63.96 33.41 64.73C33.41 66.14 33.37 74.94 33.91 78.44C34.14 79.99 34.41 78.26 34.96 78.26L34.96 55.49C34.96 51.48 38.42 50.84 41.57 50.16L42.2 50.07C42.2 51.02 42.11 52.02 42.34 52.93C41.66 52.75 41.52 52.8 40.79 52.8L40.79 57.17L42.2 57.17C42.2 59.95 42.75 59.31 39.93 59.31L39.93 76.71C39.93 78.54 39.97 78.26 41.52 78.26L41.52 60.86C44.48 60.86 43.75 61.5 43.75 57.17L45.76 57.17C45.76 59.36 45.44 60.86 46.17 60.86L67.35 60.86C68.08 60.86 67.76 59.22 67.76 57.17C68.44 57.17 69.17 57.08 69.76 57.31L69.76 60.86L72.04 60.86L72.04 77.99C72.04 78.49 73.27 78.26 73.59 78.26L73.59 60.45C73.59 59.77 73.5 59.86 73.45 59.31L71.31 59.31L71.31 57.17L72.72 57.17L72.72 52.8L71.45 52.8C71.13 52.02 71.31 50.84 71.31 49.93C72.36 50.02 74 50.66 75.05 50.89L76.28 51.39C77.78 52.16 78.55 53.71 78.55 55.49L78.55 78.26C79.01 78.26 80.1 78.54 80.1 77.85L80.1 55.62C80.1 54.44 79.92 53.62 79.51 52.71C79.47 52.66 79.42 52.57 79.42 52.52C78.83 51.34 77.73 50.38 76.6 49.79C75.23 49.15 73.18 48.88 71.68 48.43L64.21 46.38L64.21 42.41C64.66 42.18 64.66 42.28 65.03 41.82C65.16 41.59 65.12 41.64 65.3 41.41C68.58 37.68 67.9 33.3 67.9 28.52C68.99 28.52 70.13 28.66 70.99 27.79C71.95 26.79 72.09 24.6 70.86 23.74C70.54 23.51 70.31 23.37 70.04 23.28C69.54 23.14 69.03 23.24 68.9 22.69C68.9 22.55 68.85 22.37 68.85 22.19L68.35 20.41C68.21 20 68.17 19.96 67.99 19.64C67.85 19.27 67.85 19.14 67.67 18.82L67.49 18.59C66.48 16.99 65.39 15.67 63.89 14.53L63.61 14.35C63.34 14.17 63.57 14.31 63.25 14.12C62.98 13.94 62.84 13.9 62.57 13.71C61.97 13.35 61.56 13.17 60.93 13.03C60.93 11.71 60.38 10.71 59.51 9.98C59.47 9.98 59.42 9.93 59.42 9.89C58.37 9.11 56.78 9.34 55.55 9.34C53.87 9.34 52.73 11.53 52.73 13.03Z" fill="#EF7F1A" fill-opacity="1.000000" fill-rule="evenodd"/>
	<path id="Vector" d="M33.82 65.51L33.82 78.85L25.67 78.85C24.3 78.85 23.21 77.72 23.21 76.39L23.21 67.92C23.21 66.6 24.3 65.51 25.67 65.51L33.82 65.51Z" stroke="#EF7F1A" stroke-opacity="1.000000" stroke-width="0.686695" stroke-linejoin="round"/>
	<path id="Vector" d="M63.2 65.51C65.19 65.51 66.8 66.59 66.8 67.92L66.8 76.44C66.8 77.77 65.19 78.85 63.2 78.85L50.86 78.85C48.87 78.85 47.26 77.77 47.26 76.44L47.26 67.92C47.26 66.59 48.87 65.51 50.86 65.51L63.2 65.51Z" stroke="#EF7F1A" stroke-opacity="1.000000" stroke-width="0.686695" stroke-linejoin="round"/>
	<path id="Vector" d="M18.7 31.89L37.97 " stroke="#EF7F1A" stroke-opacity="1.000000" stroke-width="0.686695" stroke-linejoin="round" stroke-linecap="round"/>
	<path id="Vector" d="M45.53 23.78L68.49 " stroke="#EF7F1A" stroke-opacity="1.000000" stroke-width="0.686695"/>
	<path id="Vector" d="M22.98 51.34C23.85 52.43 24.71 53.53 25.67 54.39C26.67 55.26 27.81 55.85 28.9 55.9C30.04 55.9 31.18 55.35 32.09 54.53C33 53.71 33.69 52.62 34.41 " stroke="#EF7F1A" stroke-opacity="1.000000" stroke-width="0.686695" stroke-linejoin="round" stroke-linecap="round"/>
	<path id="Vector" d="M50.54 47.1C51.5 48.47 52.5 49.84 53.64 50.89C54.78 51.93 56.05 52.71 57.33 52.75C58.65 52.75 59.92 52.07 60.97 51.02C62.02 50.02 62.84 48.7 63.61 " stroke="#EF7F1A" stroke-opacity="1.000000" stroke-width="0.686695" stroke-linejoin="round" stroke-linecap="round"/>
</svg>
