<svg width="114.000000" height="80.000000" viewBox="0 0 114 80" fill="none" xmlns="http://www.w3.org/2000/svg" xmlns:xlink="http://www.w3.org/1999/xlink">
	<desc>
			Created with Pixso.
	</desc>
	<defs/>
	<path id="Vector" d="M23.18 -0.73L108.18 -0.73C108.91 -0.73 109.5 -0.27 109.5 0.32L109.5 71.56C109.5 72.16 108.91 72.61 108.18 72.61L23.18 72.61C22.45 72.61 21.86 72.16 21.86 71.56L21.86 60.22L24.5 60.22L24.5 70.56L106.86 70.56L106.86 1.37L24.5 1.37L24.5 38.72L21.86 38.72L21.86 0.32C21.86 -0.27 22.45 -0.73 23.18 -0.73Z" fill="#EF7F1A" fill-opacity="1.000000" fill-rule="nonzero"/>
	<path id="Vector" d="M59.21 7.61L59.21 64.32L29.7 64.32L29.7 60.22L43.27 60.22C45.68 60.22 47.64 58.22 47.64 55.8L47.64 43.14C47.64 40.73 45.68 38.72 43.27 38.72L29.7 38.72L29.7 7.61L59.21 7.61Z" stroke="#EF7F1A" stroke-opacity="1.000000" stroke-width="0.686695" stroke-linejoin="round"/>
	<path id="Vector" d="M102.08 5.92L102.08 65.96L61.86 65.96L61.86 5.92L102.08 5.92ZM99.25 8.7L99.25 63.23L64.63 63.23L64.63 35.67L63.81 35.67C63.22 35.67 62.77 35.21 62.77 34.67C62.77 34.12 63.22 33.67 63.81 33.67L64.63 33.67L64.63 8.7L99.25 8.7Z" stroke="#EF7F1A" stroke-opacity="1.000000" stroke-width="0.686695" stroke-linejoin="round"/>
	<path id="Vector" d="M112.6 71.93L112.6 78.72L18.49 78.72L18.49 71.93L112.6 71.93Z" stroke="#EF7F1A" stroke-opacity="1.000000" stroke-width="1.373391" stroke-linejoin="round"/>
	<path id="Vector" d="M68.6 33.67C69.15 33.67 69.6 34.11 69.6 34.67C69.6 35.22 69.15 35.67 68.6 35.67L63.86 35.67C63.31 35.67 62.86 35.22 62.86 34.67C62.86 34.11 63.31 33.67 63.86 33.67L68.6 33.67Z" stroke="#EF7F1A" stroke-opacity="1.000000" stroke-width="0.686695" stroke-linejoin="round"/>
	<path id="Vector" d="M43.27 38.72C45.68 38.72 47.64 40.73 47.64 43.14L47.64 55.8C47.64 58.22 45.68 60.22 43.27 60.22L11.29 60.22C9.29 60.22 7.56 58.81 7.06 56.94C3.28 56.58 0.31 53.44 0.31 49.61C0.31 45.78 3.23 42.64 7.01 42.23C7.42 40.27 9.2 38.72 11.29 38.72L43.27 38.72Z" stroke="#EF7F1A" stroke-opacity="1.000000" stroke-width="1.373391"/>
	<path id="Vector" d="M7.06 52.02C5.57 52.02 4.37 50.82 4.37 49.34C4.37 47.85 5.57 46.65 7.06 46.65C8.54 46.65 9.74 47.85 9.74 49.34C9.74 50.82 8.54 52.02 7.06 52.02Z" stroke="#EF7F1A" stroke-opacity="1.000000" stroke-width="0.686695"/>
	<path id="Vector" d="M34.93 48.38L34.93 56.08L31.02 56.08L31.02 48.38L34.93 48.38Z" stroke="#EF7F1A" stroke-opacity="1.000000" stroke-width="0.686695"/>
	<path id="Vector" d="M31.02 49.2C30.11 48.47 29.19 47.79 28.65 47.19C28.06 46.6 27.87 46.1 27.69 45.6C27.51 45.1 27.33 44.6 27.24 44.14C27.14 43.64 27.14 43.23 27.05 42.96C27.01 42.68 26.92 42.55 26.73 42.46C26.55 42.41 26.23 42.46 26.01 42.46C25.78 42.5 25.6 42.59 25.41 42.87C25.28 43.09 25.14 43.55 25.09 44.1C25.05 44.69 25.05 45.37 25.09 46.01C25.19 46.65 25.28 47.24 25.41 47.6C25.6 48.01 25.78 48.2 25.82 48.29C25.87 48.38 25.73 48.38 24.91 48.38C24.09 48.38 22.54 48.38 21.68 48.42C20.86 48.42 20.77 48.52 20.63 48.65C20.49 48.83 20.31 49.06 20.27 49.29C20.18 49.52 20.18 49.75 20.31 49.97C20.45 50.25 20.72 50.47 20.81 50.61C20.9 50.75 20.86 50.75 20.81 50.84C20.72 50.88 20.68 51.02 20.63 51.2C20.59 51.43 20.63 51.66 20.72 51.89C20.81 52.07 21 52.3 21.13 52.39C21.31 52.52 21.41 52.57 21.41 52.62C21.41 52.66 21.36 52.71 21.31 52.8C21.22 52.93 21.13 53.16 21.13 53.44C21.13 53.71 21.27 53.98 21.45 54.16C21.68 54.39 21.95 54.53 22.09 54.62C22.23 54.71 22.18 54.71 22.13 54.8C22.04 54.89 22 54.98 22.04 55.21C22.04 55.39 22.18 55.67 22.36 55.9C22.54 56.08 22.77 56.21 23.82 56.3C24.87 56.35 26.73 56.3 28.06 56.08C29.38 55.9 30.2 55.49 31.02 " stroke="#EF7F1A" stroke-opacity="1.000000" stroke-width="0.686695"/>
	<path id="Vector" d="M8.01 51.84C8.1 51.07 8.24 50.25 7.6 49.84C7.01 49.43 5.69 49.38 4.37 50.34C3 51.29 1.64 53.21 1.45 55.35C1.27 57.49 2.27 59.86 4.23 61.54C6.19 63.23 9.15 64.28 11.52 65.19C13.93 66.1 15.85 66.87 16.94 67.97C17.99 69.06 18.26 70.52 18.49 " stroke="#EF7F1A" stroke-opacity="1.000000" stroke-width="0.686695"/>
	<path id="Vector" d="M11.29 60.22C12.66 61.86 13.98 63.55 15.21 64.78C16.39 66.05 17.49 66.92 18.03 68.01C18.54 69.15 18.54 70.56 18.49 " stroke="#EF7F1A" stroke-opacity="1.000000" stroke-width="0.686695"/>
</svg>
