<svg width="84.000000" height="95.000000" viewBox="0 0 84 95" fill="none" xmlns="http://www.w3.org/2000/svg" xmlns:xlink="http://www.w3.org/1999/xlink">
	<desc>
			Created with Pixso.
	</desc>
	<defs/>
	<path id="Vector" d="M17.13 6.33L17.13 10.43L49.33 10.43L49.33 6.33L66.73 6.33L66.73 56.16C65.87 56.02 64.96 55.98 64.05 55.98C62.36 55.98 60.67 56.21 59.13 56.62L59.13 15.76L16.58 15.76L8.29 22.77L8.29 74.56L45.14 74.56C45.14 74.7 45.14 74.79 45.14 74.88C45.14 77.62 45.69 80.21 46.74 82.58L0.23 82.58L0.23 6.33L17.13 6.33Z" stroke="#EF7F1A" stroke-opacity="1.000000" stroke-width="1.373391" stroke-linejoin="round"/>
	<path id="Vector" d="M26.92 2.5L26.92 3.82L38.67 3.82L38.67 2.5L49.33 2.5L49.33 10.43L17.13 10.43L17.13 2.5L26.92 2.5Z" stroke="#EF7F1A" stroke-opacity="1.000000" stroke-width="1.373391" stroke-linejoin="round"/>
	<path id="Vector" d="M38.67 0L38.67 3.82L26.92 3.82L26.92 0L38.67 0Z" stroke="#EF7F1A" stroke-opacity="1.000000" stroke-width="1.373391" stroke-linejoin="round"/>
	<path id="Vector" d="M59.13 15.76L59.13 56.62C51.15 58.76 45.28 66 45.14 74.56L8.29 74.56L8.29 22.77L16.58 15.76L59.13 15.76Z" stroke="#EF7F1A" stroke-opacity="1.000000" stroke-width="1.373391" stroke-linejoin="round"/>
	<path id="Vector" d="M8.29 22.86L16.58 22.73L16.58 15.76L8.29 22.86Z" stroke="#EF7F1A" stroke-opacity="1.000000" stroke-width="0.686695" stroke-linejoin="round"/>
	<path id="Vector" d="M17.72 31.65L49.29 " stroke="#EF7F1A" stroke-opacity="1.000000" stroke-width="0.686695" stroke-linejoin="round" stroke-linecap="round"/>
	<path id="Vector" d="M18.04 35.89L37.44 " stroke="#EF7F1A" stroke-opacity="1.000000" stroke-width="0.686695" stroke-linejoin="round" stroke-linecap="round"/>
	<path id="Vector" d="M17.72 45.05L49.29 " stroke="#EF7F1A" stroke-opacity="1.000000" stroke-width="0.686695" stroke-linejoin="round" stroke-linecap="round"/>
	<path id="Vector" d="M18.04 49.33L37.44 " stroke="#EF7F1A" stroke-opacity="1.000000" stroke-width="0.686695" stroke-linejoin="round" stroke-linecap="round"/>
	<path id="Vector" d="M17.72 57.3L45.46 " stroke="#EF7F1A" stroke-opacity="1.000000" stroke-width="0.686695" stroke-linejoin="round" stroke-linecap="round"/>
	<path id="Vector" d="M18.04 61.58L37.44 " stroke="#EF7F1A" stroke-opacity="1.000000" stroke-width="0.686695" stroke-linejoin="round" stroke-linecap="round"/>
	<path id="Vector" d="M64.05 93.83C53.58 93.83 45.1 85.35 45.1 74.88C45.1 64.42 53.58 55.93 64.05 55.93C74.51 55.93 83 64.42 83 74.88C83 85.35 74.51 93.83 64.05 93.83Z" stroke="#EF7F1A" stroke-opacity="1.000000" stroke-width="1.373391"/>
	<path id="Vector" d="M62.31 84.68C62.36 84.68 62.36 84.68 62.41 84.63L62.45 84.63L62.5 84.63C62.68 84.63 63 84.27 63.18 84.04L63.27 83.95L63.41 83.86C63.59 83.67 63.95 83.31 63.95 83.13L63.95 83.08C64 83.04 64 83.04 64 83.04C64 82.99 64 82.95 64 82.9L63.86 82.67C63.86 82.63 63.86 82.58 63.86 82.58C63.82 82.54 63.82 82.54 63.77 82.49C63.73 82.44 63.68 82.44 63.59 82.4L63.54 82.4C63.45 82.35 63.32 82.31 63.27 82.31C63.18 82.31 63.13 82.35 63.09 82.4C63.09 82.44 62.86 82.63 62.82 82.72C62.77 82.72 62.72 82.76 62.68 82.81C62.63 82.85 62.59 82.9 62.59 82.95L62.27 83.22C62.22 83.26 62.18 83.31 62.13 83.31C62.09 83.36 62.09 83.4 62.04 83.45L62.04 83.49C61.95 83.58 61.81 83.72 61.72 83.76C61.68 83.81 61.68 83.81 61.68 83.9C61.68 83.99 61.68 84.04 61.68 84.08L61.72 84.17C61.72 84.27 61.77 84.36 61.81 84.45C61.86 84.49 61.9 84.54 62 84.54L62.13 84.63C62.18 84.63 62.22 84.68 62.31 84.68ZM54.98 68.64L56.94 70.01C57.26 70.24 57.49 70.55 57.53 70.92C57.58 71.15 57.53 71.37 57.49 71.6C57.53 71.6 57.58 71.65 57.67 71.65L57.8 71.69C57.85 71.74 57.9 71.74 57.94 71.74C58.03 71.78 58.12 71.78 58.17 71.78L58.26 71.83L58.76 71.88L58.85 71.88C59.03 71.92 59.26 71.92 59.31 71.88L59.35 71.83L59.4 71.83C59.44 71.88 59.54 71.83 59.63 71.83C59.72 71.83 59.81 71.78 59.85 71.78L59.9 71.74C59.99 71.74 60.08 71.69 60.17 71.69C60.26 71.65 60.31 71.6 60.36 71.6L60.4 71.56L60.45 71.56C60.49 71.56 60.58 71.51 60.67 71.47C60.77 71.47 60.81 71.42 60.86 71.42C60.95 71.37 61.04 71.37 61.13 71.33C61.27 71.33 61.36 71.28 61.45 71.28C61.49 71.28 61.54 71.28 61.54 71.28L61.59 71.24L62.45 71.28L62.5 71.28C62.54 71.37 62.72 71.37 62.86 71.42C62.91 71.42 63 71.42 63.04 71.42C63.13 71.47 63.23 71.51 63.32 71.56C63.41 71.56 63.5 71.6 63.59 71.6L63.64 71.65C63.68 71.65 63.77 71.69 63.86 71.74C63.95 71.78 64 71.78 64.05 71.83L64.55 71.65C64.87 71.47 65.28 71.37 65.69 71.28C65.73 71.28 65.73 71.28 65.78 71.28C65.87 71.28 65.91 71.28 65.96 71.28L65.96 71.24L66.64 71.24L66.64 71.28C66.69 71.28 66.73 71.28 66.82 71.33C67.01 71.33 67.23 71.37 67.28 71.42L67.33 71.42C67.42 71.47 67.69 71.56 67.96 71.65C68.15 71.69 68.28 71.74 68.28 71.74L68.33 71.74L68.37 71.78C68.42 71.78 68.42 71.78 68.42 71.78L68.46 71.83L68.51 71.83C68.56 71.83 68.65 71.83 68.69 71.88L68.74 71.88L69.37 71.88L69.47 71.88C69.6 71.88 69.88 71.88 69.97 71.78L70.01 71.78L70.06 71.78C70.1 71.78 70.19 71.78 70.24 71.78C70.33 71.74 70.42 71.69 70.51 71.65C70.65 71.65 70.74 71.56 70.88 71.51C70.83 71.33 70.83 71.15 70.88 70.96C70.92 70.65 71.11 70.33 71.42 70.1L73.43 68.73C73.75 68.51 74.11 68.41 74.43 68.51C74.8 68.55 75.11 68.73 75.34 69.05L78.62 73.74C78.85 74.06 78.9 74.43 78.85 74.79C78.8 75.11 78.58 75.43 78.3 75.66L76.3 77.07C75.98 77.25 75.62 77.34 75.3 77.3C75.11 77.25 74.98 77.21 74.84 77.11L73.79 77.93C73.47 78.3 72.79 78.75 72.43 79.03L72.56 79.26C72.7 79.39 72.84 79.62 72.93 79.8C72.97 79.89 73.02 79.98 73.06 80.08C73.06 80.17 73.11 80.3 73.11 80.39C73.11 80.58 73.11 80.71 73.06 80.8C73.06 80.9 73.06 80.99 73.06 81.03L73.06 81.08L73.02 81.12C73.02 81.12 72.97 81.17 72.93 81.26C72.75 81.53 72.34 82.17 71.2 81.99L71.2 82.13C71.15 82.31 71.11 82.49 71.01 82.63C70.92 82.76 70.79 82.9 70.65 82.99C70.33 83.22 70.19 83.22 69.97 83.26C69.88 83.26 69.79 83.26 69.6 83.26L69.6 83.31C69.56 83.26 69.47 83.22 69.42 83.22C69.37 83.31 69.37 83.4 69.37 83.45C69.33 83.63 69.28 83.76 69.1 83.99C68.97 84.22 68.74 84.31 68.6 84.4C68.51 84.45 68.46 84.45 68.46 84.49L68.42 84.54C68.33 84.54 68.19 84.54 68.1 84.54C67.78 84.58 67.64 84.54 67.42 84.45L67.33 84.45C67.28 84.54 67.23 84.68 67.19 84.77C67.14 84.9 67.05 84.99 66.96 85.09C66.82 85.22 66.64 85.27 66.46 85.36L66.28 85.45L65.69 85.54L65.69 85.5C65.64 85.5 65.59 85.45 65.5 85.45C65.46 85.45 65.41 85.45 65.37 85.4C65 85.27 64.87 85.13 64.77 84.99C64.73 84.95 64.73 84.9 64.64 84.9L64.64 84.86L64.55 84.77L64.5 84.77C64.5 84.68 64.32 84.54 64.23 84.45L64.14 84.36L64.09 84.36C64.09 84.36 64.05 84.4 63.95 84.49C63.82 84.63 63.68 84.77 63.64 84.81L63.64 84.86L63.59 84.86C63.54 84.86 63.54 84.86 63.54 84.9L63.5 84.95C63.23 85.27 62.91 85.4 62.59 85.5C62.36 85.54 62.13 85.5 61.9 85.45C61.68 85.4 61.49 85.27 61.31 85.13C61.08 84.95 60.95 84.72 60.86 84.45C60.72 84.49 60.58 84.54 60.4 84.54C60.31 84.54 59.85 84.49 59.81 84.49C59.54 84.36 59.26 84.22 59.08 83.99C58.94 83.81 58.81 83.54 58.76 83.22C58.58 83.26 58.4 83.26 58.21 83.31L58.17 83.26C58.12 83.22 58.08 83.22 57.99 83.17C57.8 83.13 57.58 83.04 57.35 82.81C57.26 82.72 57.17 82.54 57.08 82.35C57.03 82.22 56.98 82.08 56.98 81.94C56.62 81.99 56.53 81.99 56.12 81.9L56.07 81.9C55.8 81.76 55.62 81.72 55.53 81.58C55.39 81.44 55.3 81.31 55.16 81.03C55.16 80.99 55.16 80.99 55.12 80.94C55.07 80.62 55.03 80.49 55.12 80.12C55.21 79.85 55.3 79.71 55.39 79.57L55.48 79.39L55.62 79.3L55.85 79.12L55.85 79.07C55.76 79.03 55.62 78.89 55.48 78.8C55.3 78.66 55.16 78.53 55.03 78.44L54.8 78.34L54.89 78.3L54.75 78.21C54.66 78.12 54.62 78.07 54.53 78.07L54.48 78.03L54.48 77.98L54.43 77.93C54.39 77.93 54.39 77.93 54.34 77.89L54.3 77.84L54.21 77.75L54.12 77.66L53.98 77.62L53.93 77.57C53.93 77.48 53.71 77.34 53.52 77.21L53.39 77.11C53.3 77.16 53.2 77.16 53.11 77.21C52.79 77.25 52.43 77.21 52.11 76.98L50.11 75.57C49.79 75.34 49.61 75.02 49.56 74.7C49.47 74.34 49.56 73.97 49.79 73.65L53.07 68.96C53.3 68.64 53.61 68.46 53.93 68.41C54.3 68.32 54.66 68.41 54.98 68.64ZM57.03 72.29L54.07 76.57C54.16 76.66 54.34 76.84 54.48 76.93L54.53 76.98C54.66 77.02 54.71 77.11 54.8 77.16C54.89 77.25 54.98 77.34 55.07 77.39C55.44 77.66 55.85 77.98 56.17 78.25C56.26 78.3 56.35 78.44 56.48 78.48C56.53 78.39 56.58 78.39 56.62 78.3C56.67 78.25 56.71 78.25 56.8 78.21C56.85 78.16 56.89 78.12 56.94 78.12C57.03 78.07 57.08 78.03 57.17 78.03C57.21 78.03 57.3 77.98 57.39 77.98C57.76 77.93 57.94 77.98 58.21 78.12C58.31 78.12 58.31 78.12 58.4 78.16C58.53 78.3 58.62 78.34 58.72 78.44C58.76 78.48 58.81 78.57 58.9 78.75L58.99 78.89L59.03 79.16L59.13 79.12C59.26 78.98 59.4 78.85 59.58 78.75C59.63 78.75 59.63 78.75 59.67 78.71L59.85 78.62L60.4 78.57C60.58 78.66 60.81 78.71 60.99 78.8L60.99 78.85L61.08 78.85L61.54 79.39L61.54 79.48L61.63 79.8L61.77 79.8C61.86 79.8 62 79.76 62.18 79.76C62.31 79.76 62.41 79.8 62.54 79.8C62.59 79.85 62.63 79.89 62.68 79.89C62.82 79.94 63 80.03 63.18 80.21C63.23 80.26 63.23 80.26 63.23 80.3C63.27 80.35 63.27 80.35 63.32 80.39L63.36 80.44C63.59 81.03 63.59 81.08 63.54 81.26C63.54 81.31 63.54 81.35 63.54 81.49C63.68 81.53 63.82 81.58 63.95 81.62C64.09 81.67 64.23 81.76 64.32 81.85C64.46 81.94 64.55 82.03 64.59 82.17C64.68 82.26 64.73 82.44 64.82 82.58C64.82 82.63 64.82 82.67 64.82 82.72L64.87 82.76L64.87 82.81C64.87 82.9 64.87 82.95 64.82 83.04C64.82 83.13 64.82 83.22 64.77 83.36C64.77 83.45 64.73 83.54 64.68 83.58L64.64 83.72L64.73 83.72L64.73 83.76C64.82 83.9 64.91 83.99 65.05 84.13L65.18 84.22L65.28 84.31C65.41 84.45 65.55 84.58 65.73 84.63C65.82 84.68 65.91 84.68 66 84.68C66.05 84.63 66.14 84.63 66.14 84.58L66.19 84.58L66.19 84.54C66.28 84.54 66.32 84.49 66.37 84.45C66.41 84.4 66.46 84.31 66.51 84.22C66.55 84.08 66.55 83.95 66.55 83.86C66.55 83.81 66.51 83.72 66.46 83.67L66.41 83.63C66.32 83.54 66.28 83.54 66.23 83.45C66.19 83.4 66.19 83.4 66.14 83.36C66.14 83.31 66.1 83.26 66.1 83.26L66.05 83.26L66 83.22C65.96 83.17 65.96 83.13 65.91 83.13L65.87 83.08C65.82 83.04 65.82 82.99 65.78 82.95L65.69 82.9L65.69 82.85L65.64 82.81C65.64 82.76 65.59 82.76 65.59 82.76L65.5 82.72L65.5 82.67C65.46 82.63 65.46 82.63 65.41 82.58L65.37 82.54L65.32 82.44C65.32 82.4 65.32 82.4 65.28 82.35L65.23 82.31L65.23 82.26C65.28 82.13 65.28 81.99 65.37 81.9C65.46 81.81 65.59 81.81 65.78 81.81L65.82 81.81C66.05 81.99 66.1 82.03 66.14 82.08C66.14 82.13 66.19 82.17 66.28 82.26C66.32 82.31 66.32 82.35 66.37 82.35C66.41 82.4 66.46 82.44 66.51 82.49L67.19 83.22C67.23 83.31 67.28 83.36 67.33 83.4C67.46 83.54 67.55 83.58 67.64 83.63L67.69 83.67C67.74 83.67 67.83 83.72 67.92 83.72C68.05 83.72 68.19 83.67 68.28 83.63L68.33 83.58C68.51 83.49 68.56 83.31 68.6 83.13C68.6 82.95 68.56 82.72 68.51 82.58L68.46 82.49C68.42 82.44 68.28 82.31 68.19 82.17C68.1 82.13 68.05 82.08 68.05 82.08L68.01 82.08L67.96 81.99C67.96 81.94 67.96 81.94 67.92 81.9L67.83 81.85L67.74 81.81L67.74 81.76C67.74 81.72 67.74 81.67 67.69 81.67C67.64 81.62 67.6 81.58 67.55 81.53C67.51 81.49 67.51 81.49 67.46 81.44L67.42 81.4L67.37 81.31C67.33 81.26 67.33 81.26 67.28 81.21L67.23 81.21L67.23 81.17C67.23 81.12 67.19 81.12 67.19 81.12C67.19 81.08 67.14 81.08 67.1 81.03C67.01 80.94 66.96 80.85 66.96 80.76C66.96 80.67 67.01 80.58 67.05 80.49L67.05 80.44L67.1 80.39C67.14 80.39 67.19 80.35 67.23 80.3L67.28 80.3C67.6 80.26 67.64 80.35 67.78 80.53C67.87 80.62 67.92 80.67 67.96 80.71C68.01 80.76 68.01 80.76 68.1 80.8C68.15 80.9 68.19 80.94 68.19 80.99C68.24 81.03 68.28 81.08 68.33 81.17C68.46 81.21 68.65 81.44 68.87 81.67C69.15 81.99 69.42 82.31 69.51 82.35C69.56 82.4 69.6 82.4 69.6 82.4C69.65 82.44 69.69 82.44 69.74 82.44C69.88 82.44 69.88 82.44 69.92 82.4L69.97 82.4C70.06 82.4 70.15 82.35 70.19 82.31C70.24 82.22 70.29 82.17 70.29 82.13L70.29 82.08L70.33 82.03C70.38 81.99 70.42 81.99 70.47 81.99C70.47 81.99 70.38 81.99 70.38 81.94L70.38 81.9L70.38 81.85C70.38 81.76 70.38 81.72 70.38 81.72C70.33 81.67 70.33 81.62 70.29 81.62L70.29 81.58L70.29 81.53C70.24 81.44 70.1 81.31 70.01 81.21C69.97 81.17 69.88 81.12 69.88 81.03L68.92 79.98C68.87 79.94 68.83 79.89 68.78 79.85C68.65 79.71 68.51 79.57 68.46 79.3L68.46 79.26C68.51 79.16 68.56 79.07 68.6 79.03C68.69 78.98 68.74 78.94 68.87 78.94L68.92 78.94C69.15 78.94 69.19 79.03 69.33 79.21C69.38 79.26 69.47 79.35 69.56 79.44C69.6 79.48 69.65 79.53 69.69 79.57L69.74 79.62L70.79 80.8C70.97 80.99 71.2 81.21 71.65 81.17C71.7 81.17 71.83 81.12 71.93 81.08C71.97 81.08 72.02 81.03 72.02 81.03L72.02 80.99L72.06 80.94C72.15 80.94 72.15 80.9 72.2 80.85C72.24 80.8 72.24 80.71 72.24 80.62C72.29 80.53 72.29 80.39 72.24 80.3C72.2 80.21 72.15 80.08 72.11 80.03C72.02 79.89 71.93 79.8 71.83 79.71L71.65 79.48L71.24 78.94C71.11 78.8 70.97 78.62 70.83 78.44L70.51 77.98L70.47 77.98L70.42 77.98L70.38 77.89C70.33 77.75 70.24 77.62 70.1 77.48C69.69 76.98 68.97 76.2 68.69 75.75C68.69 75.7 68.6 75.61 68.51 75.47C68.46 75.43 68.42 75.34 68.37 75.34C68.33 75.29 68.1 75.29 67.92 75.29L67.74 75.29L67.37 75.29C66.92 75.29 66.32 75.25 66.19 75.29L66.14 75.34L66.14 75.38C66.05 75.47 65.82 75.75 65.73 75.79C65.64 75.84 65.59 75.88 65.55 75.98L65.5 76.02L65.32 76.2C65.28 76.2 65.28 76.25 65.28 76.29L65.23 76.34L65.18 76.34C65.14 76.39 65.09 76.43 65 76.48C64.96 76.52 64.96 76.52 64.91 76.57L64.91 76.61C64.77 76.66 64.32 77.11 64.09 77.25C63.91 77.39 63.68 77.57 63.64 77.62L63.64 77.66L63.59 77.66C63.54 77.66 63.41 77.71 63.27 77.8C63.23 77.84 63.18 77.84 63.13 77.89C63 77.93 62.86 77.98 62.72 78.03C62.59 78.07 62.59 78.07 62.45 78.12C62.31 78.12 62.22 78.12 62.18 78.16L62.13 78.16C61.63 78.16 61.54 78.16 61.13 78.03C61.04 78.03 60.95 77.98 60.86 77.93C60.77 77.89 60.72 77.84 60.63 77.8C60.54 77.75 60.49 77.71 60.45 77.66C60.4 77.62 60.36 77.57 60.31 77.52C60.22 77.48 60.17 77.39 60.13 77.39L60.08 77.39L59.85 76.93L59.85 76.89C59.85 76.61 59.95 76.52 60.04 76.43C60.08 76.39 60.08 76.34 60.13 76.34L60.13 76.29L60.17 76.2L60.22 76.2C60.26 76.16 60.31 76.16 60.31 76.11L60.36 76.02C60.4 75.98 60.45 75.98 60.45 75.93C60.49 75.93 60.49 75.88 60.54 75.84C61.27 75.06 62.04 73.97 62.77 73.24C62.82 73.2 62.82 73.15 62.86 73.15C62.86 73.11 62.86 73.11 62.91 73.01L62.95 72.97C63 72.97 63 72.97 63 72.97C63 72.92 63 72.92 63.04 72.88L63.04 72.83L63.09 72.83C63.13 72.79 63.18 72.74 63.27 72.65C63.32 72.6 63.36 72.51 63.41 72.47C63.36 72.47 63.27 72.42 63.18 72.38C62.95 72.29 62.68 72.24 62.54 72.19L62.45 72.19C62.36 72.15 62.27 72.15 62.13 72.15L62.09 72.15C62.04 72.1 61.9 72.1 61.77 72.1L61.72 72.1C61.63 72.1 61.54 72.1 61.49 72.15C61.45 72.15 61.45 72.15 61.4 72.19L61.36 72.19C61.31 72.19 61.22 72.19 61.18 72.19C61.08 72.24 61.04 72.24 60.95 72.29C60.86 72.33 60.72 72.38 60.63 72.42C60.58 72.42 60.49 72.47 60.4 72.51C60.36 72.51 60.26 72.51 60.22 72.56C60.08 72.56 59.9 72.6 59.85 72.65L59.85 72.7L59.81 72.7C59.67 72.7 59.54 72.7 59.44 72.7C59.35 72.74 59.26 72.74 59.13 72.74C59.03 72.74 58.9 72.74 58.81 72.74C58.67 72.7 58.53 72.7 58.44 72.74L58.4 72.74L58.35 72.7C58.31 72.65 58.12 72.65 57.99 72.6C57.9 72.6 57.85 72.56 57.8 72.56C57.67 72.56 57.58 72.51 57.49 72.47C57.39 72.42 57.3 72.38 57.21 72.38C57.21 72.38 57.12 72.33 57.03 72.29ZM74.02 69.55L72.02 70.96C71.97 71.01 71.93 71.1 71.88 71.15C71.88 71.24 71.88 71.33 71.93 71.42L74.93 75.7L75.25 76.11C75.3 76.2 75.39 76.25 75.43 76.25C75.52 76.29 75.62 76.25 75.71 76.2L77.71 74.84C77.76 74.75 77.8 74.7 77.85 74.61C77.85 74.52 77.85 74.43 77.76 74.34L74.48 69.64C74.43 69.55 74.34 69.51 74.25 69.51C74.16 69.51 74.07 69.51 74.02 69.55ZM74.2 76.52C73.43 75.57 71.97 73.29 71.24 72.24L71.2 72.24C71.15 72.29 71.11 72.29 71.11 72.33L71.06 72.38L71.01 72.38C70.97 72.38 70.83 72.42 70.74 72.47C70.7 72.47 70.61 72.51 70.56 72.51C70.47 72.56 70.38 72.56 70.29 72.6C70.1 72.65 70.01 72.65 69.83 72.7C69.74 72.7 69.6 72.7 69.56 72.74L68.87 72.74C68.78 72.7 68.6 72.65 68.42 72.65C68.05 72.6 67.64 72.42 67.23 72.33L67.23 72.29C67.19 72.24 67.1 72.24 67.01 72.19C66.92 72.15 66.82 72.15 66.73 72.15L66.23 72.1L66.14 72.1C66 72.1 65.82 72.1 65.78 72.15L65.73 72.19L65.69 72.19C65.64 72.19 65.55 72.19 65.46 72.19C65.37 72.19 65.32 72.24 65.28 72.29L65.23 72.29C65.14 72.29 64.96 72.38 64.77 72.42C64.59 72.51 64.46 72.6 64.36 72.65L62.59 74.75L62.59 74.79L62.54 74.84L62.5 74.84C62.41 74.93 62.36 75.02 62.27 75.11C62 75.47 61.63 75.88 61.31 76.25C61.27 76.29 61.22 76.34 61.13 76.43C61.04 76.57 60.9 76.7 60.81 76.84C60.86 76.89 60.9 76.98 60.99 77.02L61.04 77.02C61.04 77.07 61.13 77.11 61.22 77.16C61.27 77.21 61.4 77.25 61.45 77.25L61.49 77.25C61.59 77.3 61.72 77.34 61.9 77.34C62.04 77.34 62.18 77.3 62.31 77.25C62.31 77.25 62.36 77.25 62.41 77.25L62.45 77.21L62.5 77.16L62.54 77.16C62.68 77.16 62.86 77.07 63 76.98L63.36 76.75C63.45 76.7 63.5 76.66 63.5 76.66L63.54 76.61L63.54 76.57C63.73 76.52 63.82 76.43 63.91 76.34C63.91 76.34 63.95 76.29 64.05 76.25L64.18 76.11C64.32 75.98 64.41 75.93 64.46 75.84C64.59 75.75 64.73 75.66 64.96 75.34C65.18 75.16 65.37 74.93 65.59 74.7C65.64 74.65 65.69 74.61 65.69 74.61C65.73 74.56 65.78 74.52 65.82 74.47L65.87 74.43L65.91 74.43C66.14 74.47 66.6 74.47 67.1 74.43C67.83 74.43 68.69 74.43 68.83 74.56C69.06 74.7 69.83 75.75 70.1 76.16L70.15 76.16L70.19 76.2C70.24 76.29 70.24 76.34 70.29 76.39L70.33 76.43L70.47 76.61L70.51 76.61L70.56 76.66L70.56 76.7L70.61 76.7L70.61 76.75C70.7 76.89 70.97 77.21 71.15 77.43L71.29 77.62L71.38 77.75C71.52 77.93 71.74 78.25 71.88 78.39C71.93 78.34 71.97 78.34 72.02 78.3C72.61 77.75 73.47 77.11 74.11 76.61L74.16 76.52L74.2 76.52ZM56.39 70.87L54.39 69.46C54.3 69.42 54.21 69.42 54.12 69.42C54.02 69.42 53.98 69.46 53.93 69.55L50.61 74.24C50.56 74.34 50.56 74.43 50.56 74.52C50.61 74.61 50.65 74.7 50.7 74.75L52.7 76.11C52.75 76.16 52.84 76.2 52.93 76.16L53.2 75.84L53.25 75.75L53.25 75.7L53.3 75.66C53.34 75.66 53.34 75.61 53.39 75.57L54.43 74.11L54.43 74.06L54.48 74.02C54.57 73.97 54.57 73.97 54.62 73.88L54.66 73.83L54.71 73.74C54.75 73.7 54.8 73.65 54.84 73.56L56.17 71.74L56.44 71.33C56.48 71.24 56.53 71.15 56.48 71.1C56.48 71.01 56.44 70.92 56.39 70.87ZM59.99 82.26C59.95 82.31 59.95 82.35 59.9 82.4L59.85 82.44C59.76 82.49 59.67 82.63 59.63 82.81C59.63 82.9 59.63 82.99 59.63 83.08C59.63 83.17 59.67 83.26 59.67 83.36C59.76 83.49 59.9 83.63 60.13 83.67C60.58 83.76 60.86 83.49 61.18 83.13C61.27 83.04 61.36 82.95 61.4 82.85L62.59 81.72C62.63 81.62 62.68 81.49 62.72 81.35C62.72 81.21 62.72 81.08 62.63 80.94C62.59 80.85 62.54 80.76 62.41 80.71C62.31 80.62 62.18 80.62 62 80.58C61.9 80.62 61.81 80.62 61.72 80.67C61.63 80.67 61.59 80.71 61.54 80.76L61.54 80.8L61.45 80.8C61.4 80.85 61.31 80.94 61.31 80.99C61.27 80.99 61.27 81.03 61.27 81.08L61.22 81.08L61.22 81.12C61.13 81.12 61.13 81.12 61.08 81.17L60.99 81.31C60.9 81.44 60.77 81.58 60.63 81.67L60.4 81.9L60.36 81.9C60.31 81.99 60.22 82.08 60.13 82.17C60.08 82.17 60.04 82.22 59.99 82.26ZM58.12 82.35C58.17 82.35 58.17 82.4 58.26 82.4C58.62 82.49 58.76 82.31 58.94 82.13L60.31 80.71C60.36 80.67 60.4 80.62 60.45 80.58C60.63 80.44 60.81 80.3 60.81 80.03C60.77 79.85 60.72 79.71 60.63 79.62C60.54 79.53 60.49 79.48 60.4 79.48C60.31 79.44 60.26 79.44 60.17 79.44C60.13 79.44 60.08 79.48 60.04 79.48L59.99 79.53L59.95 79.53L59.9 79.57C59.76 79.62 59.76 79.67 59.72 79.71L59.58 79.85C59.54 79.89 59.49 79.94 59.44 79.98C59.44 80.03 59.35 80.08 59.35 80.12C59.26 80.12 59.22 80.17 59.17 80.26L58.94 80.44C58.94 80.49 58.94 80.49 58.9 80.53L58.9 80.58L58.81 80.62L58.76 80.67C58.72 80.71 58.72 80.71 58.72 80.76L58.67 80.76C58.62 80.8 58.58 80.8 58.58 80.85C58.58 80.85 58.53 80.9 58.53 80.94L58.49 80.99L58.44 80.99C58.44 80.99 58.4 80.99 58.4 81.03C58.35 81.08 58.35 81.08 58.35 81.12L58.31 81.17L58.21 81.21C58.17 81.26 58.08 81.31 58.03 81.4C57.99 81.44 57.94 81.49 57.9 81.62L57.85 81.67C57.85 81.67 57.8 81.76 57.8 81.85C57.8 81.94 57.85 81.99 57.85 82.03L57.9 82.03L57.9 82.08C57.94 82.17 57.94 82.22 57.99 82.26L58.03 82.26C58.08 82.31 58.12 82.35 58.12 82.35ZM56.8 81.12C56.94 81.12 57.08 81.08 57.12 81.03L57.12 80.99L57.17 80.99C57.35 80.9 57.49 80.76 57.62 80.62L57.71 80.49L57.85 80.35C57.99 80.21 58.21 80.03 58.26 79.94L58.26 79.89C58.26 79.48 58.26 79.16 58.03 78.94C57.53 78.53 57.08 79.03 56.67 79.48L56.44 79.71L56.3 79.8C56.12 79.98 55.94 80.17 55.89 80.49C55.94 80.67 55.98 80.76 56.03 80.9C56.12 80.99 56.21 81.03 56.35 81.08C56.44 81.12 56.62 81.12 56.8 81.12Z" fill="#EF7F1A" fill-opacity="1.000000" fill-rule="evenodd"/>
</svg>
