<svg width="89.000000" height="82.000000" viewBox="0 0 89 82" fill="none" xmlns="http://www.w3.org/2000/svg" xmlns:xlink="http://www.w3.org/1999/xlink">
	<desc>
			Created with Pixso.
	</desc>
	<defs/>
	<path id="Vector" d="M80.16 18.46C84.44 18.46 88 21.97 88 26.25L88 61.87C88 66.15 84.44 69.71 80.16 69.71L71.6 69.71C71.6 69.71 72.87 77.36 64.67 80.55C68.41 74.31 59.89 69.71 59.89 69.71L27.5 69.71C23.17 69.71 19.67 66.15 19.67 61.87L19.67 59.41C20.62 60.32 21.9 61.14 23.54 61.83C19.8 55.59 28.37 50.94 28.37 50.94L60.75 50.94C65.04 50.94 68.59 47.43 68.59 43.1L68.59 18.46L80.16 18.46Z" stroke="#EF7F1A" stroke-opacity="1.000000" stroke-width="1.373391" stroke-linejoin="round"/>
	<path id="Vector" d="M8.1 -0.31C3.77 -0.31 0.26 3.25 0.26 7.53L0.26 43.1C0.26 47.43 3.77 50.94 8.1 50.94L16.62 50.94C16.62 50.94 15.39 58.59 23.54 61.83C19.8 55.59 28.37 50.94 28.37 50.94L60.76 50.94C65.04 50.94 68.59 47.43 68.59 43.1L68.59 7.53C68.59 3.25 65.04 -0.31 60.76 -0.31L8.1 -0.31Z" stroke="#EF7F1A" stroke-opacity="1.000000" stroke-width="1.373391" stroke-linejoin="round"/>
	<path id="Vector" d="M53.28 32.13C53.96 32.13 54.51 32.68 54.51 33.36L54.51 42.56C54.51 43.24 53.96 43.79 53.28 43.79L49.82 43.79C49.14 43.79 48.59 43.24 48.59 42.56L48.59 33.36C48.59 32.68 49.14 32.13 49.82 32.13L53.28 32.13Z" stroke="#EF7F1A" stroke-opacity="1.000000" stroke-width="1.373391"/>
	<path id="Vector" d="M48.59 33.31C47.23 32.26 45.81 31.17 44.99 30.3C44.13 29.39 43.81 28.66 43.54 27.94C43.26 27.16 42.99 26.39 42.85 25.7C42.72 24.97 42.67 24.34 42.63 23.88C42.53 23.47 42.4 23.29 42.08 23.2C41.81 23.11 41.4 23.15 41.03 23.2C40.67 23.29 40.35 23.38 40.12 23.79C39.89 24.15 39.71 24.79 39.62 25.66C39.53 26.52 39.57 27.53 39.66 28.53C39.76 29.48 39.89 30.4 40.17 30.94C40.39 31.53 40.67 31.81 40.76 31.99C40.8 32.13 40.62 32.13 39.35 32.13C38.07 32.13 35.75 32.13 34.52 32.17C33.24 32.22 33.11 32.31 32.88 32.54C32.7 32.76 32.42 33.13 32.33 33.49C32.19 33.86 32.24 34.18 32.42 34.54C32.6 34.91 33.01 35.27 33.15 35.45C33.29 35.68 33.24 35.68 33.15 35.82C33.06 35.91 32.92 36.14 32.88 36.41C32.83 36.68 32.88 37.05 33.01 37.36C33.2 37.68 33.47 38 33.7 38.18C33.88 38.37 34.02 38.46 34.06 38.5C34.06 38.55 34.02 38.59 33.88 38.82C33.79 39 33.65 39.37 33.65 39.73C33.65 40.14 33.83 40.55 34.11 40.87C34.43 41.19 34.88 41.42 35.06 41.56C35.29 41.69 35.2 41.69 35.11 41.83C35.06 41.92 34.93 42.1 34.97 42.42C35.02 42.69 35.2 43.1 35.47 43.42C35.75 43.74 36.11 43.97 37.71 44.06C39.3 44.15 42.08 44.11 44.08 43.74C46.13 43.42 47.36 42.83 48.59 " stroke="#EF7F1A" stroke-opacity="1.000000" stroke-width="1.373391"/>
	<path id="Vector" d="M11.47 35.59L12.06 33.95L13.38 34.86L15.16 34.95L14.7 36.5L15.16 38.18L13.52 38.23L12.06 39.14L11.56 37.64L10.19 36.55L11.47 35.59Z" stroke="#EF7F1A" stroke-opacity="1.000000" stroke-width="0.686695" stroke-linejoin="round"/>
	<path id="Vector" d="M11.47 25.34L12.06 23.7L13.38 24.61L15.16 24.7L14.7 26.25L15.16 27.94L13.52 27.94L12.06 28.89L11.56 27.39L10.19 26.3L11.47 25.34Z" stroke="#EF7F1A" stroke-opacity="1.000000" stroke-width="0.686695" stroke-linejoin="round"/>
	<path id="Vector" d="M11.47 14.86L12.06 13.22L13.38 14.13L15.16 14.22L14.7 15.77L15.16 17.46L13.52 17.5L12.06 18.46L11.56 16.96L10.19 15.86L11.47 14.86Z" stroke="#EF7F1A" stroke-opacity="1.000000" stroke-width="0.686695" stroke-linejoin="round"/>
	<path id="Vector" d="M19.58 30.85L20.21 29.21L21.53 30.12L23.27 30.21L22.81 31.76L23.27 33.45L21.67 33.49L20.21 34.45L19.67 32.95L18.3 31.81L19.58 30.85Z" stroke="#EF7F1A" stroke-opacity="1.000000" stroke-width="0.686695" stroke-linejoin="round"/>
	<path id="Vector" d="M19.58 20.42L20.21 18.78L21.53 19.69L23.27 19.78L22.81 21.33L23.27 23.02L21.67 23.02L20.21 23.97L19.67 22.47L18.3 21.38L19.58 20.42Z" stroke="#EF7F1A" stroke-opacity="1.000000" stroke-width="0.686695" stroke-linejoin="round"/>
	<path id="Vector" d="M31.01 61.74L54.38 " stroke="#EF7F1A" stroke-opacity="1.000000" stroke-width="0.686695" stroke-linejoin="round" stroke-linecap="round"/>
	<path id="Vector" d="M63.94 61.74L79.89 " stroke="#EF7F1A" stroke-opacity="1.000000" stroke-width="0.686695" stroke-linejoin="round" stroke-linecap="round"/>
	<path id="Vector" d="M30.46 14.68L32.51 14.45C32.56 14.86 32.69 15.18 32.92 15.36C33.15 15.59 33.42 15.68 33.74 15.68C34.2 15.68 34.56 15.45 34.88 15.09C35.2 14.68 35.38 13.81 35.47 12.54C34.93 13.18 34.24 13.45 33.42 13.45C32.56 13.45 31.83 13.13 31.19 12.45C30.55 11.76 30.24 10.9 30.24 9.81C30.24 8.67 30.55 7.76 31.24 7.07C31.92 6.39 32.74 6.03 33.79 6.03C34.93 6.03 35.84 6.48 36.57 7.35C37.3 8.21 37.66 9.67 37.66 11.67C37.66 13.72 37.3 15.18 36.52 16.09C35.79 17 34.79 17.46 33.61 17.46C32.74 17.46 32.01 17.23 31.51 16.78C30.96 16.27 30.6 15.59 30.46 14.68ZM35.29 9.99C35.29 9.3 35.11 8.76 34.79 8.39C34.47 7.98 34.11 7.8 33.7 7.8C33.29 7.8 32.97 7.98 32.74 8.3C32.47 8.58 32.33 9.12 32.33 9.81C32.33 10.53 32.47 11.04 32.74 11.4C33.01 11.72 33.38 11.9 33.83 11.9C34.24 11.9 34.56 11.72 34.84 11.4C35.11 11.08 35.29 10.63 35.29 9.99ZM39.12 14.68L41.21 14.45C41.26 14.86 41.4 15.18 41.58 15.36C41.81 15.59 42.08 15.68 42.44 15.68C42.85 15.68 43.22 15.45 43.54 15.09C43.86 14.68 44.04 13.81 44.13 12.54C43.58 13.18 42.9 13.45 42.12 13.45C41.21 13.45 40.48 13.13 39.85 12.45C39.21 11.76 38.89 10.9 38.89 9.81C38.89 8.67 39.21 7.76 39.89 7.07C40.58 6.39 41.44 6.03 42.44 6.03C43.58 6.03 44.54 6.48 45.27 7.35C45.95 8.21 46.31 9.67 46.31 11.67C46.31 13.72 45.95 15.18 45.22 16.09C44.45 17 43.49 17.46 42.26 17.46C41.4 17.46 40.71 17.23 40.17 16.78C39.62 16.27 39.25 15.59 39.12 14.68ZM43.95 9.99C43.95 9.3 43.76 8.76 43.45 8.39C43.13 7.98 42.76 7.8 42.35 7.8C41.99 7.8 41.62 7.98 41.4 8.3C41.12 8.58 40.99 9.12 40.99 9.81C40.99 10.53 41.12 11.04 41.4 11.4C41.71 11.72 42.03 11.9 42.49 11.9C42.9 11.9 43.22 11.72 43.54 11.4C43.81 11.08 43.95 10.63 43.95 9.99ZM47.73 8.85C47.73 7.85 47.95 7.12 48.36 6.62C48.82 6.16 49.41 5.89 50.19 5.89C50.96 5.89 51.55 6.12 52.01 6.62C52.42 7.07 52.65 7.85 52.65 8.85C52.65 9.85 52.42 10.58 52.01 11.04C51.55 11.54 50.96 11.76 50.19 11.76C49.41 11.76 48.82 11.54 48.36 11.04C47.95 10.58 47.73 9.85 47.73 8.85ZM49.41 8.85C49.41 9.53 49.46 10.03 49.64 10.26C49.78 10.44 49.96 10.53 50.19 10.53C50.41 10.53 50.6 10.44 50.69 10.26C50.87 10.03 50.96 9.53 50.96 8.85C50.96 8.12 50.87 7.62 50.69 7.39C50.6 7.21 50.41 7.12 50.19 7.12C49.96 7.12 49.78 7.21 49.64 7.39C49.46 7.62 49.41 8.12 49.41 8.85ZM51.78 17.69L50.23 17.69L56.15 5.89L57.7 5.89L51.78 17.69ZM55.24 14.77C55.24 13.77 55.47 12.99 55.93 12.54C56.34 12.04 56.93 11.81 57.7 11.81C58.48 11.81 59.07 12.04 59.53 12.54C59.94 12.99 60.16 13.77 60.16 14.77C60.16 15.77 59.94 16.5 59.53 17C59.07 17.46 58.48 17.69 57.75 17.69C56.93 17.69 56.34 17.46 55.93 17C55.47 16.5 55.24 15.77 55.24 14.77ZM56.93 14.77C56.93 15.5 57.02 15.96 57.16 16.23C57.29 16.41 57.48 16.5 57.7 16.5C57.93 16.5 58.11 16.41 58.2 16.23C58.39 15.96 58.48 15.5 58.48 14.77C58.48 14.04 58.39 13.54 58.25 13.31C58.11 13.09 57.93 12.99 57.7 12.99C57.48 12.99 57.29 13.09 57.16 13.31C57.02 13.54 56.93 14.04 56.93 14.77Z" fill="#EF7F1A" fill-opacity="1.000000" fill-rule="nonzero"/>
	<path id="Vector" d="M31.19 55.68L74.97 " stroke="#EF7F1A" stroke-opacity="1.000000" stroke-width="0.686695" stroke-linejoin="round" stroke-linecap="round"/>
	<path id="Vector" d="M63.4 50.03L79.34 " stroke="#EF7F1A" stroke-opacity="1.000000" stroke-width="0.686695" stroke-linejoin="round" stroke-linecap="round"/>
	<path id="Vector" d="M68.18 44.79L76.38 " stroke="#EF7F1A" stroke-opacity="1.000000" stroke-width="0.686695" stroke-linejoin="round" stroke-linecap="round"/>
	<path id="Vector" d="M68.54 38.41L81.03 " stroke="#EF7F1A" stroke-opacity="1.000000" stroke-width="0.686695" stroke-linejoin="round" stroke-linecap="round"/>
	<path id="Vector" d="M68.54 31.99L75.97 " stroke="#EF7F1A" stroke-opacity="1.000000" stroke-width="0.686695" stroke-linejoin="round" stroke-linecap="round"/>
</svg>
