<svg width="82.000000" height="83.000000" viewBox="0 0 82 83" fill="none" xmlns="http://www.w3.org/2000/svg" xmlns:xlink="http://www.w3.org/1999/xlink">
	<desc>
			Created with Pixso.
	</desc>
	<defs/>
	<path id="Vector" d="M74.77 41.15C74.77 48.43 72.5 55.22 68.58 60.78L12.37 60.78C8.45 55.22 6.17 48.43 6.17 41.15C6.17 22.2 21.52 6.8 40.47 6.8C59.42 6.8 74.77 22.2 74.77 41.15Z" stroke="#EF7F1A" stroke-opacity="1.000000" stroke-width="0.686695" stroke-linejoin="round"/>
	<path id="Vector" d="M22.02 60.51C16.74 55.45 13.73 48.43 13.73 41.15C13.73 26.34 25.71 14.36 40.47 14.36C44.94 14.36 49.31 15.5 53.18 " stroke="#EF7F1A" stroke-opacity="1.000000" stroke-width="1.373391" stroke-linejoin="round" stroke-linecap="round"/>
	<path id="Vector" d="M40.47 46.48C37.53 46.48 35.14 44.09 35.14 41.15C35.14 38.2 37.53 35.82 40.47 35.82C43.42 35.82 45.8 38.2 45.8 41.15C45.8 44.09 43.42 46.48 40.47 46.48Z" stroke="#EF7F1A" stroke-opacity="1.000000" stroke-width="1.373391" stroke-linejoin="round"/>
	<path id="Vector" d="M44.39 37.46L59.6 " stroke="#EF7F1A" stroke-opacity="1.000000" stroke-width="1.373391" stroke-linejoin="round" stroke-linecap="round"/>
	<path id="Vector" d="M66.57 33.77L60.06 35.68L66.57 33.77ZM62.25 57.32L56.73 53.31L62.25 57.32ZM60.42 44.93L67.12 " stroke="#EF7F1A" stroke-opacity="1.000000" stroke-width="1.373391" stroke-linejoin="round" stroke-linecap="round"/>
	<path id="Vector" d="M81.1 41.15C81.1 48.98 78.87 56.31 75 62.51C75.37 61.96 75.68 61.37 76 60.78L4.94 60.78C5.26 61.37 5.63 61.96 5.99 62.51C2.12 56.31 -0.11 48.98 -0.11 41.15C-0.11 18.69 18.06 0.51 40.47 0.51C62.93 0.51 81.1 18.69 81.1 41.15ZM73.91 64.19C74.27 63.65 74.64 63.1 75 62.56C74.64 63.1 74.27 63.65 73.91 64.19ZM72.72 65.79C73.13 65.29 73.5 64.74 73.86 64.24C73.5 64.74 73.13 65.29 72.72 65.79ZM71.49 67.34C71.9 66.84 72.31 66.34 72.68 65.83C72.31 66.34 71.9 66.84 71.49 67.34ZM70.22 68.8C70.63 68.34 71.04 67.88 71.45 67.38C71.04 67.88 70.63 68.34 70.22 68.8ZM69.67 69.34C69.81 69.21 69.99 69.02 70.13 68.89C69.99 69.02 69.81 69.21 69.67 69.34C69.4 69.62 69.12 69.93 68.81 70.21C69.12 69.93 69.4 69.62 69.67 69.34M68.3 70.71C68.44 70.57 68.58 70.44 68.71 70.3C68.58 70.44 68.44 70.57 68.3 70.71ZM67.39 71.53C67.67 71.3 67.94 71.07 68.17 70.8C67.94 71.07 67.67 71.3 67.39 71.53ZM66.85 72.03C66.98 71.89 67.12 71.8 67.26 71.67C67.12 71.8 66.98 71.89 66.85 72.03ZM65.89 72.8C66.16 72.58 66.39 72.39 66.66 72.17C66.39 72.39 66.16 72.58 65.89 72.8ZM65.3 73.26C65.43 73.17 65.57 73.03 65.71 72.94C65.57 73.03 65.43 73.17 65.3 73.26ZM64.43 73.94C64.66 73.76 64.89 73.58 65.07 73.44C64.89 73.58 64.66 73.76 64.43 73.94ZM63.75 74.4C63.89 74.31 64.02 74.22 64.16 74.13C64.02 74.22 63.89 74.31 63.75 74.4ZM63.07 74.9C63.2 74.81 63.34 74.72 63.48 74.63C63.34 74.72 63.2 74.81 63.07 74.9ZM62.11 75.49C62.25 75.4 62.38 75.36 62.47 75.26C62.38 75.36 62.25 75.4 62.11 75.49ZM61.43 75.95C61.52 75.86 61.65 75.77 61.79 75.72C61.65 75.77 61.52 75.86 61.43 75.95ZM60.47 76.49C60.56 76.4 60.7 76.36 60.79 76.31C60.7 76.36 60.56 76.4 60.47 76.49ZM59.7 76.9C59.83 76.86 59.92 76.77 60.06 76.72C59.92 76.77 59.83 76.86 59.7 76.9ZM58.74 77.41C58.83 77.36 58.92 77.31 59.06 77.27C58.92 77.31 58.83 77.36 58.74 77.41ZM57.96 77.81C58.06 77.72 58.15 77.68 58.28 77.63C58.15 77.68 58.06 77.72 57.96 77.81ZM57.01 78.22C57.1 78.18 57.24 78.13 57.33 78.09C57.24 78.13 57.1 78.18 57.01 78.22ZM56.14 78.59C56.23 78.54 56.37 78.5 56.46 78.45C56.37 78.5 56.23 78.54 56.14 78.59ZM54.27 79.32C54.37 79.27 54.5 79.27 54.59 79.23C54.5 79.27 54.37 79.27 54.27 79.32ZM53.45 79.59C53.55 79.59 53.59 79.55 53.68 79.55C53.59 79.55 53.55 79.59 53.45 79.59ZM51.54 80.23C51.63 80.18 51.68 80.18 51.77 80.14C51.68 80.18 51.63 80.18 51.54 80.23ZM50.45 80.5C50.54 80.46 50.63 80.46 50.72 80.41C50.63 80.46 50.54 80.46 50.45 80.5ZM49.58 80.68C49.67 80.68 49.72 80.68 49.81 80.64C49.72 80.68 49.67 80.68 49.58 80.68ZM48.49 80.96C48.58 80.91 48.67 80.91 48.76 80.91C48.67 80.91 48.58 80.91 48.49 80.96ZM46.53 81.28C46.58 81.28 46.67 81.28 46.71 81.28C46.67 81.28 46.58 81.28 46.53 81.28ZM45.57 81.41C45.67 81.41 45.71 81.41 45.8 81.37C45.71 81.41 45.67 81.41 45.57 81.41ZM35.19 81.37C35.23 81.41 35.32 81.41 35.42 81.41C35.32 81.41 35.23 81.41 35.19 81.37ZM34.23 81.28C34.32 81.28 34.37 81.28 34.46 81.28C34.37 81.28 34.32 81.28 34.23 81.28ZM33.14 81.05C33.23 81.09 33.28 81.09 33.37 81.09C33.28 81.09 33.23 81.09 33.14 81.05ZM32.23 80.91C32.32 80.91 32.36 80.91 32.46 80.96C32.36 80.91 32.32 80.91 32.23 80.91ZM31.18 80.64C31.23 80.68 31.32 80.68 31.36 80.68C31.32 80.68 31.23 80.68 31.18 80.64ZM29.22 80.14C29.27 80.18 29.36 80.18 29.4 80.23C29.36 80.18 29.27 80.18 29.22 80.14ZM28.31 79.86C28.4 79.91 28.49 79.91 28.58 79.96C28.49 79.91 28.4 79.91 28.31 79.86ZM27.31 79.55C27.35 79.55 27.44 79.59 27.49 79.59C27.44 79.59 27.35 79.55 27.31 79.55ZM26.4 79.23C26.49 79.27 26.58 79.27 26.67 79.32C26.58 79.27 26.49 79.27 26.4 79.23ZM24.53 78.45C24.62 78.5 24.71 78.54 24.85 78.59C24.71 78.54 24.62 78.5 24.53 78.45ZM23.62 78.09C23.75 78.13 23.85 78.18 23.98 78.22C23.85 78.18 23.75 78.13 23.62 78.09ZM22.71 77.63C22.8 77.68 22.93 77.72 23.03 77.81C22.93 77.72 22.8 77.68 22.71 77.63ZM21.93 77.27C22.02 77.31 22.11 77.36 22.25 77.41C22.11 77.36 22.02 77.31 21.93 77.27ZM20.93 76.72C21.02 76.77 21.16 76.86 21.25 76.9C21.16 76.86 21.02 76.77 20.93 76.72ZM20.16 76.31C20.29 76.36 20.38 76.4 20.52 76.49C20.38 76.4 20.29 76.36 20.16 76.31ZM19.2 75.72C19.29 75.77 19.43 75.86 19.56 75.95C19.43 75.86 19.29 75.77 19.2 75.72ZM18.47 75.26C18.61 75.36 18.74 75.4 18.84 75.49C18.74 75.4 18.61 75.36 18.47 75.26ZM17.51 74.63C17.65 74.72 17.79 74.81 17.92 74.9C17.79 74.81 17.65 74.72 17.51 74.63ZM16.83 74.13C16.97 74.22 17.1 74.31 17.24 74.4C17.1 74.31 16.97 74.22 16.83 74.13ZM15.87 73.44C16.1 73.58 16.33 73.76 16.56 73.94C16.33 73.76 16.1 73.58 15.87 73.44ZM15.24 72.94C15.37 73.03 15.51 73.17 15.65 73.26C15.51 73.17 15.37 73.03 15.24 72.94ZM14.33 72.17C14.55 72.39 14.83 72.58 15.1 72.8C14.83 72.58 14.55 72.39 14.33 72.17ZM13.73 71.67C13.87 71.8 14.01 71.89 14.14 72.03C14.01 71.89 13.87 71.8 13.73 71.67ZM12.78 70.8C13.05 71.07 13.32 71.3 13.6 71.53C13.32 71.3 13.05 71.07 12.78 70.8ZM12.23 70.3C12.41 70.44 12.55 70.57 12.69 70.71C12.55 70.57 12.41 70.44 12.23 70.3ZM11.27 69.34C11.59 69.62 11.87 69.93 12.14 70.21C11.87 69.93 11.59 69.62 11.27 69.34C11.14 69.21 11 69.02 10.86 68.89C11 69.02 11.14 69.21 11.27 69.34M9.54 67.38C9.95 67.88 10.36 68.34 10.77 68.8C10.36 68.34 9.95 67.88 9.54 67.38ZM8.27 65.83C8.68 66.34 9.04 66.84 9.45 67.34C9.04 66.84 8.68 66.34 8.27 65.83ZM7.08 64.24C7.45 64.74 7.81 65.29 8.22 65.79C7.81 65.29 7.45 64.74 7.08 64.24ZM5.99 62.56C6.35 63.1 6.67 63.65 7.08 64.19C6.67 63.65 6.35 63.1 5.99 62.56Z" stroke="#EF7F1A" stroke-opacity="1.000000" stroke-width="1.373391" stroke-linejoin="round"/>
	<path id="Vector" d="M40.47 81.73C25.21 81.73 11.87 73.31 4.94 60.78L76 60.78C69.08 73.31 55.78 81.73 40.47 81.73Z" stroke="#EF7F1A" stroke-opacity="1.000000" stroke-width="1.373391" stroke-linejoin="round"/>
	<path id="Vector" d="M40.47 81.73C27.63 81.73 16.15 75.76 8.72 66.43L72.27 66.43C64.8 75.76 53.36 81.73 40.47 81.73Z" stroke="#EF7F1A" stroke-opacity="1.000000" stroke-width="0.686695" stroke-linejoin="round"/>
</svg>
