<svg width="82.000000" height="100.000000" viewBox="0 0 82 100" fill="none" xmlns="http://www.w3.org/2000/svg" xmlns:xlink="http://www.w3.org/1999/xlink">
	<desc>
			Created with Pixso.
	</desc>
	<defs/>
	<path id="Vector" d="M16.63 6.19L16.63 10.16L47.97 10.16L47.97 6.19L64.92 6.19L65.01 56.35L62.32 53.89L59.31 56.48L55.8 55.03L53.89 58.49L50.07 58.31L49.47 62.22L45.83 63.36L46.6 67.23L43.6 69.56L45.65 72.97L43.6 76.16L46.69 78.67L46.28 80.31L45.46 80.31L45.46 80.35L0.23 80.35L0.23 80.31L0.23 18.63L0.23 6.19L16.63 6.19Z" stroke="#EF7F1A" stroke-opacity="1.000000" stroke-width="1.373391" stroke-linejoin="round"/>
	<path id="Vector" d="M26.15 2.46L26.15 3.78L37.58 3.78L37.58 2.46L47.97 2.46L47.97 10.16L16.63 10.16L16.63 2.46L26.15 2.46Z" stroke="#EF7F1A" stroke-opacity="1.000000" stroke-width="1.373391" stroke-linejoin="round"/>
	<path id="Vector" d="M37.58 0.05L37.58 3.78L26.15 3.78L26.15 0.05L37.58 0.05Z" stroke="#EF7F1A" stroke-opacity="1.000000" stroke-width="1.373391" stroke-linejoin="round"/>
	<path id="Vector" d="M57.49 15.35L57.49 31.7L57.54 31.7L57.54 55.76L55.8 55.03L53.89 58.49L50.07 58.31L49.47 62.22L45.83 63.36L46.6 67.23L43.6 69.56L45.37 72.47L43.92 72.47L43.87 72.56L8.07 72.56L8.07 22.18L16.13 15.35L57.49 15.35Z" stroke="#EF7F1A" stroke-opacity="1.000000" stroke-width="1.373391" stroke-linejoin="round"/>
	<path id="Vector" d="M8.07 22.27L16.13 22.14L16.13 15.35L8.07 22.27Z" stroke="#EF7F1A" stroke-opacity="1.000000" stroke-width="0.686695" stroke-linejoin="round"/>
	<path id="Vector" d="M22.37 29.2L22.37 36.85L14.67 36.85L14.67 29.2L22.37 29.2Z" stroke="#EF7F1A" stroke-opacity="1.000000" stroke-width="0.686695" stroke-linejoin="round"/>
	<path id="Vector" d="M22.37 43.64L22.37 51.29L14.67 51.29L14.67 43.64L22.37 43.64Z" stroke="#EF7F1A" stroke-opacity="1.000000" stroke-width="0.686695" stroke-linejoin="round"/>
	<path id="Vector" d="M22.37 57.58L22.37 65.23L14.67 65.23L14.67 57.58L22.37 57.58Z" stroke="#EF7F1A" stroke-opacity="1.000000" stroke-width="0.686695" stroke-linejoin="round"/>
	<path id="Vector" d="M27.2 31.66L51.71 " stroke="#EF7F1A" stroke-opacity="1.000000" stroke-width="0.686695" stroke-linejoin="round" stroke-linecap="round"/>
	<path id="Vector" d="M27.43 34.39L42.5 " stroke="#EF7F1A" stroke-opacity="1.000000" stroke-width="0.686695" stroke-linejoin="round" stroke-linecap="round"/>
	<path id="Vector" d="M27.2 46.1L51.71 " stroke="#EF7F1A" stroke-opacity="1.000000" stroke-width="0.686695" stroke-linejoin="round" stroke-linecap="round"/>
	<path id="Vector" d="M27.43 48.83L42.5 " stroke="#EF7F1A" stroke-opacity="1.000000" stroke-width="0.686695" stroke-linejoin="round" stroke-linecap="round"/>
	<path id="Vector" d="M27.2 60.26L48.7 " stroke="#EF7F1A" stroke-opacity="1.000000" stroke-width="0.686695" stroke-linejoin="round" stroke-linecap="round"/>
	<path id="Vector" d="M27.43 63L42.5 " stroke="#EF7F1A" stroke-opacity="1.000000" stroke-width="0.686695" stroke-linejoin="round" stroke-linecap="round"/>
	<path id="Vector" d="M16.17 32.66L18.27 34.98L21.09 " stroke="#EF7F1A" stroke-opacity="1.000000" stroke-width="0.686695" stroke-linejoin="round" stroke-linecap="round"/>
	<path id="Vector" d="M16.17 47.33L18.27 49.65L21.09 " stroke="#EF7F1A" stroke-opacity="1.000000" stroke-width="0.686695" stroke-linejoin="round" stroke-linecap="round"/>
	<path id="Vector" d="M16.17 61.22L18.27 63.59L21.09 " stroke="#EF7F1A" stroke-opacity="1.000000" stroke-width="0.686695" stroke-linejoin="round" stroke-linecap="round"/>
	<path id="Vector" d="M64.32 61.04L66.97 59.99L68.24 62.45L71.11 62.36L71.47 65.09L74.16 66L73.57 68.69L75.8 70.51L74.3 72.79L75.8 75.25L73.62 76.94L74.16 79.72L71.52 80.54L71.11 83.36L68.38 83.22L66.97 85.73L64.46 84.68L62.32 86.55L60.27 84.73L57.63 85.73L56.35 83.31L53.48 83.36L53.16 80.63L50.43 79.72L51.02 77.03L48.84 75.25L50.29 72.93L48.84 70.51L50.98 68.83L50.43 66L53.07 65.18L53.48 62.36L56.26 62.5L57.63 59.99L60.18 61.04L62.32 59.17L64.32 61.04Z" stroke="#EF7F1A" stroke-opacity="1.000000" stroke-width="0.686695" stroke-linejoin="round"/>
	<path id="Vector" d="M55.94 90.65L59.49 89.28L62.32 91.88L65.28 89.28L68.79 90.74L70.02 88.55L70.02 98.44L62.91 95.34L55.94 98.44L55.94 90.65Z" stroke="#EF7F1A" stroke-opacity="1.000000" stroke-width="1.373391" stroke-linejoin="round"/>
	<path id="Vector" d="M65.1 56.44L68.79 55.03L70.56 58.4L74.53 58.31L74.98 62.09L78.76 63.36L77.94 67.1L81 69.56L78.95 72.79L81 76.16L77.99 78.49L78.76 82.36L75.12 83.5L74.53 87.41L70.7 87.23L68.79 90.74L65.28 89.28L62.32 91.88L59.49 89.28L55.8 90.74L54.03 87.32L50.07 87.41L49.61 83.63L45.83 82.36L46.69 78.67L43.6 76.16L45.65 72.97L43.6 69.56L46.6 67.23L45.83 63.36L49.47 62.22L50.07 58.31L53.89 58.49L55.8 55.03L59.31 56.48L62.32 53.89L65.1 56.44Z" stroke="#EF7F1A" stroke-opacity="1.000000" stroke-width="1.373391" stroke-linejoin="round"/>
	<path id="Vector" d="M69.56 70.7L69.56 78.58L65.55 78.58L65.55 70.7L69.56 70.7Z" stroke="#EF7F1A" stroke-opacity="1.000000" stroke-width="0.686695" stroke-linejoin="round"/>
	<path id="Vector" d="M65.55 71.52C64.6 70.79 63.69 70.06 63.09 69.47C62.5 68.87 62.32 68.37 62.14 67.87C61.91 67.37 61.77 66.82 61.68 66.37C61.59 65.87 61.54 65.46 61.5 65.14C61.45 64.87 61.36 64.73 61.13 64.68C60.95 64.59 60.68 64.64 60.41 64.68C60.18 64.73 60 64.77 59.81 65.05C59.68 65.32 59.54 65.78 59.49 66.32C59.4 66.92 59.4 67.6 59.49 68.28C59.54 68.92 59.68 69.51 59.81 69.92C60 70.33 60.18 70.51 60.22 70.61C60.27 70.7 60.13 70.7 59.27 70.7C58.45 70.7 56.85 70.7 55.99 70.74C55.17 70.79 55.08 70.83 54.89 71.02C54.76 71.15 54.57 71.38 54.53 71.65C54.44 71.88 54.44 72.11 54.57 72.34C54.71 72.61 54.98 72.84 55.08 72.97C55.21 73.11 55.17 73.16 55.08 73.2C55.03 73.29 54.94 73.43 54.89 73.61C54.85 73.79 54.89 74.07 54.98 74.25C55.12 74.48 55.3 74.7 55.44 74.84C55.58 74.93 55.67 74.98 55.71 75.02C55.71 75.07 55.67 75.11 55.58 75.25C55.53 75.39 55.44 75.62 55.44 75.89C55.44 76.16 55.53 76.44 55.76 76.66C55.94 76.85 56.26 77.03 56.4 77.12C56.53 77.16 56.49 77.21 56.44 77.3C56.35 77.35 56.31 77.48 56.35 77.67C56.35 77.89 56.49 78.17 56.67 78.39C56.85 78.58 57.13 78.76 58.17 78.8C59.27 78.85 61.13 78.8 62.5 78.62C63.87 78.39 64.73 77.98 65.55 " stroke="#EF7F1A" stroke-opacity="1.000000" stroke-width="0.686695" stroke-linejoin="round" stroke-linecap="round"/>
</svg>
