<svg width="25.000000" height="26.000000" viewBox="0 0 25 26" fill="none" xmlns="http://www.w3.org/2000/svg" xmlns:xlink="http://www.w3.org/1999/xlink">
	<desc>
			Created with Pixso.
	</desc>
	<defs/>
	<path id="Vector" d="M4.68 -0.59C4.68 -0.59 3.9 -0.59 3.9 0.19C3.12 0.19 3.12 0.97 2.34 0.97C2.34 1.75 2.34 1.75 1.56 1.75L1.56 3.31C0.78 3.31 0.78 3.31 0.78 3.31C0.78 3.31 0.78 3.31 0.78 4.09L0.78 4.87C0 4.87 0 4.87 0 5.66L0 6.44C0 7.22 0 7.22 0 7.22C0 7.22 0 7.22 0 8L0 8.78C0 9.56 0 9.56 0 9.56L0.78 10.34C0.78 11.12 0.78 11.12 0.78 11.12L0.78 11.91L1.56 12.69C1.56 13.47 1.56 13.47 1.56 13.47C1.56 13.47 1.56 13.47 1.56 14.25L2.34 14.25L2.34 15.03C2.34 15.03 2.34 15.03 3.12 15.03L3.12 15.81L3.9 16.59C3.9 16.59 3.9 16.59 3.9 17.37C4.68 17.37 4.68 18.16 5.46 18.16L6.25 19.72L7.03 20.5C7.81 21.28 7.81 20.5 7.81 21.28C7.81 21.28 8.59 21.28 8.59 22.06L10.15 22.84C10.15 22.84 10.15 22.84 10.15 23.62C10.15 23.62 10.15 23.62 10.93 23.62C11.71 23.62 10.93 23.62 11.71 23.62L12.5 24.41C13.28 24.41 13.28 25.19 13.28 25.19L14.06 25.19C14.84 25.19 14.84 25.19 14.84 25.19C14.84 25.19 14.84 25.19 15.62 25.19L16.4 25.97L17.96 25.97L19.53 25.19L20.31 25.19C20.31 25.19 20.31 25.19 21.09 24.41C21.87 24.41 21.87 24.41 21.87 24.41L22.65 23.62C22.65 22.84 22.65 22.84 23.43 22.84L24.21 22.06C24.21 22.06 24.21 22.06 24.21 21.28L24.21 20.5C24.21 19.72 24.21 19.72 24.21 19.72C23.43 19.72 23.43 19.72 23.43 19.72C23.43 18.94 23.43 19.72 23.43 18.94C22.65 18.94 22.65 18.94 22.65 18.94C22.65 18.16 22.65 18.16 22.65 18.16C22.65 18.16 22.65 18.16 21.87 18.16L20.31 16.59L19.53 16.59L18.75 15.81L17.96 16.59L17.18 16.59C17.18 16.59 17.18 16.59 16.4 17.37L15.62 17.37C15.62 18.16 14.84 18.16 14.84 18.94L14.06 18.94L13.28 18.94C13.28 18.94 12.5 18.94 12.5 18.16C12.5 18.16 12.5 18.16 11.71 18.16L10.15 16.59C10.15 15.81 8.59 15.03 8.59 14.25C7.81 14.25 8.59 14.25 7.81 14.25C7.81 14.25 7.81 14.25 7.81 13.47L7.03 12.69L7.03 11.91C6.25 11.12 6.25 10.34 6.25 10.34C6.25 9.56 7.03 9.56 7.03 8.78C7.03 8.78 7.03 8.78 7.81 8.78L8.59 8C8.59 7.22 8.59 7.22 8.59 7.22C9.37 6.44 10.15 6.44 9.37 5.66L9.37 4.87L9.37 4.09L9.37 3.31L8.59 2.53L7.81 1.75C7.81 0.97 7.81 0.97 7.81 0.97L7.03 0.97L7.03 0.19C7.03 0.19 6.25 0.19 6.25 -0.59L5.46 -0.59L4.68 -0.59L4.68 -0.59ZM12.5 8.78L13.28 8.78C13.28 8.78 14.06 9.56 14.84 9.56L15.62 9.56C15.62 10.34 16.4 10.34 16.4 10.34L16.4 11.12C16.4 11.12 17.18 11.12 17.18 11.91L17.18 12.69C17.18 12.69 17.18 12.69 17.18 13.47L17.96 14.25L20.31 14.25L20.31 13.47L19.53 12.69L19.53 11.91L19.53 11.12C19.53 11.12 19.53 11.12 19.53 10.34L18.75 10.34L18.75 9.56L17.96 9.56C17.96 8.78 17.96 9.56 17.96 8.78C17.18 8.78 17.18 8.78 17.18 8C16.4 8 16.4 8 16.4 8C16.4 7.22 14.84 7.22 14.84 7.22L14.06 7.22L13.28 6.44L12.5 6.44L12.5 8.78ZM12.5 4.09L13.28 4.09L14.06 4.09C14.06 4.09 14.06 4.09 14.06 4.87L14.84 4.87C15.62 4.87 15.62 4.87 16.4 4.87C16.4 4.87 17.18 5.66 17.96 5.66L18.75 6.44C19.53 6.44 18.75 6.44 19.53 6.44C19.53 7.22 19.53 7.22 19.53 7.22C20.31 7.22 20.31 7.22 20.31 8L21.09 8.78L21.87 10.34C21.87 11.12 21.87 11.12 21.87 11.91L22.65 12.69L22.65 14.25L23.43 14.25C24.21 13.47 24.21 14.25 25 14.25L25 13.47L25 12.69L24.21 11.91L24.21 11.12L24.21 10.34L24.21 9.56L23.43 8.78C23.43 8.78 23.43 8.78 23.43 8C22.65 8 22.65 7.22 22.65 7.22C22.65 7.22 22.65 7.22 22.65 6.44C22.65 6.44 22.65 6.44 21.87 6.44C21.87 5.66 21.87 5.66 21.87 5.66C21.87 5.66 21.87 5.66 21.09 5.66C21.09 5.66 21.09 5.66 21.09 4.87C20.31 4.87 20.31 4.87 20.31 4.87C20.31 4.09 20.31 4.09 20.31 4.09L19.53 4.09C19.53 4.09 18.75 4.09 18.75 3.31L17.96 3.31C17.96 3.31 17.96 3.31 17.18 3.31C17.18 2.53 17.18 2.53 17.18 2.53L16.4 2.53L15.62 2.53L14.84 2.53L14.84 1.75L14.06 1.75C13.28 1.75 13.28 1.75 13.28 1.75L12.5 1.75L12.5 4.09Z" fill="#EF7F1A" fill-opacity="1.000000" fill-rule="evenodd"/>
</svg>
