<svg width="22.000000" height="22.000000" viewBox="0 0 22 22" fill="none" xmlns="http://www.w3.org/2000/svg" xmlns:xlink="http://www.w3.org/1999/xlink">
	<desc>
			Created with Pixso.
	</desc>
	<defs/>
	<path id="Vector" d="M22 10.28L22 19.81C22 20.55 21.26 21.28 20.53 21.28L2.2 21.28C0.73 21.28 0 20.55 0 19.81L0 10.28L11 15.41L22 10.28Z" fill="#EF7F1A" fill-opacity="1.000000" fill-rule="evenodd"/>
	<path id="Vector" d="M2.2 9.55L3.66 9.55L3.66 5.88C3.66 5.15 4.4 4.41 5.13 4.41L17.6 4.41C18.33 4.41 19.06 5.15 19.06 5.88L19.06 9.55L20.53 9.55C21.26 9.55 22 8.81 22 8.08L22 4.41L11 -0.72L0 4.41L0 8.08C0 8.81 0.73 9.55 2.2 9.55Z" fill="#EF7F1A" fill-opacity="1.000000" fill-rule="evenodd"/>
</svg>
