<svg width="24" height="22" viewBox="0 0 24 22" fill="none" xmlns="http://www.w3.org/2000/svg">
<path d="M22.8775 1.00366H1.76468V20.8465H22.8775V1.00366Z" stroke="#EF7F1A" stroke-width="2" stroke-miterlimit="22.9256" stroke-linecap="round" stroke-linejoin="round"/>
<path d="M13.6502 20.2893V10.8335H12.0195V9.39772H13.6502V8.23883C13.6502 7.50725 13.7151 6.9637 13.8451 6.60817C14.0228 6.12956 14.3339 5.74327 14.7783 5.44927C15.2296 5.14843 15.8586 4.99802 16.6654 4.99802C17.185 4.99802 17.7593 5.05955 18.3883 5.18262L18.1114 6.79277C17.7286 6.7244 17.3662 6.69021 17.0243 6.69021C16.4637 6.69021 16.0671 6.80986 15.8347 7.04916C15.6022 7.28846 15.486 7.7363 15.486 8.39266V9.39772H17.6089V10.8335H15.486V20.2893H13.6502Z" fill="#EF7F1A"/>
</svg>
