<svg width="24" height="22" viewBox="0 0 24 22" fill="none" xmlns="http://www.w3.org/2000/svg">
<path d="M22.9597 1.00366H1.84686V20.8465H22.9597V1.00366Z" stroke="#EF7F1A" stroke-width="2" stroke-miterlimit="22.9256" stroke-linecap="round" stroke-linejoin="round"/>
<path d="M12.4827 15.1317C14.8498 15.1317 16.7687 13.2128 16.7687 10.8456C16.7687 8.47851 14.8498 6.55957 12.4827 6.55957C10.1155 6.55957 8.19659 8.47851 8.19659 10.8456C8.19659 13.2128 10.1155 15.1317 12.4827 15.1317Z" stroke="#EF7F1A" stroke-width="2" stroke-miterlimit="22.9256" stroke-linecap="round" stroke-linejoin="round"/>
<path d="M19.6261 5.60721C20.0644 5.60721 20.4198 5.25185 20.4198 4.81349C20.4198 4.37513 20.0644 4.01978 19.6261 4.01978C19.1877 4.01978 18.8324 4.37513 18.8324 4.81349C18.8324 5.25185 19.1877 5.60721 19.6261 5.60721Z" stroke="#EF7F1A" stroke-width="2" stroke-miterlimit="22.9256" stroke-linecap="round" stroke-linejoin="round"/>
</svg>
