<svg width="23" height="22" viewBox="0 0 23 22" fill="none" xmlns="http://www.w3.org/2000/svg">
<path d="M21.7478 1.00366H0.634949V20.8465H21.7478V1.00366Z" stroke="#EF7F1A" stroke-width="2" stroke-miterlimit="22.9256" stroke-linecap="round" stroke-linejoin="round"/>
<path d="M7.59731 14.5911V5.50055H11.0078C11.7023 5.50055 12.2583 5.59356 12.6758 5.77959C13.0975 5.96148 13.4262 6.24466 13.6618 6.62911C13.9016 7.00943 14.0214 7.40836 14.0214 7.82589C14.0214 8.21448 13.916 8.58033 13.7052 8.92344C13.4944 9.26656 13.176 9.54353 12.7503 9.75437C13.3001 9.91559 13.7217 10.1905 14.0152 10.5791C14.3129 10.9677 14.4617 11.4265 14.4617 11.9557C14.4617 12.3815 14.3708 12.7783 14.1889 13.1463C14.0111 13.51 13.7899 13.7911 13.5254 13.9896C13.2608 14.188 12.928 14.3389 12.527 14.4422C12.1302 14.5415 11.6424 14.5911 11.0636 14.5911H7.59731ZM8.80028 9.3203H10.766C11.2992 9.3203 11.6816 9.28516 11.9131 9.21489C12.219 9.12394 12.4485 8.97305 12.6014 8.76222C12.7585 8.55139 12.8371 8.28682 12.8371 7.96851C12.8371 7.66673 12.7647 7.40216 12.62 7.17479C12.4753 6.94329 12.2687 6.7862 11.9999 6.70352C11.7312 6.61671 11.2703 6.57331 10.6171 6.57331H8.80028V9.3203ZM8.80028 13.5183H11.0636C11.4522 13.5183 11.725 13.5038 11.8821 13.4749C12.1591 13.4253 12.3906 13.3426 12.5766 13.2269C12.7627 13.1111 12.9156 12.9437 13.0355 12.7246C13.1554 12.5014 13.2153 12.2451 13.2153 11.9557C13.2153 11.6167 13.1285 11.3232 12.9549 11.0752C12.7813 10.823 12.5394 10.6473 12.2294 10.5481C11.9235 10.4447 11.4811 10.3931 10.9024 10.3931H8.80028V13.5183Z" fill="#EF7F1A"/>
</svg>
