<svg width="100.000031" height="95.317749" viewBox="0 0 100 95.3177" fill="none" xmlns="http://www.w3.org/2000/svg" xmlns:xlink="http://www.w3.org/1999/xlink">
	<desc>
			Created with Pixso.
	</desc>
	<defs/>
	<path id="Vector" d="M94.8997 1.08698L98.9131 4.59869L5.10034 4.59869L5.10034 81.3546L1.08698 77.6756L1.08698 1.08698L94.8997 1.08698ZM76.8395 77.6756L76.8395 75L79.5151 76.1706L80.8528 73.8295L80.8528 77.6756L76.8395 77.6756Z" stroke="#EF7F1A" stroke-opacity="1.000000" stroke-width="2.173913" stroke-linejoin="round"/>
	<path id="Vector" d="M98.9131 4.59869L98.9131 81.3546L80.8528 81.3546L80.8528 73.8295L79.5151 76.1706L75.8361 74.4984L72.8261 77.3412L69.9833 74.6656L66.3044 76.0034L66.3044 81.3546L5.10034 81.3546L5.10034 4.59869L98.9131 4.59869Z" stroke="#EF7F1A" stroke-opacity="1.000000" stroke-width="2.173913" stroke-linejoin="round"/>
	<path id="Vector" d="M89.2141 13.2943L89.2141 47.7424L86.0368 46.5718L85.3679 42.7257L81.3546 42.7257L79.5151 39.214L75.6689 40.719L72.8261 38.0434L69.8161 40.719L66.1371 39.214L64.1305 42.8929L60.2843 42.7257L59.6154 46.7391L55.9365 47.9096L56.6054 51.923L53.5953 54.2642L55.6021 57.7759L53.5953 61.1204L56.7726 63.6287L55.9365 67.4749L59.7827 68.8126L60.2843 72.6588L14.6321 72.6588L14.6321 13.2943L89.2141 13.2943ZM89.2141 51.923L89.0468 51.7558L89.2141 50.418L89.2141 51.923ZM89.2141 64.632L89.0468 63.4615L89.2141 63.2943L89.2141 64.632ZM89.2141 72.6588L85.3679 72.6588L86.0368 68.6454L89.2141 67.6421L89.2141 72.6588ZM81.3546 72.6588L81.5218 72.4916L85.0335 72.6588L81.3546 72.6588ZM61.1204 72.6588L64.2977 72.6588L61.1204 72.6588Z" stroke="#EF7F1A" stroke-opacity="1.000000" stroke-width="1.170569" stroke-linejoin="round"/>
	<path id="Vector" d="M75 45.4013L77.6756 44.3979L79.0134 46.9063L81.8562 46.9063L82.3579 49.5819L85.0334 50.5853L84.5318 53.428L86.7057 55.2675L85.2007 57.6086L86.7057 60.117L84.5318 61.7892L85.0334 64.7993L82.3579 65.6354L81.8562 68.4782L79.0134 68.311L77.6756 70.9866L75 69.816L72.8261 71.8227L70.8194 69.816L67.9766 70.9866L66.6388 68.4782L63.796 68.4782L63.4615 65.6354L60.6187 64.7993L61.2876 61.9565L58.9465 60.117L60.4515 57.7759L58.9465 55.2675L61.1204 53.428L60.6187 50.5853L63.2943 49.7491L63.796 46.9063L66.6388 46.9063L67.9766 44.3979L70.6522 45.5685L72.8261 43.5618L75 45.4013Z" stroke="#EF7F1A" stroke-opacity="1.000000" stroke-width="1.170569" stroke-linejoin="round"/>
	<path id="Vector" d="M66.3044 76.0033L69.9833 74.6655L72.8261 77.3411L75.8362 74.4983L79.5151 76.1705L80.8529 73.8294L80.8529 94.2307L73.495 91.0535L66.3044 94.2307L66.3044 76.0033Z" stroke="#EF7F1A" stroke-opacity="1.000000" stroke-width="2.173913" stroke-linejoin="round"/>
	<path id="Vector" d="M75.6689 40.7191L79.5151 39.2141L81.3545 42.7258L85.3679 42.7258L86.0368 46.572L89.883 47.9097L89.0468 51.7559L92.2241 54.2643L90.0502 57.6088L92.2241 61.1204L89.0468 63.4615L89.883 67.475L86.0368 68.6455L85.3679 72.6589L81.5218 72.4917L79.5151 76.1706L75.8362 74.4984L72.8261 77.3412L69.9833 74.6656L66.1371 76.1706L64.2977 72.6589L60.2843 72.6589L59.7826 68.8127L55.9365 67.475L56.7726 63.6288L53.5953 61.1204L55.602 57.7759L53.5953 54.2643L56.6054 51.9231L55.9365 47.9097L59.6154 46.7392L60.2843 42.7258L64.1305 42.893L66.1371 39.2141L69.8161 40.7191L72.8261 38.0435L75.6689 40.7191Z" stroke="#EF7F1A" stroke-opacity="1.000000" stroke-width="2.173913" stroke-linejoin="round"/>
	<path id="Vector" d="M38.7124 22.6588L38.7124 31.8561L22.1572 31.8561L22.1572 22.6588L38.7124 22.6588Z" stroke="#EF7F1A" stroke-opacity="1.000000" stroke-width="2.173913" stroke-linejoin="round"/>
	<path id="Vector" d="M21.99 41.388L54.097 41.388" stroke="#EF7F1A" stroke-opacity="1.000000" stroke-width="2.173913" stroke-linejoin="round" stroke-linecap="round"/>
	<path id="Vector" d="M21.99 47.2408L40.7191 47.2408" stroke="#EF7F1A" stroke-opacity="1.000000" stroke-width="2.173913" stroke-linejoin="round" stroke-linecap="round"/>
	<path id="Vector" d="M21.99 53.2608L48.0769 53.2608" stroke="#EF7F1A" stroke-opacity="1.000000" stroke-width="2.173913" stroke-linejoin="round" stroke-linecap="round"/>
	<path id="Vector" d="M21.99 59.1138L40.7191 59.1138" stroke="#EF7F1A" stroke-opacity="1.000000" stroke-width="2.173913" stroke-linejoin="round" stroke-linecap="round"/>
	<path id="Vector" d="M80.3512 55.4349L80.3512 63.6288L76.1706 63.6288L76.1706 55.4349L80.3512 55.4349Z" stroke="#EF7F1A" stroke-opacity="1.000000" stroke-width="1.170569" stroke-linejoin="round"/>
	<path id="Vector" d="M76.1706 56.2709C75.1672 55.602 74.3311 54.7659 73.6622 54.097C73.1606 53.5953 72.8261 53.0936 72.6589 52.592C72.4916 51.923 72.3244 51.4214 72.1572 50.9197C72.1572 50.418 72.1572 50.0836 71.99 49.7491C71.99 49.4147 71.8228 49.2475 71.6555 49.2475C71.4883 49.0803 71.1539 49.2475 70.9866 49.2475C70.6522 49.2475 70.485 49.4147 70.3177 49.5819C70.1505 49.9164 69.9833 50.418 69.9833 50.9197C69.8161 51.5886 69.8161 52.2575 69.9833 52.9264C69.9833 53.5953 70.1505 54.2642 70.3177 54.5986C70.485 55.1003 70.6522 55.2675 70.6522 55.2675C70.8194 55.4348 70.6522 55.4348 69.8161 55.4348C68.8127 55.4348 67.3077 55.4348 66.3044 55.4348C65.4682 55.4348 65.301 55.602 65.301 55.7692C65.1338 55.9365 64.9666 56.1036 64.7993 56.4381C64.7993 56.6053 64.7993 56.9398 64.9666 57.107C64.9666 57.4415 65.301 57.6087 65.4682 57.7759C65.4682 57.9431 65.4682 57.9431 65.4682 57.9431C65.301 58.1104 65.301 58.2776 65.301 58.4448C65.1338 58.612 65.1338 58.9465 65.301 59.1137C65.4682 59.2809 65.6355 59.6154 65.8027 59.6154C65.9699 59.7826 65.9699 59.7826 65.9699 59.9498C66.1371 59.9498 65.9699 59.9498 65.9699 60.1171C65.8027 60.2842 65.8027 60.4515 65.8027 60.7859C65.8027 61.1204 65.8027 61.2876 66.1371 61.6221C66.3044 61.7893 66.6388 61.9565 66.806 61.9565C66.9733 62.1237 66.806 62.1237 66.806 62.291C66.806 62.291 66.6388 62.4582 66.6388 62.6254C66.806 62.7926 66.806 63.1271 66.9733 63.2943C67.3077 63.6287 67.4749 63.796 68.6455 63.796C69.6488 63.796 71.6555 63.796 72.9933 63.6287C74.4984 63.2943 75.3345 62.9598 76.1706 62.4582" stroke="#EF7F1A" stroke-opacity="1.000000" stroke-width="1.170569" stroke-linejoin="round" stroke-linecap="round"/>
</svg>
