<svg width="100.000000" height="79.679199" viewBox="0 0 100 79.6792" fill="none" xmlns="http://www.w3.org/2000/svg" xmlns:xlink="http://www.w3.org/1999/xlink">
	<desc>
			Created with Pixso.
	</desc>
	<defs/>
	<path id="Vector" d="M35.2941 16.4438L35.2941 31.1497C42.9144 31.1497 49.0642 37.2994 49.0642 44.9197C49.0642 52.54 42.9144 58.6898 35.2941 58.6898L35.2941 73.3956L41.1765 73.3956L41.1765 66.9786C43.1818 66.4438 45.0535 65.6417 46.7915 64.5721L51.3369 69.2513L59.6257 60.9625L55.0802 56.2834C56.0161 54.5454 56.8182 52.6738 57.353 50.8021L63.9037 50.8021L63.9037 39.0374L57.353 39.0374C56.8182 37.032 56.0161 35.1603 55.0802 33.5561L59.6257 28.877L51.3369 20.5882L46.7915 25.1336C45.0535 24.1978 43.1818 23.3956 41.1765 22.8609L41.1765 16.4438L35.2941 16.4438Z" stroke="#EF7F1A" stroke-opacity="1.000000" stroke-width="2.139037" stroke-linejoin="round"/>
	<path id="Vector" d="M34.6256 52.0055C30.7862 52.0055 27.6738 48.893 27.6738 45.0536C27.6738 41.2142 30.7862 38.1017 34.6256 38.1017C38.4651 38.1017 41.5775 41.2142 41.5775 45.0536C41.5775 48.893 38.4651 52.0055 34.6256 52.0055Z" stroke="#EF7F1A" stroke-opacity="1.000000" stroke-width="1.069519" stroke-linejoin="round"/>
	<path id="Vector" d="M29.9465 39.9733L23.5294 39.9733L23.5294 30.7487" stroke="#EF7F1A" stroke-opacity="1.000000" stroke-width="1.069519" stroke-linejoin="round" stroke-linecap="round"/>
	<path id="Vector" d="M27.6738 45.0534L14.9733 45.0534" stroke="#EF7F1A" stroke-opacity="1.000000" stroke-width="1.069519" stroke-linejoin="round" stroke-linecap="round"/>
	<path id="Vector" d="M29.9465 50.1337L23.5294 50.1337L23.5294 59.7594" stroke="#EF7F1A" stroke-opacity="1.000000" stroke-width="1.069519" stroke-linejoin="round" stroke-linecap="round"/>
	<path id="Vector" d="M23.3958 67.5135C21.2545 67.5135 19.5187 65.7777 19.5187 63.6365C19.5187 61.4952 21.2545 59.7595 23.3958 59.7595C25.537 59.7595 27.2727 61.4952 27.2727 63.6365C27.2727 65.7777 25.537 67.5135 23.3958 67.5135Z" stroke="#EF7F1A" stroke-opacity="1.000000" stroke-width="1.069519" stroke-linejoin="round"/>
	<path id="Vector" d="M23.3958 30.7486C21.2545 30.7486 19.5187 29.0128 19.5187 26.8716C19.5187 24.7303 21.2545 22.9946 23.3958 22.9946C25.537 22.9946 27.2727 24.7303 27.2727 26.8716C27.2727 29.0128 25.537 30.7486 23.3958 30.7486Z" stroke="#EF7F1A" stroke-opacity="1.000000" stroke-width="1.069519" stroke-linejoin="round"/>
	<path id="Vector" d="M11.23 48.5294C9.08875 48.5294 7.35297 46.7935 7.35297 44.6523C7.35297 42.5111 9.08875 40.7753 11.23 40.7753C13.3712 40.7753 15.107 42.5111 15.107 44.6523C15.107 46.7935 13.3712 48.5294 11.23 48.5294Z" stroke="#EF7F1A" stroke-opacity="1.000000" stroke-width="1.069519" stroke-linejoin="round"/>
	<path id="Vector" d="M72.0588 11.3637L72.0588 78.6097L1.06952 78.6097L1.06952 11.3637L72.0588 11.3637Z" stroke="#EF7F1A" stroke-opacity="1.000000" stroke-width="2.139037" stroke-linejoin="round"/>
	<path id="Vector" d="M98.7968 28.3422L98.7968 70.0535L72.0588 70.0535L72.0588 28.3422L98.7968 28.3422Z" stroke="#EF7F1A" stroke-opacity="1.000000" stroke-width="2.139037" stroke-linejoin="round"/>
	<path id="Vector" d="M65.9091 1.06952L72.0588 11.3636L1.06952 11.3636L8.42245 1.06952L65.9091 1.06952Z" stroke="#EF7F1A" stroke-opacity="1.000000" stroke-width="2.139037" stroke-linejoin="round"/>
	<path id="Vector" d="M94.1177 20.7219L98.9305 28.3422L72.0588 28.3422L72.0588 20.7219L94.1177 20.7219Z" stroke="#EF7F1A" stroke-opacity="1.000000" stroke-width="2.139037" stroke-linejoin="round"/>
	<path id="Vector" d="M94.5187 35.5615L94.5187 41.9786L72.0588 41.9786L72.0588 35.5615L94.5187 35.5615Z" stroke="#EF7F1A" stroke-opacity="1.000000" stroke-width="1.069519" stroke-linejoin="round"/>
	<path id="Vector" d="M94.5187 46.925L94.5187 53.3421L72.0588 53.3421L72.0588 46.925L94.5187 46.925Z" stroke="#EF7F1A" stroke-opacity="1.000000" stroke-width="1.069519" stroke-linejoin="round"/>
	<path id="Vector" d="M94.5187 58.2888L94.5187 64.7059L72.0588 64.7059L72.0588 58.2888L94.5187 58.2888Z" stroke="#EF7F1A" stroke-opacity="1.000000" stroke-width="1.069519" stroke-linejoin="round"/>
</svg>
