<svg width="99.498413" height="77.000122" viewBox="0 0 99.4984 77.0001" fill="none" xmlns="http://www.w3.org/2000/svg" xmlns:xlink="http://www.w3.org/1999/xlink">
	<desc>
			Created with Pixso.
	</desc>
	<defs/>
	<path id="Vector" d="M86.239 10.0548L86.239 14.0142C86.239 16.7233 84.6761 19.1198 82.3838 20.2659C81.446 20.7869 80.2999 21.0994 79.1537 21.0994C77.9034 21.0994 76.6531 20.6827 75.6111 20.0575C75.6111 16.5149 75.6111 5.99121 75.6111 5.67859L79.0496 5.67859L79.0496 2.96954L79.1537 2.96954C83.1131 2.96954 86.239 6.19958 86.239 10.0548Z" stroke="#EF7F1A" stroke-opacity="1.000000" stroke-width="2.188092" stroke-linejoin="round"/>
	<path id="Vector" d="M20.2836 2.96954L20.2836 5.67859L23.3053 5.67859C23.3053 5.99121 23.3053 16.9316 23.3053 20.2659C22.3675 20.7869 21.2214 21.0994 20.0752 21.0994C16.1158 21.0994 12.99 17.8694 12.99 14.0142L12.99 10.0548C12.99 6.19958 16.1158 2.96954 20.0752 2.96954C20.1794 2.96954 20.1794 2.96954 20.2836 2.96954Z" stroke="#EF7F1A" stroke-opacity="1.000000" stroke-width="2.188092" stroke-linejoin="round"/>
	<path id="Vector" d="M75.6111 21.308C75.6111 31.5191 67.2755 39.8547 57.0644 39.8547L41.852 39.8547C31.6409 39.8547 23.3053 31.5191 23.3053 21.308C23.3053 21.0996 23.3053 5.99133 23.3053 5.67877L42.7897 5.67877L42.2687 6.82489L38.8303 6.7207L38.3093 10.1592L34.9751 11.2011L35.7045 14.7437L32.9954 16.8276L34.8709 19.8492L32.9954 22.6625L35.7045 24.9548L34.9751 28.2891L38.4135 29.4352L38.8303 32.7695L42.3729 32.7695L43.9359 35.7911L47.2701 34.4366L49.7708 36.833L52.4798 34.4366L55.6057 35.7911L57.2728 32.6652L60.7112 32.7695L61.2322 29.331L64.5664 28.2891L63.8371 24.7465L66.5461 22.6625L64.6706 19.6409L66.5461 16.8276L63.8371 14.5353L64.5664 11.2011L61.128 10.0549L60.7112 6.7207L57.1686 6.7207L56.6476 5.67877L75.6111 5.67877C75.6111 5.99133 75.6111 21.0996 75.6111 21.308Z" stroke="#EF7F1A" stroke-opacity="1.000000" stroke-width="2.188092" stroke-linejoin="round"/>
	<path id="Vector" d="M79.0495 1.09406L79.0495 5.67865L56.6476 5.67865L55.6057 3.69891L52.2714 5.05347L49.7708 2.65698L47.0617 5.05347L43.9358 3.69891L42.7897 5.67865L20.2836 5.67865L20.2836 1.09406L79.0495 1.09406Z" stroke="#EF7F1A" stroke-opacity="1.000000" stroke-width="2.188092" stroke-linejoin="round"/>
	<path id="Vector" d="M52.2714 5.05353L55.6057 3.69897L57.1686 6.72064L60.7112 6.72064L61.128 10.0549L64.5664 11.201L63.8371 14.5353L66.5461 16.8276L64.6706 19.6408L66.5461 22.6625L63.8371 24.7463L64.5664 28.289L61.2322 29.3309L60.7112 32.7693L57.2728 32.6652L55.6057 35.791L52.4798 34.4365L49.7708 36.8329L47.2701 34.4365L43.9359 35.791L42.3729 32.7693L38.8303 32.7693L38.4135 29.4351L34.9751 28.289L35.7045 24.9548L32.9954 22.6625L34.8709 19.8492L32.9954 16.8276L35.7045 14.7437L34.9751 11.201L38.3093 10.1591L38.8303 6.72064L42.2687 6.82483L43.9359 3.69897L47.0617 5.05353L49.7708 2.65704L52.2714 5.05353Z" stroke="#EF7F1A" stroke-opacity="1.000000" stroke-width="2.188092" stroke-linejoin="round"/>
	<path id="Vector" d="M51.5421 9.11713L53.9386 8.17938L55.0847 10.3675L57.6896 10.3675L58.0022 12.764L60.3987 13.5975L59.8777 15.994L61.8574 17.6611L60.5029 19.745L61.8574 21.9331L59.8777 23.3918L60.3987 25.8925L58.1064 26.6219L57.6896 29.1226L55.1889 29.0184L53.9386 31.3106L51.6463 30.3729L49.7708 32.04L47.9995 30.3729L45.603 31.3106L44.4568 29.1226L41.852 29.1226L41.5394 26.7261L39.1429 25.8925L39.6639 23.496L37.6842 21.9331L39.0387 19.8492L37.6842 17.6611L39.6639 16.0982L39.1429 13.5975L41.4352 12.8682L41.852 10.3675L44.3527 10.4717L45.603 8.17938L47.8953 9.11713L49.7708 7.45001L51.5421 9.11713Z" stroke="#EF7F1A" stroke-opacity="1.000000" stroke-width="1.041949" stroke-linejoin="round"/>
	<path id="Vector" d="M47.2701 11.9302L53.105 11.9302L53.105 14.7435L51.6463 14.7435L51.6463 24.7462L53.105 24.7462L53.105 27.5594L47.2701 27.5594L47.2701 24.7462L48.7288 24.7462L48.7288 14.7435L47.2701 14.7435L47.2701 11.9302Z" stroke="#EF7F1A" stroke-opacity="1.000000" stroke-width="1.041949" stroke-linejoin="round"/>
	<path id="Vector" d="M40.7058 64.9655L42.3729 65.5906L41.4352 66.9451L41.331 68.8206L39.7681 68.2997L37.9968 68.8206L37.9968 67.1535L36.9548 65.5906L38.5177 65.0696L39.6639 63.6109L40.7058 64.9655Z" stroke="#EF7F1A" stroke-opacity="1.000000" stroke-width="1.041949" stroke-linejoin="round"/>
	<path id="Vector" d="M51.3337 64.9655L53.0008 65.5906L52.0631 66.9451L51.9589 68.8206L50.3959 68.2997L48.6246 68.8206L48.6246 67.1535L47.5827 65.5906L49.1456 65.0696L50.2917 63.6109L51.3337 64.9655Z" stroke="#EF7F1A" stroke-opacity="1.000000" stroke-width="1.041949" stroke-linejoin="round"/>
	<path id="Vector" d="M62.1699 64.9655L63.9412 65.5906L63.0035 66.9451L62.8993 68.8206L61.2322 68.2997L59.5651 68.8206L59.4609 67.1535L58.5231 65.5906L60.086 65.0696L61.2322 63.6109L62.1699 64.9655Z" stroke="#EF7F1A" stroke-opacity="1.000000" stroke-width="1.041949" stroke-linejoin="round"/>
	<path id="Vector" d="M54.9805 39.8546C56.7069 39.8546 58.1063 40.6476 58.1063 41.6259C58.1063 42.6041 56.7069 43.3972 54.9805 43.3972L44.4568 43.3972C42.7305 43.3972 41.331 42.6041 41.331 41.6259C41.331 40.6476 42.7305 39.8546 44.4568 39.8546L54.9805 39.8546Z" stroke="#EF7F1A" stroke-opacity="1.000000" stroke-width="2.188092" stroke-linejoin="round"/>
	<path id="Vector" d="M55.3973 43.397L55.3973 49.2319L43.9358 49.2319L43.9358 43.397L55.3973 43.397Z" stroke="#EF7F1A" stroke-opacity="1.000000" stroke-width="2.188092" stroke-linejoin="round"/>
	<path id="Vector" d="M53.5218 49.232L45.7072 49.232C38.3094 49.232 32.1619 52.2537 31.0157 56.3173L68.2133 56.3173C67.0671 52.2537 60.9196 49.232 53.5218 49.232Z" stroke="#EF7F1A" stroke-opacity="1.000000" stroke-width="2.188092" stroke-linejoin="round"/>
	<path id="Vector" d="M77.4866 56.3174L77.4866 75.9061L21.8465 75.9061L21.8465 56.3174L77.4866 56.3174Z" stroke="#EF7F1A" stroke-opacity="1.000000" stroke-width="2.188092" stroke-linejoin="round"/>
	<path id="Vector" d="M67.4839 60.0684L67.4839 72.0508L31.9535 72.0508L31.9535 60.0684L67.4839 60.0684Z" stroke="#EF7F1A" stroke-opacity="1.000000" stroke-width="1.041949" stroke-linejoin="round"/>
	<path id="Vector" d="M84.5718 47.8775C85.4054 46.523 86.8641 46.1062 89.3648 45.7936C91.8655 45.3768 95.3039 45.1685 96.8668 45.0643C98.4297 45.0643 98.1172 45.2726 97.1794 46.7314C96.3458 48.0859 94.8871 50.6908 93.741 52.4621C92.5948 54.2334 91.7613 55.2754 89.8858 55.588C88.0103 55.9005 85.0928 55.4838 83.8425 55.1711C82.5921 54.7544 83.0089 54.3376 83.3215 52.9831C83.5299 51.6285 83.6341 49.2321 84.5718 47.8775Z" stroke="#EF7F1A" stroke-opacity="1.000000" stroke-width="1.041949"/>
	<path id="Vector" d="M87.5935 36.2077C88.0103 34.9573 89.3648 34.3322 91.5529 33.6028C93.6368 32.8735 96.6584 32.0399 98.013 31.8315C99.3675 31.5189 99.0549 31.7274 98.5339 33.186C98.013 34.5406 97.1794 37.0413 96.45 38.8126C95.7207 40.5839 95.1997 41.6259 93.5326 42.1468C91.9697 42.772 89.2606 42.8762 88.1144 42.772C86.9683 42.6678 87.2809 42.251 87.2809 41.0007C87.2809 39.6461 87.0725 37.5623 87.5935 36.2077Z" stroke="#EF7F1A" stroke-opacity="1.000000" stroke-width="1.041949"/>
	<path id="Vector" d="M83.4257 28.3931C83.4257 27.247 84.1551 26.4135 85.5096 25.2673C86.7599 24.1212 88.6354 22.5582 89.5732 21.933C90.4068 21.3079 90.3026 21.6205 90.3026 22.7666C90.3026 23.9128 90.5109 25.9966 90.5109 27.4554C90.6151 28.9141 90.5109 29.8519 89.5732 30.6854C88.5312 31.6232 86.7599 32.561 85.8222 32.8735C84.9886 33.0819 85.0928 32.6652 84.676 31.8316C84.3634 30.8939 83.5299 29.4351 83.4257 28.3931Z" stroke="#EF7F1A" stroke-opacity="1.000000" stroke-width="1.041949"/>
	<path id="Vector" d="M14.9697 47.8775C14.1361 46.523 12.5732 46.1062 10.0725 45.7936C7.57186 45.3768 4.13343 45.1685 2.5705 45.0643C1.11177 45.0643 1.42436 45.2726 2.25792 46.7314C3.19567 48.0859 4.6544 50.6908 5.80054 52.4621C6.84249 54.2334 7.67605 55.2754 9.65575 55.588C11.5313 55.9005 14.4487 55.4838 15.6991 55.1711C16.9494 54.7544 16.5326 54.3376 16.22 52.9831C15.9074 51.6285 15.8033 49.2321 14.9697 47.8775Z" stroke="#EF7F1A" stroke-opacity="1.000000" stroke-width="1.041949"/>
	<path id="Vector" d="M11.948 36.2077C11.4271 34.9573 10.1767 34.3322 7.98863 33.6028C5.80054 32.8735 2.88308 32.0399 1.52855 31.8315C0.174015 31.5189 0.382404 31.7274 1.00758 33.186C1.52855 34.5406 2.36211 37.0413 3.09147 38.8126C3.82084 40.5839 4.34181 41.6259 5.90473 42.1468C7.57185 42.772 10.2809 42.8762 11.4271 42.772C12.5732 42.6678 12.2606 42.251 12.2606 41.0007C12.1564 39.6461 12.469 37.5623 11.948 36.2077Z" stroke="#EF7F1A" stroke-opacity="1.000000" stroke-width="1.041949"/>
	<path id="Vector" d="M16.0116 28.3931C16.1158 27.247 15.3865 26.4135 14.0319 25.2673C12.7816 24.1212 10.9061 22.5582 9.96832 21.933C9.13476 21.3079 9.23895 21.6205 9.13476 22.7666C9.13476 23.9128 9.03056 25.9966 8.92637 27.4554C8.92637 28.9141 9.03056 29.8519 9.96832 30.6854C10.9061 31.6232 12.7816 32.561 13.6151 32.8735C14.5529 33.0819 14.4487 32.6652 14.7613 31.8316C15.1781 30.8939 16.0116 29.4351 16.0116 28.3931Z" stroke="#EF7F1A" stroke-opacity="1.000000" stroke-width="1.041949"/>
</svg>
