<svg width="99.918793" height="93.922241" viewBox="0 0 99.9188 93.9222" fill="none" xmlns="http://www.w3.org/2000/svg" xmlns:xlink="http://www.w3.org/1999/xlink">
	<desc>
			Created with Pixso.
	</desc>
	<defs/>
	<path id="Vector" d="M92.8318 79.1252C96.1007 79.1252 98.7506 82.1761 98.7506 85.9396C98.7506 89.7032 96.1007 92.7541 92.8318 92.7541L7.08699 92.7541C3.81812 92.7541 1.16818 89.7032 1.16818 85.9396C1.16818 82.1761 3.81812 79.1252 7.08699 79.1252L92.8318 79.1252Z" stroke="#EF7F1A" stroke-opacity="1.000000" stroke-width="2.336371" stroke-linejoin="round"/>
	<path id="Vector" d="M8.64455 89.4051C6.79506 89.4051 5.29575 87.9058 5.29575 86.0563C5.29575 84.2068 6.79506 82.7075 8.64455 82.7075C10.494 82.7075 11.9933 84.2068 11.9933 86.0563C11.9933 87.9058 10.494 89.4051 8.64455 89.4051Z" stroke="#EF7F1A" stroke-opacity="1.000000" stroke-width="1.168186" stroke-linejoin="round"/>
	<path id="Vector" d="M22.1176 89.4051C20.2681 89.4051 18.7688 87.9058 18.7688 86.0563C18.7688 84.2068 20.2681 82.7075 22.1176 82.7075C23.9671 82.7075 25.4664 84.2068 25.4664 86.0563C25.4664 87.9058 23.9671 89.4051 22.1176 89.4051Z" stroke="#EF7F1A" stroke-opacity="1.000000" stroke-width="1.168186" stroke-linejoin="round"/>
	<path id="Vector" d="M36.2138 89.4051C34.3643 89.4051 32.865 87.9058 32.865 86.0563C32.865 84.2068 34.3643 82.7075 36.2138 82.7075C38.0632 82.7075 39.5626 84.2068 39.5626 86.0563C39.5626 87.9058 38.0632 89.4051 36.2138 89.4051Z" stroke="#EF7F1A" stroke-opacity="1.000000" stroke-width="1.168186" stroke-linejoin="round"/>
	<path id="Vector" d="M49.8427 89.4051C47.9932 89.4051 46.4939 87.9058 46.4939 86.0563C46.4939 84.2068 47.9932 82.7075 49.8427 82.7075C51.6922 82.7075 53.1915 84.2068 53.1915 86.0563C53.1915 87.9058 51.6922 89.4051 49.8427 89.4051Z" stroke="#EF7F1A" stroke-opacity="1.000000" stroke-width="1.168186" stroke-linejoin="round"/>
	<path id="Vector" d="M63.4713 89.4051C61.6218 89.4051 60.1225 87.9058 60.1225 86.0563C60.1225 84.2068 61.6218 82.7075 63.4713 82.7075C65.3208 82.7075 66.8201 84.2068 66.8201 86.0563C66.8201 87.9058 65.3208 89.4051 63.4713 89.4051Z" stroke="#EF7F1A" stroke-opacity="1.000000" stroke-width="1.168186" stroke-linejoin="round"/>
	<path id="Vector" d="M77.4117 89.4051C75.5623 89.4051 74.063 87.9058 74.063 86.0563C74.063 84.2068 75.5623 82.7075 77.4117 82.7075C79.2612 82.7075 80.7606 84.2068 80.7606 86.0563C80.7606 87.9058 79.2612 89.4051 77.4117 89.4051Z" stroke="#EF7F1A" stroke-opacity="1.000000" stroke-width="1.168186" stroke-linejoin="round"/>
	<path id="Vector" d="M91.508 89.4051C89.6584 89.4051 88.1591 87.9058 88.1591 86.0563C88.1591 84.2068 89.6584 82.7075 91.508 82.7075C93.3575 82.7075 94.8568 84.2068 94.8568 86.0563C94.8568 87.9058 93.3575 89.4051 91.508 89.4051Z" stroke="#EF7F1A" stroke-opacity="1.000000" stroke-width="1.168186" stroke-linejoin="round"/>
	<path id="Vector" d="M92.754 43.4565L92.754 79.1251L45.7151 79.1251L45.7151 43.4565L92.754 43.4565Z" stroke="#EF7F1A" stroke-opacity="1.000000" stroke-width="2.336371" stroke-linejoin="round"/>
	<path id="Vector" d="M69.2345 43.4565L69.2345 79.1251" stroke="#EF7F1A" stroke-opacity="1.000000" stroke-width="2.336371" stroke-linejoin="round" stroke-linecap="round"/>
	<path id="Vector" d="M65.9636 46.8054L65.9636 65.73L48.8302 65.73L48.8302 46.8054L65.9636 46.8054Z" stroke="#EF7F1A" stroke-opacity="1.000000" stroke-width="1.168186" stroke-linejoin="round"/>
	<path id="Vector" d="M89.6387 46.8054L89.6387 58.1758L72.5053 58.1758L72.5053 46.8054L89.6387 46.8054Z" stroke="#EF7F1A" stroke-opacity="1.000000" stroke-width="1.168186" stroke-linejoin="round"/>
	<path id="Vector" d="M89.6387 59.9668L89.6387 65.652L72.5053 65.652L72.5053 59.9668L89.6387 59.9668Z" stroke="#EF7F1A" stroke-opacity="1.000000" stroke-width="1.168186" stroke-linejoin="round"/>
	<path id="Vector" d="M80.2932 68.1443L80.2932 73.8295L72.5053 73.8295L72.5053 68.1443L80.2932 68.1443Z" stroke="#EF7F1A" stroke-opacity="1.000000" stroke-width="1.168186" stroke-linejoin="round"/>
	<path id="Vector" d="M89.7166 68.1443L89.7166 73.8295L82.3181 73.8295L82.3181 68.1443L89.7166 68.1443Z" stroke="#EF7F1A" stroke-opacity="1.000000" stroke-width="1.168186" stroke-linejoin="round"/>
	<path id="Vector" d="M16.5883 55.5277C15.1689 55.5277 14.0183 54.3771 14.0183 52.9577C14.0183 51.5383 15.1689 50.3877 16.5883 50.3877C18.0077 50.3877 19.1583 51.5383 19.1583 52.9577C19.1583 54.3771 18.0077 55.5277 16.5883 55.5277Z" stroke="#EF7F1A" stroke-opacity="1.000000" stroke-width="2.336371" stroke-linejoin="round"/>
	<path id="Vector" d="M19.3919 45.4036C18.691 45.3257 17.9901 45.2479 17.2113 45.2479L16.1989 45.2479C15.4201 45.2479 14.7192 45.3257 14.0183 45.4036L14.0183 27.5693C14.7192 27.803 15.5759 27.9587 16.4325 27.9587C17.5228 27.9587 18.5353 27.7251 19.3919 27.3357L19.3919 45.4036Z" stroke="#EF7F1A" stroke-opacity="1.000000" stroke-width="2.336371" stroke-linejoin="round"/>
	<path id="Vector" d="M16.4325 23.13C15.0992 23.13 14.0183 22.0491 14.0183 20.7158C14.0183 19.3824 15.0992 18.3015 16.4325 18.3015C17.7659 18.3015 18.8468 19.3824 18.8468 20.7158C18.8468 22.0491 17.7659 23.13 16.4325 23.13Z" stroke="#EF7F1A" stroke-opacity="1.000000" stroke-width="2.336371" stroke-linejoin="round"/>
	<path id="Vector" d="M23.3637 18.7689C22.8964 16.9777 21.6503 15.4201 20.0927 14.4855L41.821 1.16821L69.3902 1.16821L69.3902 6.61975L43.3786 6.61975L23.3637 18.7689Z" stroke="#EF7F1A" stroke-opacity="1.000000" stroke-width="2.336371" stroke-linejoin="round"/>
	<path id="Vector" d="M17.2113 45.2478C22.1177 45.2478 26.0895 47.7399 26.0895 50.7772L26.0895 79.1252L7.32065 79.1252L7.32065 50.7772C7.32065 47.7399 11.2925 45.2478 16.1989 45.2478L17.2113 45.2478Z" stroke="#EF7F1A" stroke-opacity="1.000000" stroke-width="2.336371" stroke-linejoin="round"/>
	<path id="Vector" d="M16.4324 27.9586C12.4324 27.9586 9.18967 24.7159 9.18967 20.7159C9.18967 16.7158 12.4324 13.4731 16.4324 13.4731C20.4325 13.4731 23.6752 16.7158 23.6752 20.7159C23.6752 24.7159 20.4325 27.9586 16.4324 27.9586Z" stroke="#EF7F1A" stroke-opacity="1.000000" stroke-width="2.336371" stroke-linejoin="round"/>
	<path id="Vector" d="M67.0538 6.61987L67.0538 13.3174L63.4714 13.3174L63.4714 6.61987L67.0538 6.61987Z" stroke="#EF7F1A" stroke-opacity="1.000000" stroke-width="1.168186" stroke-linejoin="round"/>
	<path id="Vector" d="M75.2312 13.3174L75.2312 21.4947L55.2163 21.4947L55.2163 13.3174L75.2312 13.3174Z" stroke="#EF7F1A" stroke-opacity="1.000000" stroke-width="1.168186" stroke-linejoin="round"/>
	<path id="Vector" d="M59.7332 21.5725L59.7332 26.4789L57.2411 26.4789L57.2411 21.5725L59.7332 21.5725Z" stroke="#EF7F1A" stroke-opacity="1.000000" stroke-width="1.168186" stroke-linejoin="round"/>
	<path id="Vector" d="M73.1283 21.5725L73.1283 26.4789L70.6362 26.4789L70.6362 21.5725L73.1283 21.5725Z" stroke="#EF7F1A" stroke-opacity="1.000000" stroke-width="1.168186" stroke-linejoin="round"/>
</svg>
