<svg width="94.345703" height="97.891968" viewBox="0 0 94.3457 97.892" fill="none" xmlns="http://www.w3.org/2000/svg" xmlns:xlink="http://www.w3.org/1999/xlink">
	<desc>
			Created with Pixso.
	</desc>
	<defs/>
	<path id="Vector" d="M5.81711 13.998L75.3344 13.998C75.9019 13.998 76.4221 14.4709 76.4221 15.0858L76.4221 89.2375C76.4221 89.8524 75.9019 90.3253 75.3344 90.3253L5.81711 90.3253C5.20233 90.3253 4.72943 89.8524 4.72943 89.2375L4.72943 77.4149L6.85751 77.4149L6.85751 88.1971L74.2468 88.1971L74.2468 16.1734L6.85751 16.1734L6.85751 77.4149L4.72943 77.4149L4.72943 15.0858C4.72943 14.4709 5.20233 13.998 5.81711 13.998Z" fill="#EF7F1A" fill-opacity="1.000000" fill-rule="nonzero"/>
	<path id="Vector" d="M9.88416 18.9163L71.2202 18.9163C71.5039 18.9163 71.7404 19.1527 71.7404 19.4365L71.7404 84.8868C71.7404 85.1705 71.5039 85.407 71.2202 85.407L9.88416 85.407C9.6004 85.407 9.36395 85.1705 9.36395 84.8868L9.36395 19.4365C9.36395 19.1527 9.6004 18.9163 9.88416 18.9163ZM70.7 20.004L10.4516 20.004L10.4516 76.5164L10.4516 76.8947L10.4516 77.9351L10.4516 78.9282L10.4516 84.3193L70.7 84.3193L70.7 20.004ZM12.3433 76.8947L12.3433 76.5164L12.3433 22.6522C12.3433 22.3685 12.5797 22.132 12.9108 22.132L35.894 22.132C36.1778 22.132 36.4142 22.3685 36.4142 22.6522L36.4142 81.671C36.4142 82.0021 36.1778 82.2385 35.894 82.2385L12.9108 82.2385C12.5797 82.2385 12.3433 82.0021 12.3433 81.671L12.3433 78.9282L12.3433 77.9351L12.3433 76.8947ZM13.4309 77.4149L13.4309 81.1508L35.3738 81.1508L35.3738 23.1724L13.4309 23.1724L13.4309 77.4149Z" fill="#EF7F1A" fill-opacity="1.000000" fill-rule="nonzero"/>
	<path id="Vector" d="M35.894 22.6523L35.894 81.6711L12.9107 81.6711L12.9107 77.415L12.9107 55.0938L12.9107 22.6523L35.894 22.6523Z" stroke="#EF7F1A" stroke-opacity="1.000000" stroke-width="1.255020" stroke-linejoin="round"/>
	<path id="Vector" d="M69.7542 20.9497L69.7542 83.4207L38.3058 83.4207L38.3058 20.9497L69.7542 20.9497ZM66.8694 23.7872L66.8694 80.536L41.1906 80.536L41.1906 51.8778L40.3394 51.8778C39.7246 51.8778 39.2516 51.4049 39.2516 50.8374C39.2516 50.27 39.7246 49.7971 40.3394 49.7971L41.1906 49.7971L41.1906 23.7872L66.8694 23.7872Z" stroke="#EF7F1A" stroke-opacity="1.000000" stroke-width="1.255020" stroke-linejoin="round"/>
	<path id="Vector" d="M78.5029 89.6157L78.5029 96.662L1.22992 96.662L1.22992 89.6157L78.5029 89.6157Z" stroke="#EF7F1A" stroke-opacity="1.000000" stroke-width="2.459839" stroke-linejoin="round"/>
	<path id="Vector" d="M44.5955 49.7971C45.1701 49.7971 45.6359 50.2629 45.6359 50.8375L45.6359 50.8848C45.6359 51.4594 45.1701 51.9252 44.5955 51.9252L39.6773 51.9252C39.1027 51.9252 38.6369 51.4594 38.6369 50.8848L38.6369 50.8375C38.6369 50.2629 39.1027 49.7971 39.6773 49.7971L44.5955 49.7971Z" stroke="#EF7F1A" stroke-opacity="1.000000" stroke-width="1.255020" stroke-linejoin="round"/>
	<path id="Vector" d="M13.0999 7.04639L82.6172 7.04639C83.232 7.04639 83.7049 7.56659 83.7049 8.13409L83.7049 82.3332C83.7049 82.9007 83.232 83.3736 82.6172 83.3736L75.4763 83.3736L75.4763 81.2455L81.5768 81.2455L81.5768 9.22174L14.1876 9.22174L14.1876 15.0858L12.0595 15.0858L12.0595 8.13409C12.0595 7.56659 12.5324 7.04639 13.0999 7.04639Z" fill="#EF7F1A" fill-opacity="1.000000" fill-rule="nonzero"/>
	<path id="Vector" d="M85.7857 82.7114L85.7857 89.7578L75.4764 89.7578L75.4764 82.7114L85.7857 82.7114Z" stroke="#EF7F1A" stroke-opacity="1.000000" stroke-width="2.459839" stroke-linejoin="round"/>
	<path id="Vector" d="M20.4299 0L89.9473 0C90.5147 0 90.9876 0.4729 90.9876 1.08771L90.9876 75.2395C90.9876 75.8542 90.5147 76.3272 89.9473 76.3272L82.7591 76.3272L82.7591 74.1991L88.8596 74.1991L88.8596 2.17535L21.4703 2.17535L21.4703 7.99213L19.3422 7.99213L19.3422 1.08771C19.3422 0.4729 19.8151 0 20.4299 0L20.4299 0Z" fill="#EF7F1A" fill-opacity="1.000000" fill-rule="nonzero"/>
	<path id="Vector" d="M93.1158 75.6177L93.1158 82.7113L82.7591 82.7113L82.7591 75.6177L93.1158 75.6177Z" stroke="#EF7F1A" stroke-opacity="1.000000" stroke-width="2.459839" stroke-linejoin="round"/>
</svg>
